<svg width="30" height="30" viewBox="0 0 30 30" fill="none" xmlns="http://www.w3.org/2000/svg">
<path fill-rule="evenodd" clip-rule="evenodd" d="M24.7559 15C24.7559 16.2811 24.5035 17.5498 24.0132 18.7334C23.523 19.917 22.8044 20.9925 21.8984 21.8984C20.9925 22.8043 19.917 23.523 18.7334 24.0132C17.5498 24.5035 16.2812 24.7558 15 24.7558C13.7188 24.7558 12.4502 24.5035 11.2666 24.0132C10.083 23.523 9.00748 22.8043 8.10156 21.8984C7.19565 20.9925 6.47704 19.917 5.98676 18.7334C5.49648 17.5498 5.24414 16.2811 5.24414 15C5.24414 12.4126 6.27199 9.93114 8.10157 8.10156C9.93115 6.27198 12.4126 5.24414 15 5.24414C17.5874 5.24414 20.0689 6.27198 21.8984 8.10156C23.728 9.93114 24.7559 12.4126 24.7559 15Z" fill="white"/>
<path opacity="0.6" fill-rule="evenodd" clip-rule="evenodd" d="M24.7559 15C24.7559 20.388 20.388 24.7558 15 24.7558C9.61198 24.7558 5.24414 20.388 5.24414 15C5.24414 9.61197 9.61198 5.24414 15 5.24414C20.388 5.24414 24.7559 9.61197 24.7559 15Z" fill="white"/>
<path fill-rule="evenodd" clip-rule="evenodd" d="M15 4.49414C9.20666 4.49414 4.49415 9.20666 4.49414 15C4.49414 20.7933 9.20665 25.5059 15 25.5059C20.7933 25.5059 25.5059 20.7933 25.5059 15C25.5058 9.20666 20.7933 4.49414 15 4.49414ZM15 5.99414C19.9827 5.99414 24.0058 10.0173 24.0059 15C24.0059 19.9827 19.9827 24.0059 15 24.0059C10.0173 24.0059 5.99414 19.9827 5.99414 15C5.99415 10.0173 10.0173 5.99414 15 5.99414Z" fill="white"/>
</svg>
