<svg width="30" height="30" viewBox="0 0 30 30" fill="none" xmlns="http://www.w3.org/2000/svg">
<path fill-rule="evenodd" clip-rule="evenodd" d="M15 4.5C9.20989 4.5 4.5 9.20988 4.5 15C4.5 20.7901 9.20989 25.5 15 25.5C20.7901 25.5 25.5 20.7901 25.5 15C25.5 9.20988 20.7901 4.5 15 4.5ZM15 6C19.9794 6 24 10.0205 24 15C24 19.9794 19.9795 24 15 24C10.0205 24 6 19.9794 6 15C6 10.0205 10.0206 6 15 6Z" fill="white"/>
<path opacity="0.8" fill-rule="evenodd" clip-rule="evenodd" d="M14.9765 4.86589C14.8673 4.87033 14.7603 4.89858 14.6632 4.94868C14.566 4.99878 14.481 5.06952 14.414 5.15593C13.3543 6.48055 12.6602 8.15091 12.2988 10.4997H6.37494C5.3607 10.4847 5.3607 12.014 6.37494 11.9997H12.123C12.0447 12.9093 12 13.8947 12 14.9997C12 16.1047 12.0448 17.09 12.123 17.9997H6.37494C5.3607 17.9847 5.3607 19.514 6.37494 19.4997H12.2988C12.6603 21.8485 13.3544 23.5189 14.414 24.8434C14.5386 24.9979 14.7194 25.0968 14.9167 25.1183C15.114 25.1398 15.3119 25.0823 15.4669 24.9583C15.6219 24.8343 15.7214 24.6539 15.7437 24.4567C15.766 24.2595 15.7093 24.0614 15.5859 23.9059C14.7375 22.8455 14.14 21.5111 13.8076 19.4997H23.6249C24.6392 19.5147 24.6392 17.9853 23.6249 17.9997H13.623C13.5441 17.1139 13.5 16.1284 13.5 14.9997C13.5 13.8709 13.5441 12.8855 13.623 11.9997H23.6249C24.6392 12.0147 24.6392 10.4853 23.6249 10.4997H13.8076C14.14 8.48824 14.7376 7.15375 15.5859 6.09343C15.6783 5.9817 15.7364 5.84558 15.7531 5.70153C15.7697 5.55748 15.7442 5.41168 15.6798 5.28179C15.6153 5.15191 15.5145 5.04349 15.3897 4.96968C15.2649 4.89587 15.1214 4.85982 14.9765 4.86589Z" fill="white"/>
</svg>
