<svg width="391" height="685" viewBox="0 0 391 685" fill="none" xmlns="http://www.w3.org/2000/svg">
<g clip-path="url(#clip0_2226_2)">
<path d="M274.77 492.09C270.51 492.3 266.26 492.52 262.29 493.87C258.27 495.24 254.54 497.78 251.76 501.07C244.46 509.69 243.74 523.45 235 530.03C232.88 531.63 230.29 532.8 227.65 533.48C223.22 534.62 218.65 534.36 214.06 534.11V683.87H298.01V492.09H274.76H274.77Z" stroke="#4D2689"/>
<path d="M329.58 492.08C333.84 492.29 338.08 492.51 342.06 493.87C346.08 495.24 349.81 497.78 352.59 501.06C359.89 509.69 360.61 523.44 369.35 530.02C371.47 531.62 374.06 532.79 376.7 533.47C381.13 534.61 385.71 534.35 390.29 534.1V683.86H306.34V492.08H329.59H329.58Z" stroke="#891688"/>
<path d="M106.17 17.17C105.96 17.36 105.75 17.55 105.54 17.74C89.64 32.28 73.63 46.43 59.05 62.61C51.44 71.05 44.23 80.03 39.81 90.3C37.71 95.17 36.24 100.32 34.77 105.47C42.08 129.22 49.39 152.93 54.93 177.07C62.71 210.95 66.98 245.55 71.26 280.2H165.26C169.54 245.71 173.8 211.26 181.53 177.52C187.09 153.23 194.42 129.37 201.76 105.48C199.28 94.49 196.8 83.51 189.58 74.19C183.06 65.77 172.68 58.72 171.59 49.74C170.93 44.27 173.71 38.1 176.5 31.92L183.99 9.90999L156.65 0.609985C154.28 4.74999 151.91 8.89999 148.77 12.56C143.52 18.69 136.12 23.48 128.23 24.88C124.74 25.5 121.15 25.46 117.63 24.98C116.23 24.79 114.84 24.53 113.53 24.03C111.95 23.42 110.48 22.45 109.28 21.25C108.07 20.04 107.12 18.61 106.18 17.18L106.17 17.17Z" stroke="#1E74FD"/>
<path d="M309.63 17.17C309.84 17.36 310.05 17.55 310.26 17.74C326.16 32.28 342.17 46.43 356.75 62.61C364.36 71.05 371.57 80.03 375.99 90.3C378.09 95.17 379.56 100.32 381.03 105.47C373.71 129.22 366.41 152.93 360.87 177.07C353.09 210.95 348.82 245.55 344.54 280.2H250.54C246.26 245.71 242 211.26 234.27 177.52C228.71 153.23 221.38 129.37 214.04 105.48C216.52 94.49 219.01 83.51 226.21 74.19C232.73 65.77 243.11 58.72 244.2 49.74C244.86 44.27 242.08 38.1 239.29 31.92L231.8 9.90999L259.14 0.609985C261.51 4.74999 263.88 8.89999 267.02 12.56C272.28 18.69 279.67 23.48 287.55 24.88C291.04 25.5 294.63 25.46 298.15 24.98C299.55 24.79 300.94 24.53 302.25 24.03C303.83 23.42 305.3 22.45 306.5 21.25C307.71 20.04 308.66 18.61 309.6 17.18L309.63 17.17Z" stroke="#F2FC24"/>
<path d="M78.29 431.18C81.23 431.05 84.17 430.92 87.1 430.68C90.03 430.44 92.95 430.1 95.88 429.75C98.65 424.37 101.41 418.99 103.52 413.39C107.9 401.75 109.4 389.18 110.91 376.59C108.77 376.01 106.63 375.43 104.41 374.85C97.32 372.99 89.5 371.11 84.83 365.93C82.89 363.78 81.5 361.07 80.11 358.36C79.96 357.71 79.82 357.05 79.73 356.4C78.97 351.05 81.71 345.84 83.81 340.56C89.39 326.52 90.44 312.13 91.49 297.73C79.1 297.08 66.73 296.42 54.69 298.35C46.5 299.66 38.48 302.16 30.93 306.26C18.08 313.23 6.64998 324.8 2.48998 338.06C-1.82002 351.81 1.70998 367.35 4.58998 382.23C6.85998 393.91 8.74998 405.16 10.63 416.42C18.56 415.46 26.48 414.5 33.71 416.47C42.73 418.92 50.65 425.94 59.7 428.88C65.58 430.79 71.92 430.98 78.26 431.17L78.29 431.18Z" stroke="#297F00"/>
<path d="M151.35 431.18C148.41 431.05 145.47 430.92 142.54 430.68C139.61 430.44 136.69 430.1 133.76 429.75C130.99 424.37 128.22 418.99 126.12 413.39C121.74 401.75 120.24 389.18 118.73 376.59C120.87 376.01 123.01 375.44 125.23 374.85C132.32 372.99 140.14 371.1 144.81 365.93C146.75 363.78 148.14 361.07 149.53 358.36C149.67 357.71 149.82 357.05 149.91 356.4C150.67 351.06 147.93 345.84 145.83 340.56C140.25 326.52 139.19 312.14 138.15 297.73C150.54 297.08 162.91 296.42 174.95 298.35C183.14 299.66 191.16 302.17 198.71 306.26C211.56 313.23 222.99 324.8 227.15 338.06C231.46 351.81 227.93 367.35 225.05 382.23C222.78 393.91 220.89 405.16 219.01 416.42C211.08 415.46 203.16 414.5 195.93 416.47C186.91 418.93 178.99 425.94 169.94 428.88C164.06 430.79 157.72 430.98 151.38 431.17L151.35 431.18Z" stroke="#004320"/>
<path d="M97.19 683.86H181.14V534.1C175.75 534.34 170.36 534.59 166.02 532.98C156.15 529.32 151.73 516.11 147.31 504.03C138.79 480.75 130.35 461.71 121.88 442.67C119.14 442.98 116.4 443.29 113.65 443.47C108.18 443.82 102.69 443.62 97.19 443.41C91.69 443.61 86.2 443.81 80.73 443.47C77.98 443.29 75.24 442.98 72.5 442.67C64.03 461.72 55.58 480.75 47.07 504.03C42.65 516.11 38.23 529.33 28.36 532.98C24.02 534.59 18.63 534.34 13.23 534.1V683.86H97.18H97.19Z" stroke="#FE65CB"/>
<path d="M367.59 423.1V341.45C366.44 339.72 365.29 337.99 364.13 337.99C362.97 337.99 361.82 339.72 360.67 341.45V423.1C361.82 424.83 362.97 426.56 364.13 426.56C365.29 426.56 366.43 424.83 367.59 423.1Z" stroke="black"/>
<path d="M348.4 423.1V341.44C349.55 339.71 350.7 337.98 351.86 337.98C353.02 337.98 354.16 339.71 355.32 341.44V423.1C354.17 424.83 353.02 426.56 351.86 426.56C350.7 426.56 349.56 424.83 348.4 423.1Z" stroke="black"/>
<path d="M250 381.75L267.89 444.73H333.65L334.98 381L250.01 381.76L250 381.75Z" stroke="#BD6340"/>
<path d="M250 297.75L267.89 360.73H333.65L334.98 297L250.01 297.76L250 297.75Z" stroke="#00FF7F"/>
</g>
<defs>
<clipPath id="clip0_2226_2">
<rect width="390.79" height="684.37" fill="white"/>
</clipPath>
</defs>
</svg>
