<?xml version="1.0" encoding="UTF-8"?>
<svg id="_图层_1" data-name="图层 1" xmlns="http://www.w3.org/2000/svg" viewBox="0 0 390.79 684.37">
  <defs>
    <style>
      .cls-1 {
        fill: none;
        stroke: #040000;
      }
    </style>
  </defs>
  <path class="cls-1" d="M274.77,492.09c-4.26.21-8.51.43-12.48,1.78-4.02,1.37-7.75,3.91-10.53,7.2-7.3,8.62-8.02,22.38-16.76,28.96-2.12,1.6-4.71,2.77-7.35,3.45-4.43,1.14-9,.88-13.59.63v149.76h83.95v-191.78h-23.25Z"/>
  <path class="cls-1" d="M329.58,492.08c4.26.21,8.5.43,12.48,1.79,4.02,1.37,7.75,3.91,10.53,7.19,7.3,8.63,8.02,22.38,16.76,28.96,2.12,1.6,4.71,2.77,7.35,3.45,4.43,1.14,9.01.88,13.59.63v149.76h-83.95v-191.78h23.25Z"/>
  <path class="cls-1" d="M106.17,17.17c-.21.19-.42.38-.63.57-15.9,14.54-31.91,28.69-46.49,44.87-7.61,8.44-14.82,17.42-19.24,27.69-2.1,4.87-3.57,10.02-5.04,15.17,7.31,23.75,14.62,47.46,20.16,71.6,7.78,33.88,12.05,68.48,16.33,103.13h94c4.28-34.49,8.54-68.94,16.27-102.68,5.56-24.29,12.89-48.15,20.23-72.04-2.48-10.99-4.96-21.97-12.18-31.29-6.52-8.42-16.9-15.47-17.99-24.45-.66-5.47,2.12-11.64,4.91-17.82l7.49-22.01L156.65.61c-2.37,4.14-4.74,8.29-7.88,11.95-5.25,6.13-12.65,10.92-20.54,12.32-3.49.62-7.08.58-10.6.1-1.4-.19-2.79-.45-4.1-.95-1.58-.61-3.05-1.58-4.25-2.78-1.21-1.21-2.16-2.64-3.1-4.07Z"/>
  <path class="cls-1" d="M309.63,17.17c.21.19.42.38.63.57,15.9,14.54,31.91,28.69,46.49,44.87,7.61,8.44,14.82,17.42,19.24,27.69,2.1,4.87,3.57,10.02,5.04,15.17-7.32,23.75-14.62,47.46-20.16,71.6-7.78,33.88-12.05,68.48-16.33,103.13h-94c-4.28-34.49-8.54-68.94-16.27-102.68-5.56-24.29-12.89-48.15-20.23-72.04,2.48-10.99,4.97-21.97,12.17-31.29,6.52-8.42,16.9-15.47,17.99-24.45.66-5.47-2.12-11.64-4.91-17.82l-7.49-22.01,27.34-9.3c2.37,4.14,4.74,8.29,7.88,11.95,5.26,6.13,12.65,10.92,20.53,12.32,3.49.62,7.08.58,10.6.1,1.4-.19,2.79-.45,4.1-.95,1.58-.61,3.05-1.58,4.25-2.78,1.21-1.21,2.16-2.64,3.1-4.07Z"/>
  <path class="cls-1" d="M78.29,431.18c2.94-.13,5.88-.26,8.81-.5,2.93-.24,5.85-.58,8.78-.93,2.77-5.38,5.53-10.76,7.64-16.36,4.38-11.64,5.88-24.21,7.39-36.8-2.14-.58-4.28-1.16-6.5-1.74-7.09-1.86-14.91-3.74-19.58-8.92-1.94-2.15-3.33-4.86-4.72-7.57-.15-.65-.29-1.31-.38-1.96-.76-5.35,1.98-10.56,4.08-15.84,5.58-14.04,6.63-28.43,7.68-42.83-12.39-.65-24.76-1.31-36.8.62-8.19,1.31-16.21,3.81-23.76,7.91-12.85,6.97-24.28,18.54-28.44,31.8-4.31,13.75-.78,29.29,2.1,44.17,2.27,11.68,4.16,22.93,6.04,34.19,7.93-.96,15.85-1.92,23.08.05,9.02,2.45,16.94,9.47,25.99,12.41,5.88,1.91,12.22,2.1,18.56,2.29Z"/>
  <path class="cls-1" d="M151.35,431.18c-2.94-.13-5.88-.26-8.81-.5-2.93-.24-5.85-.58-8.78-.93-2.77-5.38-5.54-10.76-7.64-16.36-4.38-11.64-5.88-24.21-7.39-36.8,2.14-.58,4.28-1.15,6.5-1.74,7.09-1.86,14.91-3.75,19.58-8.92,1.94-2.15,3.33-4.86,4.72-7.57.14-.65.29-1.31.38-1.96.76-5.34-1.98-10.56-4.08-15.84-5.58-14.04-6.64-28.42-7.68-42.83,12.39-.65,24.76-1.31,36.8.62,8.19,1.31,16.21,3.82,23.76,7.91,12.85,6.97,24.28,18.54,28.44,31.8,4.31,13.75.78,29.29-2.1,44.17-2.27,11.68-4.16,22.93-6.04,34.19-7.93-.96-15.85-1.92-23.08.05-9.02,2.46-16.94,9.47-25.99,12.41-5.88,1.91-12.22,2.1-18.56,2.29Z"/>
  <path class="cls-1" d="M97.19,683.86h83.95v-149.76c-5.39.24-10.78.49-15.12-1.12-9.87-3.66-14.29-16.87-18.71-28.95-8.52-23.28-16.96-42.32-25.43-61.36-2.74.31-5.48.62-8.23.8-5.47.35-10.96.15-16.46-.06-5.5.2-10.99.4-16.46.06-2.75-.18-5.49-.49-8.23-.8-8.47,19.05-16.92,38.08-25.43,61.36-4.42,12.08-8.84,25.3-18.71,28.95-4.34,1.61-9.73,1.36-15.13,1.12v149.76h83.95Z"/>
  <path class="cls-1" d="M367.59,423.1v-81.65c-1.15-1.73-2.3-3.46-3.46-3.46s-2.31,1.73-3.46,3.46v81.65c1.15,1.73,2.3,3.46,3.46,3.46s2.3-1.73,3.46-3.46Z"/>
  <path class="cls-1" d="M348.4,423.1v-81.66c1.15-1.73,2.3-3.46,3.46-3.46s2.3,1.73,3.46,3.46v81.66c-1.15,1.73-2.3,3.46-3.46,3.46s-2.3-1.73-3.46-3.46Z"/>
  <path class="cls-1" d="M253.58,351.16l17.89,62.98h65.76l1.33-63.73-84.97.76Z"/>
</svg>