<svg width="1125" height="1013" viewBox="0 0 1125 1013" fill="none" xmlns="http://www.w3.org/2000/svg">
<path d="M667.5 275.5L700 261C766.8 291.4 781.833 326.667 781 340.5C765.4 404.1 766.5 449.667 769 464.5H700C694.8 460.9 689.5 466 687.5 469H608.5L597.5 412.5C604.7 403.3 604.167 389.667 603 384C617.5 340 632 329 636 319C639.2 311 658.333 286.667 667.5 275.5Z" stroke="black"/>
<path d="M667.5 275.5L700 261C766.8 291.4 781.833 326.667 781 340.5C765.4 404.1 766.5 449.667 769 464.5H700C694.8 460.9 689.5 466 687.5 469H608.5L597.5 412.5C604.7 403.3 604.167 389.667 603 384C617.5 340 632 329 636 319C639.2 311 658.333 286.667 667.5 275.5Z" stroke="black"/>
<path d="M737 516L710 526.5L726 617L710 732H778L787.5 566.5L737 516Z" stroke="black"/>
<path d="M641.5 516L594.5 532C628.9 599.2 602.5 619.333 585 621V723L658.5 717.5C666.1 676.7 665 621.167 663.5 598.5L641.5 516Z" stroke="black"/>
<path d="M859.5 302H816V334.5C838.4 298.5 838.667 386.5 836 435L824.5 676L788 1011.5H986.5L953 715L932.5 620.5L922.5 512.5V446.5C867.7 424.1 857.667 340.833 859.5 302Z" stroke="black"/>
<path d="M966 406.839C1006.8 422.039 1061 344.172 1083 303.339C1100.6 292.939 1100 345.672 1097.5 373.339C1098.7 410.539 1081.33 441.506 1072.5 452.339L1061 503.339L1072.5 580.839L1123.5 818.339L1024.5 840.339L1013 779.339L1001 697.339L985 606.839C976.6 595.239 968.833 468.672 966 406.839Z" stroke="black"/>
<path d="M639.078 868.5L679.078 771H684.578L716.078 875V1012H704.078C676.078 962.4 646.411 991.333 635.078 1012H625.578C622.378 941.2 633.245 886.833 639.078 868.5Z" stroke="black"/>
<path d="M83.5 262.5L116 248C182.8 278.4 197.833 313.667 197 327.5C181.4 391.1 182.5 436.667 185 451.5H116C110.8 447.9 105.5 453 103.5 456H24.5L13.5 399.5C20.7 390.3 20.1667 376.667 19 371C33.5 327 48 316 52 306C55.2 298 74.3333 273.667 83.5 262.5Z" stroke="black"/>
<path d="M90 15.5L122.5 1C189.3 31.4 204.333 66.6667 203.5 80.5C187.9 144.1 189 189.667 191.5 204.5H122.5C117.3 200.9 112 206 110 209H31L20 152.5C27.2 143.3 26.6667 129.667 25.5 124C40 80 54.5 69 58.5 59C61.7 51 80.8333 26.6667 90 15.5Z" stroke="black"/>
<path d="M688 19.5L720.5 5C787.3 35.4 802.333 70.6667 801.5 84.5C785.9 148.1 787 193.667 789.5 208.5H720.5C715.3 204.9 710 210 708 213H629L618 156.5C625.2 147.3 624.667 133.667 623.5 128C638 84 652.5 73 656.5 63C659.7 55 678.833 30.6667 688 19.5Z" stroke="black"/>
<path d="M153 503L126 513.5L142 604L126 719H194L203.5 553.5L153 503Z" stroke="black"/>
<path d="M57.5 503L10.5 519C44.9 586.2 18.5 606.333 1 608V710L74.5 704.5C82.1 663.7 81 608.167 79.5 585.5L57.5 503Z" stroke="black"/>
<path d="M275.5 289H232V321.5C254.4 285.5 254.667 373.5 252 422L240.5 663L204 998.5H402.5L369 702L348.5 607.5L338.5 499.5V433.5C283.7 411.1 273.667 327.833 275.5 289Z" stroke="black"/>
<path d="M382 393.839C422.8 409.039 477 331.172 499 290.339C516.6 279.939 516 332.672 513.5 360.339C514.7 397.539 497.333 428.506 488.5 439.339L477 490.339L488.5 567.839L539.5 805.339L440.5 827.339L429 766.339L417 684.339L401 593.839C392.6 582.239 384.833 455.672 382 393.839Z" stroke="black"/>
<path d="M55.078 855.5L95.0779 758H100.578L132.078 862V999H120.078C92.0781 949.4 62.4115 978.333 51.0781 999H41.578C38.378 928.2 49.2446 873.833 55.078 855.5Z" stroke="black"/>
</svg>
