<svg width="52" height="48" viewBox="0 0 52 48" fill="none" xmlns="http://www.w3.org/2000/svg">
<path fill-rule="evenodd" clip-rule="evenodd" d="M10 15.5C10 14.6716 10.6716 14 11.5 14H17.3874L17.6812 14.2988C18.2554 14.8827 19.1347 15.5294 20 15.5294C20.8653 15.5294 21.7446 14.8827 22.3188 14.2988L22.6126 14H28.5C29.3284 14 30 14.6716 30 15.5V24.2794C30 25.1078 29.3284 25.7794 28.5 25.7794H27.5V32C27.5 32.8284 26.8284 33.5 26 33.5H14C13.1716 33.5 12.5 32.8284 12.5 32V25.7794H11.5C10.6716 25.7794 10 25.1078 10 24.2794V15.5ZM12 16V23.7794H14.5V31.5H25.5V23.7794H28V16H23.4343C22.7141 16.6561 21.4838 17.5294 20 17.5294C18.5162 17.5294 17.2859 16.6561 16.5657 16H12Z" fill="white"/>
<path fill-rule="evenodd" clip-rule="evenodd" d="M37.1643 23.1426L37.6357 22.6712L39.9927 25.0282L42.3498 22.6712L42.8212 23.1426L40.2285 25.7353C40.2284 25.7353 40.2284 25.7353 39.9927 25.4996L40.2285 25.7353L39.9927 25.971L37.1643 23.1426Z" fill="white"/>
</svg>
