<svg width="52" height="48" viewBox="0 0 52 48" fill="none" xmlns="http://www.w3.org/2000/svg">
<path fill-rule="evenodd" clip-rule="evenodd" d="M12.5 16.5V20.5H23.5V16.5H12.5ZM10.5 16C10.5 15.1759 11.1656 14.5 11.9983 14.5H24.0049C24.8453 14.5 25.5 15.1834 25.5 15.9997V17.5H28.0001C28.8289 17.5 29.5 18.1719 29.5 19V25.0703C29.5 25.8116 28.9585 26.4417 28.2257 26.5533L18 28.1093V33.5H16V27.6797C16 26.9384 16.5415 26.3083 17.2743 26.1967L27.5 24.6407V19.5H25.5V21.001C25.5 21.8321 24.8258 22.5 24 22.5H12C11.1716 22.5 10.5 21.8284 10.5 21V16Z" fill="white"/>
<path fill-rule="evenodd" clip-rule="evenodd" d="M37.1643 23.1431L37.6357 22.6717L39.9927 25.0287L42.3498 22.6717L42.8212 23.1431L40.2285 25.7358C40.2284 25.7358 40.2284 25.7358 39.9927 25.5001L40.2285 25.7358L39.9927 25.9715L37.1643 23.1431Z" fill="white"/>
</svg>
