<svg width="24" height="24" viewBox="0 0 24 24" fill="none" xmlns="http://www.w3.org/2000/svg">
<path fill-rule="evenodd" clip-rule="evenodd" d="M11 5.5C8.24758 5.5 6.01455 7.72406 6.00007 10.473L5.99683 11.0891L5.4451 11.3632C4.29019 11.9372 3.5 13.1272 3.5 14.5C3.5 16.433 5.067 18 7 18H16.5C18.7091 18 20.5 16.2091 20.5 14C20.5 11.8755 18.8431 10.1371 16.7517 10.0078L16.0249 9.9628L15.8446 9.2573C15.2923 7.09649 13.3313 5.5 11 5.5ZM4.02783 9.87164C4.34561 6.29999 7.34579 3.5 11 3.5C14.0225 3.5 16.5956 5.4148 17.5761 8.09635C20.3766 8.60371 22.5 11.0536 22.5 14C22.5 17.3137 19.8137 20 16.5 20H7C3.96243 20 1.5 17.5376 1.5 14.5C1.5 12.556 2.50865 10.8491 4.02783 9.87164Z" fill="url(#paint0_linear_541_1317)"/>
<defs>
<linearGradient id="paint0_linear_541_1317" x1="0.5" y1="14.5" x2="29" y2="14.5" gradientUnits="userSpaceOnUse">
<stop stop-color="white"/>
<stop offset="1" stop-color="#999999" stop-opacity="0.2"/>
</linearGradient>
</defs>
</svg>
