<svg width="52" height="48" viewBox="0 0 52 48" fill="none" xmlns="http://www.w3.org/2000/svg">
<path fill-rule="evenodd" clip-rule="evenodd" d="M20.6893 15.3964C21.2751 14.8106 22.2248 14.8106 22.8106 15.3964L29.8535 22.4393C30.4393 23.025 30.4393 23.9748 29.8535 24.5606L23.1629 31.2512L29.9997 31.2499L30.0001 33.2499L15.4566 33.25C15.059 33.2499 14.6776 33.0918 14.3964 32.8106L9.89637 28.3106C9.31058 27.7248 9.31059 26.775 9.89637 26.1893L20.6893 15.3964ZM20.3356 31.2515L21.0861 30.5003L14.7499 24.1641L11.6641 27.2499L15.6643 31.2501L20.3356 31.2515ZM16.1641 22.7499L22.4999 29.0857L28.0857 23.4999L21.7499 17.1641L16.1641 22.7499Z" fill="white"/>
<path fill-rule="evenodd" clip-rule="evenodd" d="M37.1643 23.1431L37.6357 22.6717L39.9927 25.0287L42.3498 22.6717L42.8212 23.1431L40.2285 25.7358C40.2284 25.7358 40.2284 25.7358 39.9927 25.5001L40.2285 25.7358L39.9927 25.9715L37.1643 23.1431Z" fill="white"/>
</svg>
