  0
SECTION
  2
HEADER
  9
$ACADVER
  1
AC1006
  9
$INSBASE
  10
0.000000
  20
0.000000
  30
0.000000
  9
$EXTMIN
  10
0.000000
  20
0.000000
  9
$EXTMAX
  10
1000.000000
  20
1000.000000
  0
ENDSEC
  0
SECTION
  2
BLOCKS
  0
BLOCK
  8
0
  2
Pattern_4025560_M
  70
64
  10
0
  20
0
  0
POLYLINE
  8
1
  66
1
  70
1
  250
2
  0
VERTEX
  8
1
  10
-94.520035
  20
1496.763916
  0
VERTEX
  8
1
  10
-130.606415
  20
1491.612061
  0
VERTEX
  8
1
  10
-161.064362
  20
1470.803711
  0
VERTEX
  8
1
  10
-209.512009
  20
1387.055176
  0
VERTEX
  8
1
  10
-230.769806
  20
1377.078369
  0
VERTEX
  8
1
  10
-270.052704
  20
1375.262207
  0
VERTEX
  8
1
  10
-270.052704
  20
942.239990
  0
VERTEX
  8
1
  10
-27.298859
  20
942.239990
  0
VERTEX
  8
1
  10
-27.298843
  20
1496.763916
  0
SEQEND
  0
TEXT
  8
1
  10
-94.520035
  20
1496.763916
  40
0.250000
  50
0.000000
  1
# 335
  7
STANDARD
  0
TEXT
  8
1
  10
-270.052704
  20
1375.262207
  40
0.250000
  50
0.000000
  1
# 336
  7
STANDARD
  0
TEXT
  8
1
  10
-270.052704
  20
942.239990
  40
0.250000
  50
0.000000
  1
# 337
  7
STANDARD
  0
TEXT
  8
1
  10
-27.298859
  20
942.239990
  40
0.250000
  50
0.000000
  1
# 338
  7
STANDARD
  0
TEXT
  8
1
  10
-27.298843
  20
1496.763916
  40
0.250000
  50
0.000000
  1
# 339
  7
STANDARD
  0
POINT
  8
2
  10
-94.520035
  20
1496.763916
  0
POINT
  8
2
  10
-270.052704
  20
1375.262207
  0
POINT
  8
2
  10
-270.052704
  20
942.239990
  0
POINT
  8
2
  10
-27.298859
  20
942.239990
  0
POINT
  8
2
  10
-27.298843
  20
1496.763916
  0
POINT
  8
3
  10
-130.606415
  20
1491.612061
  0
POINT
  8
3
  10
-161.064362
  20
1470.803711
  0
POINT
  8
3
  10
-209.512009
  20
1387.055176
  0
POINT
  8
3
  10
-230.769806
  20
1377.078369
  0
POLYLINE
  8
84
  66
1
  70
1
  250
2
  0
VERTEX
  8
84
  10
-94.520035
  20
1496.763916
  0
VERTEX
  8
84
  10
-130.606415
  20
1491.612061
  0
VERTEX
  8
84
  10
-161.064362
  20
1470.803711
  0
VERTEX
  8
84
  10
-209.512009
  20
1387.055176
  0
VERTEX
  8
84
  10
-230.769806
  20
1377.078369
  0
VERTEX
  8
84
  10
-270.052704
  20
1375.262207
  0
VERTEX
  8
84
  10
-270.052704
  20
1375.262207
  0
VERTEX
  8
84
  10
-270.052704
  20
942.239990
  0
VERTEX
  8
84
  10
-270.052704
  20
942.239990
  0
VERTEX
  8
84
  10
-27.298859
  20
942.239990
  0
VERTEX
  8
84
  10
-27.298859
  20
942.239990
  0
VERTEX
  8
84
  10
-27.298843
  20
1496.763916
  0
VERTEX
  8
84
  10
-27.298843
  20
1496.763916
  0
VERTEX
  8
84
  10
-94.520035
  20
1496.763916
  0
SEQEND
  0
POINT
  8
2
  10
-94.520035
  20
1496.763916
  0
POINT
  8
2
  10
-270.052704
  20
1375.262207
  0
POINT
  8
2
  10
-270.052704
  20
942.239990
  0
POINT
  8
2
  10
-27.298859
  20
942.239990
  0
POINT
  8
2
  10
-27.298843
  20
1496.763916
  0
POINT
  8
3
  10
-130.606415
  20
1491.612061
  0
POINT
  8
3
  10
-161.064362
  20
1470.803711
  0
POINT
  8
3
  10
-209.512009
  20
1387.055176
  0
POINT
  8
3
  10
-230.769806
  20
1377.078369
  0
LINE
  8
7
  10
-148.675781
  20
1129.501953
  11
-148.675781
  21
1309.501953
  0
POLYLINE
  8
8
  66
1
  70
1
  250
1
  0
VERTEX
  8
8
  10
-187.181091
  20
1136.274170
  0
VERTEX
  8
8
  10
-131.704132
  20
1365.770874
  0
VERTEX
  8
8
  10
-139.074509
  20
1377.840576
  0
VERTEX
  8
8
  10
-151.144226
  20
1370.470215
  0
VERTEX
  8
8
  10
-206.621170
  20
1140.973511
  0
VERTEX
  8
8
  10
-199.250763
  20
1128.903809
  0
SEQEND
  0
TEXT
  8
8
  10
-187.181091
  20
1136.274170
  40
0.250000
  50
0.000000
  1
# 328
  7
STANDARD
  0
TEXT
  8
8
  10
-131.704132
  20
1365.770874
  40
0.250000
  50
0.000000
  1
# 329
  7
STANDARD
  0
TEXT
  8
8
  10
-151.144226
  20
1370.470215
  40
0.250000
  50
0.000000
  1
# 330
  7
STANDARD
  0
TEXT
  8
8
  10
-206.621170
  20
1140.973511
  40
0.250000
  50
0.000000
  1
# 327
  7
STANDARD
  0
POINT
  8
2
  10
-187.181091
  20
1136.274170
  0
POINT
  8
2
  10
-131.704132
  20
1365.770874
  0
POINT
  8
2
  10
-151.144226
  20
1370.470215
  0
POINT
  8
2
  10
-206.621170
  20
1140.973511
  0
POINT
  8
3
  10
-139.074509
  20
1377.840576
  0
POINT
  8
3
  10
-199.250763
  20
1128.903809
  0
POLYLINE
  8
85
  66
1
  70
1
  250
1
  0
VERTEX
  8
85
  10
-187.181091
  20
1136.274170
  0
VERTEX
  8
85
  10
-131.704132
  20
1365.770874
  0
VERTEX
  8
85
  10
-131.704132
  20
1365.770874
  0
VERTEX
  8
85
  10
-139.074509
  20
1377.840576
  0
VERTEX
  8
85
  10
-151.144226
  20
1370.470215
  0
VERTEX
  8
85
  10
-151.144226
  20
1370.470215
  0
VERTEX
  8
85
  10
-206.621170
  20
1140.973511
  0
VERTEX
  8
85
  10
-206.621170
  20
1140.973511
  0
VERTEX
  8
85
  10
-199.250763
  20
1128.903809
  0
VERTEX
  8
85
  10
-187.181091
  20
1136.274170
  0
SEQEND
  0
POINT
  8
2
  10
-187.181091
  20
1136.274170
  0
POINT
  8
2
  10
-131.704132
  20
1365.770874
  0
POINT
  8
2
  10
-151.144226
  20
1370.470215
  0
POINT
  8
2
  10
-206.621170
  20
1140.973511
  0
POINT
  8
3
  10
-139.074509
  20
1377.840576
  0
POINT
  8
3
  10
-199.250763
  20
1128.903809
  0
POLYLINE
  8
8
  66
1
  70
0
  250
1
  0
VERTEX
  8
8
  10
-270.052704
  20
952.239990
  0
VERTEX
  8
8
  10
-27.298859
  20
952.239990
  0
SEQEND
  0
TEXT
  8
8
  10
-270.052704
  20
952.239990
  40
0.250000
  50
0.000000
  1
# 323
  7
STANDARD
  0
TEXT
  8
8
  10
-27.298859
  20
952.239990
  40
0.250000
  50
0.000000
  1
# 324
  7
STANDARD
  0
POINT
  8
2
  10
-270.052704
  20
952.239990
  0
POINT
  8
2
  10
-27.298859
  20
952.239990
  0
POLYLINE
  8
85
  66
1
  70
0
  250
1
  0
VERTEX
  8
85
  10
-270.052704
  20
952.239990
  0
VERTEX
  8
85
  10
-27.298859
  20
952.239990
  0
VERTEX
  8
85
  10
-27.298859
  20
952.239990
  0
SEQEND
  0
TEXT
  8
85
  10
-27.298859
  20
952.239990
  40
0.250000
  50
0.000000
  1
# 324
  7
STANDARD
  0
POINT
  8
2
  10
-270.052704
  20
952.239990
  0
POINT
  8
2
  10
-27.298859
  20
952.239990
  0
POLYLINE
  8
11
  66
1
  70
1
  250
1
  0
VERTEX
  8
11
  10
-32.724342
  20
944.991760
  0
VERTEX
  8
11
  10
-33.974342
  20
945.326721
  0
VERTEX
  8
11
  10
-34.889404
  20
946.241760
  0
VERTEX
  8
11
  10
-35.224342
  20
947.491760
  0
VERTEX
  8
11
  10
-34.889404
  20
948.741760
  0
VERTEX
  8
11
  10
-33.974342
  20
949.656799
  0
VERTEX
  8
11
  10
-32.724342
  20
949.991760
  0
VERTEX
  8
11
  10
-31.474342
  20
949.656799
  0
VERTEX
  8
11
  10
-30.559280
  20
948.741760
  0
VERTEX
  8
11
  10
-30.224342
  20
947.491760
  0
VERTEX
  8
11
  10
-30.559280
  20
946.241760
  0
VERTEX
  8
11
  10
-31.474342
  20
945.326721
  0
SEQEND
  0
TEXT
  8
11
  10
-32.724342
  20
944.991760
  40
0.250000
  50
0.000000
  1
# 319
  7
STANDARD
  0
TEXT
  8
11
  10
-35.224342
  20
947.491760
  40
0.250000
  50
0.000000
  1
# 320
  7
STANDARD
  0
TEXT
  8
11
  10
-32.724342
  20
949.991760
  40
0.250000
  50
0.000000
  1
# 321
  7
STANDARD
  0
TEXT
  8
11
  10
-30.224342
  20
947.491760
  40
0.250000
  50
0.000000
  1
# 322
  7
STANDARD
  0
POINT
  8
2
  10
-32.724342
  20
944.991760
  0
POINT
  8
2
  10
-35.224342
  20
947.491760
  0
POINT
  8
2
  10
-32.724342
  20
949.991760
  0
POINT
  8
2
  10
-30.224342
  20
947.491760
  0
POINT
  8
3
  10
-33.974342
  20
945.326721
  0
POINT
  8
3
  10
-34.889404
  20
946.241760
  0
POINT
  8
3
  10
-34.889404
  20
948.741760
  0
POINT
  8
3
  10
-33.974342
  20
949.656799
  0
POINT
  8
3
  10
-31.474342
  20
949.656799
  0
POINT
  8
3
  10
-30.559280
  20
948.741760
  0
POINT
  8
3
  10
-30.559280
  20
946.241760
  0
POINT
  8
3
  10
-31.474342
  20
945.326721
  0
POLYLINE
  8
86
  66
1
  70
1
  250
1
  0
VERTEX
  8
86
  10
-32.724342
  20
944.991760
  0
VERTEX
  8
86
  10
-33.974342
  20
945.326721
  0
VERTEX
  8
86
  10
-34.889404
  20
946.241760
  0
VERTEX
  8
86
  10
-35.224342
  20
947.491760
  0
VERTEX
  8
86
  10
-35.224342
  20
947.491760
  0
VERTEX
  8
86
  10
-34.889404
  20
948.741760
  0
VERTEX
  8
86
  10
-33.974342
  20
949.656799
  0
VERTEX
  8
86
  10
-32.724342
  20
949.991760
  0
VERTEX
  8
86
  10
-32.724342
  20
949.991760
  0
VERTEX
  8
86
  10
-31.474342
  20
949.656799
  0
VERTEX
  8
86
  10
-30.559280
  20
948.741760
  0
VERTEX
  8
86
  10
-30.224342
  20
947.491760
  0
VERTEX
  8
86
  10
-30.224342
  20
947.491760
  0
VERTEX
  8
86
  10
-30.559280
  20
946.241760
  0
VERTEX
  8
86
  10
-31.474342
  20
945.326721
  0
VERTEX
  8
86
  10
-32.724342
  20
944.991760
  0
SEQEND
  0
POINT
  8
2
  10
-32.724342
  20
944.991760
  0
POINT
  8
2
  10
-35.224342
  20
947.491760
  0
POINT
  8
2
  10
-32.724342
  20
949.991760
  0
POINT
  8
2
  10
-30.224342
  20
947.491760
  0
POINT
  8
3
  10
-33.974342
  20
945.326721
  0
POINT
  8
3
  10
-34.889404
  20
946.241760
  0
POINT
  8
3
  10
-34.889404
  20
948.741760
  0
POINT
  8
3
  10
-33.974342
  20
949.656799
  0
POINT
  8
3
  10
-31.474342
  20
949.656799
  0
POINT
  8
3
  10
-30.559280
  20
948.741760
  0
POINT
  8
3
  10
-30.559280
  20
946.241760
  0
POINT
  8
3
  10
-31.474342
  20
945.326721
  0
POLYLINE
  8
14
  66
1
  70
1
  250
0
  0
VERTEX
  8
14
  10
-94.520035
  20
1496.763916
  0
VERTEX
  8
14
  10
-130.606415
  20
1491.612061
  0
VERTEX
  8
14
  10
-161.064362
  20
1470.803711
  0
VERTEX
  8
14
  10
-209.512009
  20
1387.055176
  0
VERTEX
  8
14
  10
-230.769806
  20
1377.078369
  0
VERTEX
  8
14
  10
-270.052704
  20
1375.262207
  0
VERTEX
  8
14
  10
-270.052704
  20
942.239990
  0
VERTEX
  8
14
  10
-27.298859
  20
942.239990
  0
VERTEX
  8
14
  10
-27.298843
  20
1496.763916
  0
SEQEND
  0
TEXT
  8
14
  10
-94.520035
  20
1496.763916
  40
0.250000
  50
0.000000
  1
# 335
  7
STANDARD
  0
TEXT
  8
14
  10
-270.052704
  20
1375.262207
  40
0.250000
  50
0.000000
  1
# 336
  7
STANDARD
  0
TEXT
  8
14
  10
-270.052704
  20
942.239990
  40
0.250000
  50
0.000000
  1
# 337
  7
STANDARD
  0
TEXT
  8
14
  10
-27.298859
  20
942.239990
  40
0.250000
  50
0.000000
  1
# 338
  7
STANDARD
  0
TEXT
  8
14
  10
-27.298843
  20
1496.763916
  40
0.250000
  50
0.000000
  1
# 339
  7
STANDARD
  0
POINT
  8
2
  10
-94.520035
  20
1496.763916
  0
POINT
  8
2
  10
-270.052704
  20
1375.262207
  0
POINT
  8
2
  10
-270.052704
  20
942.239990
  0
POINT
  8
2
  10
-27.298859
  20
942.239990
  0
POINT
  8
2
  10
-27.298843
  20
1496.763916
  0
POINT
  8
3
  10
-130.606415
  20
1491.612061
  0
POINT
  8
3
  10
-161.064362
  20
1470.803711
  0
POINT
  8
3
  10
-209.512009
  20
1387.055176
  0
POINT
  8
3
  10
-230.769806
  20
1377.078369
  0
POLYLINE
  8
87
  66
1
  70
1
  250
1
  0
VERTEX
  8
87
  10
-94.520035
  20
1496.763916
  0
VERTEX
  8
87
  10
-130.606415
  20
1491.612061
  0
VERTEX
  8
87
  10
-161.064362
  20
1470.803711
  0
VERTEX
  8
87
  10
-209.512009
  20
1387.055176
  0
VERTEX
  8
87
  10
-230.769806
  20
1377.078369
  0
VERTEX
  8
87
  10
-270.052704
  20
1375.262207
  0
VERTEX
  8
87
  10
-270.052704
  20
1375.262207
  0
VERTEX
  8
87
  10
-270.052704
  20
942.239990
  0
VERTEX
  8
87
  10
-270.052704
  20
942.239990
  0
VERTEX
  8
87
  10
-27.298859
  20
942.239990
  0
VERTEX
  8
87
  10
-27.298859
  20
942.239990
  0
VERTEX
  8
87
  10
-27.298843
  20
1496.763916
  0
VERTEX
  8
87
  10
-27.298843
  20
1496.763916
  0
VERTEX
  8
87
  10
-94.520035
  20
1496.763916
  0
SEQEND
  0
POINT
  8
2
  10
-94.520035
  20
1496.763916
  0
POINT
  8
2
  10
-270.052704
  20
1375.262207
  0
POINT
  8
2
  10
-270.052704
  20
942.239990
  0
POINT
  8
2
  10
-27.298859
  20
942.239990
  0
POINT
  8
2
  10
-27.298843
  20
1496.763916
  0
POINT
  8
3
  10
-130.606415
  20
1491.612061
  0
POINT
  8
3
  10
-161.064362
  20
1470.803711
  0
POINT
  8
3
  10
-209.512009
  20
1387.055176
  0
POINT
  8
3
  10
-230.769806
  20
1377.078369
  0
TEXT
  8
1
  10
-148.675781
  20
1219.501953
  50
0.000000
  51
0.000000
  71
0.000000
  1
PIECE NAME: Pattern_4025560
  7
STANDARD
  0
TEXT
  8
1
  10
-148.675781
  20
1214.501953
  50
0.000000
  51
0.000000
  71
0.000000
  1
SIZE: M
  7
STANDARD
  0
TEXT
  8
1
  10
-148.675781
  20
1204.501953
  50
0.000000
  51
0.000000
  71
0.000000
  1
QUANTITY: 1
  7
STANDARD
  0
ENDBLK
  0
BLOCK
  8
0
  2
Pattern_4025566_M
  70
64
  10
0
  20
0
  0
POLYLINE
  8
1
  66
1
  70
1
  250
2
  0
VERTEX
  8
1
  10
100.266159
  20
1486.205322
  0
VERTEX
  8
1
  10
136.352539
  20
1481.053467
  0
VERTEX
  8
1
  10
166.810486
  20
1460.245117
  0
VERTEX
  8
1
  10
215.258133
  20
1376.496582
  0
VERTEX
  8
1
  10
236.515930
  20
1366.519775
  0
VERTEX
  8
1
  10
275.798828
  20
1364.703613
  0
VERTEX
  8
1
  10
275.798828
  20
931.681396
  0
VERTEX
  8
1
  10
33.044983
  20
931.681396
  0
VERTEX
  8
1
  10
33.044968
  20
1486.205322
  0
SEQEND
  0
TEXT
  8
1
  10
100.266159
  20
1486.205322
  40
0.250000
  50
0.000000
  1
# 306
  7
STANDARD
  0
TEXT
  8
1
  10
275.798828
  20
1364.703613
  40
0.250000
  50
0.000000
  1
# 307
  7
STANDARD
  0
TEXT
  8
1
  10
275.798828
  20
931.681396
  40
0.250000
  50
0.000000
  1
# 308
  7
STANDARD
  0
TEXT
  8
1
  10
33.044983
  20
931.681396
  40
0.250000
  50
0.000000
  1
# 309
  7
STANDARD
  0
TEXT
  8
1
  10
33.044968
  20
1486.205322
  40
0.250000
  50
0.000000
  1
# 310
  7
STANDARD
  0
POINT
  8
2
  10
100.266159
  20
1486.205322
  0
POINT
  8
2
  10
275.798828
  20
1364.703613
  0
POINT
  8
2
  10
275.798828
  20
931.681396
  0
POINT
  8
2
  10
33.044983
  20
931.681396
  0
POINT
  8
2
  10
33.044968
  20
1486.205322
  0
POINT
  8
3
  10
136.352539
  20
1481.053467
  0
POINT
  8
3
  10
166.810486
  20
1460.245117
  0
POINT
  8
3
  10
215.258133
  20
1376.496582
  0
POINT
  8
3
  10
236.515930
  20
1366.519775
  0
POLYLINE
  8
84
  66
1
  70
1
  250
2
  0
VERTEX
  8
84
  10
100.266159
  20
1486.205322
  0
VERTEX
  8
84
  10
136.352539
  20
1481.053467
  0
VERTEX
  8
84
  10
166.810486
  20
1460.245117
  0
VERTEX
  8
84
  10
215.258133
  20
1376.496582
  0
VERTEX
  8
84
  10
236.515930
  20
1366.519775
  0
VERTEX
  8
84
  10
275.798828
  20
1364.703613
  0
VERTEX
  8
84
  10
275.798828
  20
1364.703613
  0
VERTEX
  8
84
  10
275.798828
  20
931.681396
  0
VERTEX
  8
84
  10
275.798828
  20
931.681396
  0
VERTEX
  8
84
  10
33.044983
  20
931.681396
  0
VERTEX
  8
84
  10
33.044983
  20
931.681396
  0
VERTEX
  8
84
  10
33.044968
  20
1486.205322
  0
VERTEX
  8
84
  10
33.044968
  20
1486.205322
  0
VERTEX
  8
84
  10
100.266159
  20
1486.205322
  0
SEQEND
  0
POINT
  8
2
  10
100.266159
  20
1486.205322
  0
POINT
  8
2
  10
275.798828
  20
1364.703613
  0
POINT
  8
2
  10
275.798828
  20
931.681396
  0
POINT
  8
2
  10
33.044983
  20
931.681396
  0
POINT
  8
2
  10
33.044968
  20
1486.205322
  0
POINT
  8
3
  10
136.352539
  20
1481.053467
  0
POINT
  8
3
  10
166.810486
  20
1460.245117
  0
POINT
  8
3
  10
215.258133
  20
1376.496582
  0
POINT
  8
3
  10
236.515930
  20
1366.519775
  0
LINE
  8
7
  10
154.421906
  20
1118.943359
  11
154.421906
  21
1298.943359
  0
POLYLINE
  8
8
  66
1
  70
1
  250
1
  0
VERTEX
  8
8
  10
192.927216
  20
1125.715576
  0
VERTEX
  8
8
  10
137.450256
  20
1355.212280
  0
VERTEX
  8
8
  10
144.820633
  20
1367.281982
  0
VERTEX
  8
8
  10
156.890350
  20
1359.911621
  0
VERTEX
  8
8
  10
212.367294
  20
1130.414917
  0
VERTEX
  8
8
  10
204.996887
  20
1118.345215
  0
SEQEND
  0
TEXT
  8
8
  10
192.927216
  20
1125.715576
  40
0.250000
  50
0.000000
  1
# 299
  7
STANDARD
  0
TEXT
  8
8
  10
137.450256
  20
1355.212280
  40
0.250000
  50
0.000000
  1
# 300
  7
STANDARD
  0
TEXT
  8
8
  10
156.890350
  20
1359.911621
  40
0.250000
  50
0.000000
  1
# 301
  7
STANDARD
  0
TEXT
  8
8
  10
212.367294
  20
1130.414917
  40
0.250000
  50
0.000000
  1
# 298
  7
STANDARD
  0
POINT
  8
2
  10
192.927216
  20
1125.715576
  0
POINT
  8
2
  10
137.450256
  20
1355.212280
  0
POINT
  8
2
  10
156.890350
  20
1359.911621
  0
POINT
  8
2
  10
212.367294
  20
1130.414917
  0
POINT
  8
3
  10
144.820633
  20
1367.281982
  0
POINT
  8
3
  10
204.996887
  20
1118.345215
  0
POLYLINE
  8
85
  66
1
  70
1
  250
1
  0
VERTEX
  8
85
  10
192.927216
  20
1125.715576
  0
VERTEX
  8
85
  10
137.450256
  20
1355.212280
  0
VERTEX
  8
85
  10
137.450256
  20
1355.212280
  0
VERTEX
  8
85
  10
144.820633
  20
1367.281982
  0
VERTEX
  8
85
  10
156.890350
  20
1359.911621
  0
VERTEX
  8
85
  10
156.890350
  20
1359.911621
  0
VERTEX
  8
85
  10
212.367294
  20
1130.414917
  0
VERTEX
  8
85
  10
212.367294
  20
1130.414917
  0
VERTEX
  8
85
  10
204.996887
  20
1118.345215
  0
VERTEX
  8
85
  10
192.927216
  20
1125.715576
  0
SEQEND
  0
POINT
  8
2
  10
192.927216
  20
1125.715576
  0
POINT
  8
2
  10
137.450256
  20
1355.212280
  0
POINT
  8
2
  10
156.890350
  20
1359.911621
  0
POINT
  8
2
  10
212.367294
  20
1130.414917
  0
POINT
  8
3
  10
144.820633
  20
1367.281982
  0
POINT
  8
3
  10
204.996887
  20
1118.345215
  0
POLYLINE
  8
8
  66
1
  70
0
  250
1
  0
VERTEX
  8
8
  10
275.798828
  20
941.681396
  0
VERTEX
  8
8
  10
33.044983
  20
941.681396
  0
SEQEND
  0
TEXT
  8
8
  10
275.798828
  20
941.681396
  40
0.250000
  50
0.000000
  1
# 294
  7
STANDARD
  0
TEXT
  8
8
  10
33.044983
  20
941.681396
  40
0.250000
  50
0.000000
  1
# 295
  7
STANDARD
  0
POINT
  8
2
  10
275.798828
  20
941.681396
  0
POINT
  8
2
  10
33.044983
  20
941.681396
  0
POLYLINE
  8
85
  66
1
  70
0
  250
1
  0
VERTEX
  8
85
  10
275.798828
  20
941.681396
  0
VERTEX
  8
85
  10
33.044983
  20
941.681396
  0
VERTEX
  8
85
  10
33.044983
  20
941.681396
  0
SEQEND
  0
TEXT
  8
85
  10
33.044983
  20
941.681396
  40
0.250000
  50
0.000000
  1
# 295
  7
STANDARD
  0
POINT
  8
2
  10
275.798828
  20
941.681396
  0
POINT
  8
2
  10
33.044983
  20
941.681396
  0
POLYLINE
  8
11
  66
1
  70
1
  250
1
  0
VERTEX
  8
11
  10
38.470467
  20
934.433167
  0
VERTEX
  8
11
  10
39.720467
  20
934.768127
  0
VERTEX
  8
11
  10
40.635529
  20
935.683167
  0
VERTEX
  8
11
  10
40.970467
  20
936.933167
  0
VERTEX
  8
11
  10
40.635529
  20
938.183167
  0
VERTEX
  8
11
  10
39.720467
  20
939.098206
  0
VERTEX
  8
11
  10
38.470467
  20
939.433167
  0
VERTEX
  8
11
  10
37.220467
  20
939.098206
  0
VERTEX
  8
11
  10
36.305405
  20
938.183167
  0
VERTEX
  8
11
  10
35.970467
  20
936.933167
  0
VERTEX
  8
11
  10
36.305405
  20
935.683167
  0
VERTEX
  8
11
  10
37.220467
  20
934.768127
  0
SEQEND
  0
TEXT
  8
11
  10
38.470467
  20
934.433167
  40
0.250000
  50
0.000000
  1
# 290
  7
STANDARD
  0
TEXT
  8
11
  10
40.970467
  20
936.933167
  40
0.250000
  50
0.000000
  1
# 291
  7
STANDARD
  0
TEXT
  8
11
  10
38.470467
  20
939.433167
  40
0.250000
  50
0.000000
  1
# 292
  7
STANDARD
  0
TEXT
  8
11
  10
35.970467
  20
936.933167
  40
0.250000
  50
0.000000
  1
# 293
  7
STANDARD
  0
POINT
  8
2
  10
38.470467
  20
934.433167
  0
POINT
  8
2
  10
40.970467
  20
936.933167
  0
POINT
  8
2
  10
38.470467
  20
939.433167
  0
POINT
  8
2
  10
35.970467
  20
936.933167
  0
POINT
  8
3
  10
39.720467
  20
934.768127
  0
POINT
  8
3
  10
40.635529
  20
935.683167
  0
POINT
  8
3
  10
40.635529
  20
938.183167
  0
POINT
  8
3
  10
39.720467
  20
939.098206
  0
POINT
  8
3
  10
37.220467
  20
939.098206
  0
POINT
  8
3
  10
36.305405
  20
938.183167
  0
POINT
  8
3
  10
36.305405
  20
935.683167
  0
POINT
  8
3
  10
37.220467
  20
934.768127
  0
POLYLINE
  8
86
  66
1
  70
1
  250
1
  0
VERTEX
  8
86
  10
38.470467
  20
934.433167
  0
VERTEX
  8
86
  10
39.720467
  20
934.768127
  0
VERTEX
  8
86
  10
40.635529
  20
935.683167
  0
VERTEX
  8
86
  10
40.970467
  20
936.933167
  0
VERTEX
  8
86
  10
40.970467
  20
936.933167
  0
VERTEX
  8
86
  10
40.635529
  20
938.183167
  0
VERTEX
  8
86
  10
39.720467
  20
939.098206
  0
VERTEX
  8
86
  10
38.470467
  20
939.433167
  0
VERTEX
  8
86
  10
38.470467
  20
939.433167
  0
VERTEX
  8
86
  10
37.220467
  20
939.098206
  0
VERTEX
  8
86
  10
36.305405
  20
938.183167
  0
VERTEX
  8
86
  10
35.970467
  20
936.933167
  0
VERTEX
  8
86
  10
35.970467
  20
936.933167
  0
VERTEX
  8
86
  10
36.305405
  20
935.683167
  0
VERTEX
  8
86
  10
37.220467
  20
934.768127
  0
VERTEX
  8
86
  10
38.470467
  20
934.433167
  0
SEQEND
  0
POINT
  8
2
  10
38.470467
  20
934.433167
  0
POINT
  8
2
  10
40.970467
  20
936.933167
  0
POINT
  8
2
  10
38.470467
  20
939.433167
  0
POINT
  8
2
  10
35.970467
  20
936.933167
  0
POINT
  8
3
  10
39.720467
  20
934.768127
  0
POINT
  8
3
  10
40.635529
  20
935.683167
  0
POINT
  8
3
  10
40.635529
  20
938.183167
  0
POINT
  8
3
  10
39.720467
  20
939.098206
  0
POINT
  8
3
  10
37.220467
  20
939.098206
  0
POINT
  8
3
  10
36.305405
  20
938.183167
  0
POINT
  8
3
  10
36.305405
  20
935.683167
  0
POINT
  8
3
  10
37.220467
  20
934.768127
  0
POLYLINE
  8
14
  66
1
  70
1
  250
0
  0
VERTEX
  8
14
  10
100.266159
  20
1486.205322
  0
VERTEX
  8
14
  10
136.352539
  20
1481.053467
  0
VERTEX
  8
14
  10
166.810486
  20
1460.245117
  0
VERTEX
  8
14
  10
215.258133
  20
1376.496582
  0
VERTEX
  8
14
  10
236.515930
  20
1366.519775
  0
VERTEX
  8
14
  10
275.798828
  20
1364.703613
  0
VERTEX
  8
14
  10
275.798828
  20
931.681396
  0
VERTEX
  8
14
  10
33.044983
  20
931.681396
  0
VERTEX
  8
14
  10
33.044968
  20
1486.205322
  0
SEQEND
  0
TEXT
  8
14
  10
100.266159
  20
1486.205322
  40
0.250000
  50
0.000000
  1
# 306
  7
STANDARD
  0
TEXT
  8
14
  10
275.798828
  20
1364.703613
  40
0.250000
  50
0.000000
  1
# 307
  7
STANDARD
  0
TEXT
  8
14
  10
275.798828
  20
931.681396
  40
0.250000
  50
0.000000
  1
# 308
  7
STANDARD
  0
TEXT
  8
14
  10
33.044983
  20
931.681396
  40
0.250000
  50
0.000000
  1
# 309
  7
STANDARD
  0
TEXT
  8
14
  10
33.044968
  20
1486.205322
  40
0.250000
  50
0.000000
  1
# 310
  7
STANDARD
  0
POINT
  8
2
  10
100.266159
  20
1486.205322
  0
POINT
  8
2
  10
275.798828
  20
1364.703613
  0
POINT
  8
2
  10
275.798828
  20
931.681396
  0
POINT
  8
2
  10
33.044983
  20
931.681396
  0
POINT
  8
2
  10
33.044968
  20
1486.205322
  0
POINT
  8
3
  10
136.352539
  20
1481.053467
  0
POINT
  8
3
  10
166.810486
  20
1460.245117
  0
POINT
  8
3
  10
215.258133
  20
1376.496582
  0
POINT
  8
3
  10
236.515930
  20
1366.519775
  0
POLYLINE
  8
87
  66
1
  70
1
  250
1
  0
VERTEX
  8
87
  10
100.266159
  20
1486.205322
  0
VERTEX
  8
87
  10
136.352539
  20
1481.053467
  0
VERTEX
  8
87
  10
166.810486
  20
1460.245117
  0
VERTEX
  8
87
  10
215.258133
  20
1376.496582
  0
VERTEX
  8
87
  10
236.515930
  20
1366.519775
  0
VERTEX
  8
87
  10
275.798828
  20
1364.703613
  0
VERTEX
  8
87
  10
275.798828
  20
1364.703613
  0
VERTEX
  8
87
  10
275.798828
  20
931.681396
  0
VERTEX
  8
87
  10
275.798828
  20
931.681396
  0
VERTEX
  8
87
  10
33.044983
  20
931.681396
  0
VERTEX
  8
87
  10
33.044983
  20
931.681396
  0
VERTEX
  8
87
  10
33.044968
  20
1486.205322
  0
VERTEX
  8
87
  10
33.044968
  20
1486.205322
  0
VERTEX
  8
87
  10
100.266159
  20
1486.205322
  0
SEQEND
  0
POINT
  8
2
  10
100.266159
  20
1486.205322
  0
POINT
  8
2
  10
275.798828
  20
1364.703613
  0
POINT
  8
2
  10
275.798828
  20
931.681396
  0
POINT
  8
2
  10
33.044983
  20
931.681396
  0
POINT
  8
2
  10
33.044968
  20
1486.205322
  0
POINT
  8
3
  10
136.352539
  20
1481.053467
  0
POINT
  8
3
  10
166.810486
  20
1460.245117
  0
POINT
  8
3
  10
215.258133
  20
1376.496582
  0
POINT
  8
3
  10
236.515930
  20
1366.519775
  0
TEXT
  8
1
  10
154.421906
  20
1208.943359
  50
0.000000
  51
0.000000
  71
0.000000
  1
PIECE NAME: Pattern_4025566
  7
STANDARD
  0
TEXT
  8
1
  10
154.421906
  20
1203.943359
  50
0.000000
  51
0.000000
  71
0.000000
  1
SIZE: M
  7
STANDARD
  0
TEXT
  8
1
  10
154.421906
  20
1193.943359
  50
0.000000
  51
0.000000
  71
0.000000
  1
QUANTITY: 1
  7
STANDARD
  0
ENDBLK
  0
BLOCK
  8
0
  2
Pattern_4621378_M
  70
64
  10
0
  20
0
  0
POLYLINE
  8
1
  66
1
  70
1
  250
2
  0
VERTEX
  8
1
  10
-1030.748291
  20
2563.084229
  0
VERTEX
  8
1
  10
-1032.559326
  20
2561.427002
  0
VERTEX
  8
1
  10
-1166.982178
  20
2431.684570
  0
VERTEX
  8
1
  10
-1222.623535
  20
2351.612061
  0
VERTEX
  8
1
  10
-1237.190308
  20
2307.742676
  0
VERTEX
  8
1
  10
-1178.894043
  20
2100.724609
  0
VERTEX
  8
1
  10
-1131.668457
  20
1802.529785
  0
VERTEX
  8
1
  10
-859.863770
  20
1802.529785
  0
VERTEX
  8
1
  10
-812.830017
  20
2099.443359
  0
VERTEX
  8
1
  10
-754.341797
  20
2307.742676
  0
VERTEX
  8
1
  10
-789.548096
  20
2398.205811
  0
VERTEX
  8
1
  10
-841.566223
  20
2468.907715
  0
VERTEX
  8
1
  10
-827.376404
  20
2520.450439
  0
VERTEX
  8
1
  10
-805.729980
  20
2584.091064
  0
VERTEX
  8
1
  10
-884.781433
  20
2610.979248
  0
VERTEX
  8
1
  10
-907.578979
  20
2576.418945
  0
VERTEX
  8
1
  10
-966.955750
  20
2540.800537
  0
VERTEX
  8
1
  10
-997.614502
  20
2540.508545
  0
VERTEX
  8
1
  10
-1009.479370
  20
2543.269043
  0
VERTEX
  8
1
  10
-1021.780823
  20
2551.303955
  0
SEQEND
  0
TEXT
  8
1
  10
-1030.748291
  20
2563.084229
  40
0.250000
  50
0.000000
  1
# 274
  7
STANDARD
  0
TEXT
  8
1
  10
-1237.190308
  20
2307.742676
  40
0.250000
  50
0.000000
  1
# 275
  7
STANDARD
  0
TEXT
  8
1
  10
-1131.668457
  20
1802.529785
  40
0.250000
  50
0.000000
  1
# 276
  7
STANDARD
  0
TEXT
  8
1
  10
-859.863770
  20
1802.529785
  40
0.250000
  50
0.000000
  1
# 277
  7
STANDARD
  0
TEXT
  8
1
  10
-754.341797
  20
2307.742676
  40
0.250000
  50
0.000000
  1
# 278
  7
STANDARD
  0
TEXT
  8
1
  10
-827.376404
  20
2520.450439
  40
0.250000
  50
0.000000
  1
# 279
  7
STANDARD
  0
TEXT
  8
1
  10
-805.729980
  20
2584.091064
  40
0.250000
  50
0.000000
  1
# 280
  7
STANDARD
  0
TEXT
  8
1
  10
-884.781433
  20
2610.979248
  40
0.250000
  50
0.000000
  1
# 281
  7
STANDARD
  0
POINT
  8
2
  10
-1030.748291
  20
2563.084229
  0
POINT
  8
2
  10
-1237.190308
  20
2307.742676
  0
POINT
  8
2
  10
-1131.668457
  20
1802.529785
  0
POINT
  8
2
  10
-859.863770
  20
1802.529785
  0
POINT
  8
2
  10
-754.341797
  20
2307.742676
  0
POINT
  8
2
  10
-827.376404
  20
2520.450439
  0
POINT
  8
2
  10
-805.729980
  20
2584.091064
  0
POINT
  8
2
  10
-884.781433
  20
2610.979248
  0
POINT
  8
3
  10
-1032.559326
  20
2561.427002
  0
POINT
  8
3
  10
-1166.982178
  20
2431.684570
  0
POINT
  8
3
  10
-1222.623535
  20
2351.612061
  0
POINT
  8
3
  10
-1178.894043
  20
2100.724609
  0
POINT
  8
3
  10
-812.830017
  20
2099.443359
  0
POINT
  8
3
  10
-789.548096
  20
2398.205811
  0
POINT
  8
3
  10
-841.566223
  20
2468.907715
  0
POINT
  8
3
  10
-907.578979
  20
2576.418945
  0
POINT
  8
3
  10
-966.955750
  20
2540.800537
  0
POINT
  8
3
  10
-997.614502
  20
2540.508545
  0
POINT
  8
3
  10
-1009.479370
  20
2543.269043
  0
POINT
  8
3
  10
-1021.780823
  20
2551.303955
  0
POLYLINE
  8
84
  66
1
  70
1
  250
2
  0
VERTEX
  8
84
  10
-1030.748291
  20
2563.084229
  0
VERTEX
  8
84
  10
-1032.559326
  20
2561.427002
  0
VERTEX
  8
84
  10
-1166.982178
  20
2431.684570
  0
VERTEX
  8
84
  10
-1222.623535
  20
2351.612061
  0
VERTEX
  8
84
  10
-1237.190308
  20
2307.742676
  0
VERTEX
  8
84
  10
-1237.190308
  20
2307.742676
  0
VERTEX
  8
84
  10
-1178.894043
  20
2100.724609
  0
VERTEX
  8
84
  10
-1131.668457
  20
1802.529785
  0
VERTEX
  8
84
  10
-1131.668457
  20
1802.529785
  0
VERTEX
  8
84
  10
-859.863770
  20
1802.529785
  0
VERTEX
  8
84
  10
-859.863770
  20
1802.529785
  0
VERTEX
  8
84
  10
-812.830017
  20
2099.443359
  0
VERTEX
  8
84
  10
-754.341797
  20
2307.742676
  0
VERTEX
  8
84
  10
-754.341797
  20
2307.742676
  0
VERTEX
  8
84
  10
-789.548096
  20
2398.205811
  0
VERTEX
  8
84
  10
-841.566223
  20
2468.907715
  0
VERTEX
  8
84
  10
-827.376404
  20
2520.450439
  0
VERTEX
  8
84
  10
-827.376404
  20
2520.450439
  0
VERTEX
  8
84
  10
-805.729980
  20
2584.091064
  0
VERTEX
  8
84
  10
-805.729980
  20
2584.091064
  0
VERTEX
  8
84
  10
-884.781433
  20
2610.979248
  0
VERTEX
  8
84
  10
-884.781433
  20
2610.979248
  0
VERTEX
  8
84
  10
-907.578979
  20
2576.418945
  0
VERTEX
  8
84
  10
-966.955750
  20
2540.800537
  0
VERTEX
  8
84
  10
-997.614502
  20
2540.508545
  0
VERTEX
  8
84
  10
-1009.479370
  20
2543.269043
  0
VERTEX
  8
84
  10
-1021.780823
  20
2551.303955
  0
VERTEX
  8
84
  10
-1030.748291
  20
2563.084229
  0
SEQEND
  0
POINT
  8
2
  10
-1030.748291
  20
2563.084229
  0
POINT
  8
2
  10
-1237.190308
  20
2307.742676
  0
POINT
  8
2
  10
-1131.668457
  20
1802.529785
  0
POINT
  8
2
  10
-859.863770
  20
1802.529785
  0
POINT
  8
2
  10
-754.341797
  20
2307.742676
  0
POINT
  8
2
  10
-827.376404
  20
2520.450439
  0
POINT
  8
2
  10
-805.729980
  20
2584.091064
  0
POINT
  8
2
  10
-884.781433
  20
2610.979248
  0
POINT
  8
3
  10
-1032.559326
  20
2561.427002
  0
POINT
  8
3
  10
-1166.982178
  20
2431.684570
  0
POINT
  8
3
  10
-1222.623535
  20
2351.612061
  0
POINT
  8
3
  10
-1178.894043
  20
2100.724609
  0
POINT
  8
3
  10
-812.830017
  20
2099.443359
  0
POINT
  8
3
  10
-789.548096
  20
2398.205811
  0
POINT
  8
3
  10
-841.566223
  20
2468.907715
  0
POINT
  8
3
  10
-907.578979
  20
2576.418945
  0
POINT
  8
3
  10
-966.955750
  20
2540.800537
  0
POINT
  8
3
  10
-997.614502
  20
2540.508545
  0
POINT
  8
3
  10
-1009.479370
  20
2543.269043
  0
POINT
  8
3
  10
-1021.780823
  20
2551.303955
  0
LINE
  8
7
  10
-995.766052
  20
2116.754395
  11
-995.766052
  21
2296.754395
  0
POLYLINE
  8
8
  66
1
  70
0
  250
1
  0
VERTEX
  8
8
  10
-1131.668457
  20
1812.529785
  0
VERTEX
  8
8
  10
-859.863770
  20
1812.529785
  0
SEQEND
  0
TEXT
  8
8
  10
-1131.668457
  20
1812.529785
  40
0.250000
  50
0.000000
  1
# 260
  7
STANDARD
  0
TEXT
  8
8
  10
-859.863770
  20
1812.529785
  40
0.250000
  50
0.000000
  1
# 261
  7
STANDARD
  0
POINT
  8
2
  10
-1131.668457
  20
1812.529785
  0
POINT
  8
2
  10
-859.863770
  20
1812.529785
  0
POLYLINE
  8
85
  66
1
  70
0
  250
1
  0
VERTEX
  8
85
  10
-1131.668457
  20
1812.529785
  0
VERTEX
  8
85
  10
-859.863770
  20
1812.529785
  0
VERTEX
  8
85
  10
-859.863770
  20
1812.529785
  0
SEQEND
  0
TEXT
  8
85
  10
-859.863770
  20
1812.529785
  40
0.250000
  50
0.000000
  1
# 261
  7
STANDARD
  0
POINT
  8
2
  10
-1131.668457
  20
1812.529785
  0
POINT
  8
2
  10
-859.863770
  20
1812.529785
  0
POLYLINE
  8
8
  66
1
  70
1
  250
1
  0
VERTEX
  8
8
  10
-847.615723
  20
2354.407959
  0
VERTEX
  8
8
  10
-1093.315796
  20
2356.602295
  0
VERTEX
  8
8
  10
-1089.477051
  20
2172.320801
  0
VERTEX
  8
8
  10
-899.336548
  20
2172.320801
  0
SEQEND
  0
TEXT
  8
8
  10
-847.615723
  20
2354.407959
  40
0.250000
  50
0.000000
  1
# 256
  7
STANDARD
  0
TEXT
  8
8
  10
-1093.315796
  20
2356.602295
  40
0.250000
  50
0.000000
  1
# 257
  7
STANDARD
  0
TEXT
  8
8
  10
-1089.477051
  20
2172.320801
  40
0.250000
  50
0.000000
  1
# 258
  7
STANDARD
  0
TEXT
  8
8
  10
-899.336548
  20
2172.320801
  40
0.250000
  50
0.000000
  1
# 259
  7
STANDARD
  0
POINT
  8
2
  10
-847.615723
  20
2354.407959
  0
POINT
  8
2
  10
-1093.315796
  20
2356.602295
  0
POINT
  8
2
  10
-1089.477051
  20
2172.320801
  0
POINT
  8
2
  10
-899.336548
  20
2172.320801
  0
POLYLINE
  8
85
  66
1
  70
1
  250
1
  0
VERTEX
  8
85
  10
-847.615723
  20
2354.407959
  0
VERTEX
  8
85
  10
-1093.315796
  20
2356.602295
  0
VERTEX
  8
85
  10
-1093.315796
  20
2356.602295
  0
VERTEX
  8
85
  10
-1089.477051
  20
2172.320801
  0
VERTEX
  8
85
  10
-1089.477051
  20
2172.320801
  0
VERTEX
  8
85
  10
-899.336548
  20
2172.320801
  0
VERTEX
  8
85
  10
-899.336548
  20
2172.320801
  0
VERTEX
  8
85
  10
-847.615723
  20
2354.407959
  0
SEQEND
  0
POINT
  8
2
  10
-847.615723
  20
2354.407959
  0
POINT
  8
2
  10
-1093.315796
  20
2356.602295
  0
POINT
  8
2
  10
-1089.477051
  20
2172.320801
  0
POINT
  8
2
  10
-899.336548
  20
2172.320801
  0
POLYLINE
  8
8
  66
1
  70
0
  250
1
  0
VERTEX
  8
8
  10
-904.534363
  20
2172.320801
  0
VERTEX
  8
8
  10
-852.800354
  20
2354.454346
  0
SEQEND
  0
TEXT
  8
8
  10
-904.534363
  20
2172.320801
  40
0.250000
  50
0.000000
  1
# 254
  7
STANDARD
  0
TEXT
  8
8
  10
-852.800354
  20
2354.454346
  40
0.250000
  50
0.000000
  1
# 255
  7
STANDARD
  0
POINT
  8
2
  10
-904.534363
  20
2172.320801
  0
POINT
  8
2
  10
-852.800354
  20
2354.454346
  0
POLYLINE
  8
85
  66
1
  70
0
  250
1
  0
VERTEX
  8
85
  10
-904.534363
  20
2172.320801
  0
VERTEX
  8
85
  10
-852.800354
  20
2354.454346
  0
VERTEX
  8
85
  10
-852.800354
  20
2354.454346
  0
SEQEND
  0
TEXT
  8
85
  10
-852.800354
  20
2354.454346
  40
0.250000
  50
0.000000
  1
# 255
  7
STANDARD
  0
POINT
  8
2
  10
-904.534363
  20
2172.320801
  0
POINT
  8
2
  10
-852.800354
  20
2354.454346
  0
POLYLINE
  8
14
  66
1
  70
1
  250
0
  0
VERTEX
  8
14
  10
-1030.748291
  20
2563.084229
  0
VERTEX
  8
14
  10
-1032.559326
  20
2561.427002
  0
VERTEX
  8
14
  10
-1166.982178
  20
2431.684570
  0
VERTEX
  8
14
  10
-1222.623535
  20
2351.612061
  0
VERTEX
  8
14
  10
-1237.190308
  20
2307.742676
  0
VERTEX
  8
14
  10
-1178.894043
  20
2100.724609
  0
VERTEX
  8
14
  10
-1131.668457
  20
1802.529785
  0
VERTEX
  8
14
  10
-859.863770
  20
1802.529785
  0
VERTEX
  8
14
  10
-812.830017
  20
2099.443359
  0
VERTEX
  8
14
  10
-754.341797
  20
2307.742676
  0
VERTEX
  8
14
  10
-789.548096
  20
2398.205811
  0
VERTEX
  8
14
  10
-841.566223
  20
2468.907715
  0
VERTEX
  8
14
  10
-827.376404
  20
2520.450439
  0
VERTEX
  8
14
  10
-805.729980
  20
2584.091064
  0
VERTEX
  8
14
  10
-884.781433
  20
2610.979248
  0
VERTEX
  8
14
  10
-907.578979
  20
2576.418945
  0
VERTEX
  8
14
  10
-966.955750
  20
2540.800537
  0
VERTEX
  8
14
  10
-997.614502
  20
2540.508545
  0
VERTEX
  8
14
  10
-1009.479370
  20
2543.269043
  0
VERTEX
  8
14
  10
-1021.780823
  20
2551.303955
  0
SEQEND
  0
TEXT
  8
14
  10
-1030.748291
  20
2563.084229
  40
0.250000
  50
0.000000
  1
# 274
  7
STANDARD
  0
TEXT
  8
14
  10
-1237.190308
  20
2307.742676
  40
0.250000
  50
0.000000
  1
# 275
  7
STANDARD
  0
TEXT
  8
14
  10
-1131.668457
  20
1802.529785
  40
0.250000
  50
0.000000
  1
# 276
  7
STANDARD
  0
TEXT
  8
14
  10
-859.863770
  20
1802.529785
  40
0.250000
  50
0.000000
  1
# 277
  7
STANDARD
  0
TEXT
  8
14
  10
-754.341797
  20
2307.742676
  40
0.250000
  50
0.000000
  1
# 278
  7
STANDARD
  0
TEXT
  8
14
  10
-827.376404
  20
2520.450439
  40
0.250000
  50
0.000000
  1
# 279
  7
STANDARD
  0
TEXT
  8
14
  10
-805.729980
  20
2584.091064
  40
0.250000
  50
0.000000
  1
# 280
  7
STANDARD
  0
TEXT
  8
14
  10
-884.781433
  20
2610.979248
  40
0.250000
  50
0.000000
  1
# 281
  7
STANDARD
  0
POINT
  8
2
  10
-1030.748291
  20
2563.084229
  0
POINT
  8
2
  10
-1237.190308
  20
2307.742676
  0
POINT
  8
2
  10
-1131.668457
  20
1802.529785
  0
POINT
  8
2
  10
-859.863770
  20
1802.529785
  0
POINT
  8
2
  10
-754.341797
  20
2307.742676
  0
POINT
  8
2
  10
-827.376404
  20
2520.450439
  0
POINT
  8
2
  10
-805.729980
  20
2584.091064
  0
POINT
  8
2
  10
-884.781433
  20
2610.979248
  0
POINT
  8
3
  10
-1032.559326
  20
2561.427002
  0
POINT
  8
3
  10
-1166.982178
  20
2431.684570
  0
POINT
  8
3
  10
-1222.623535
  20
2351.612061
  0
POINT
  8
3
  10
-1178.894043
  20
2100.724609
  0
POINT
  8
3
  10
-812.830017
  20
2099.443359
  0
POINT
  8
3
  10
-789.548096
  20
2398.205811
  0
POINT
  8
3
  10
-841.566223
  20
2468.907715
  0
POINT
  8
3
  10
-907.578979
  20
2576.418945
  0
POINT
  8
3
  10
-966.955750
  20
2540.800537
  0
POINT
  8
3
  10
-997.614502
  20
2540.508545
  0
POINT
  8
3
  10
-1009.479370
  20
2543.269043
  0
POINT
  8
3
  10
-1021.780823
  20
2551.303955
  0
POLYLINE
  8
87
  66
1
  70
1
  250
1
  0
VERTEX
  8
87
  10
-1030.748291
  20
2563.084229
  0
VERTEX
  8
87
  10
-1032.559326
  20
2561.427002
  0
VERTEX
  8
87
  10
-1166.982178
  20
2431.684570
  0
VERTEX
  8
87
  10
-1222.623535
  20
2351.612061
  0
VERTEX
  8
87
  10
-1237.190308
  20
2307.742676
  0
VERTEX
  8
87
  10
-1237.190308
  20
2307.742676
  0
VERTEX
  8
87
  10
-1178.894043
  20
2100.724609
  0
VERTEX
  8
87
  10
-1131.668457
  20
1802.529785
  0
VERTEX
  8
87
  10
-1131.668457
  20
1802.529785
  0
VERTEX
  8
87
  10
-859.863770
  20
1802.529785
  0
VERTEX
  8
87
  10
-859.863770
  20
1802.529785
  0
VERTEX
  8
87
  10
-812.830017
  20
2099.443359
  0
VERTEX
  8
87
  10
-754.341797
  20
2307.742676
  0
VERTEX
  8
87
  10
-754.341797
  20
2307.742676
  0
VERTEX
  8
87
  10
-789.548096
  20
2398.205811
  0
VERTEX
  8
87
  10
-841.566223
  20
2468.907715
  0
VERTEX
  8
87
  10
-827.376404
  20
2520.450439
  0
VERTEX
  8
87
  10
-827.376404
  20
2520.450439
  0
VERTEX
  8
87
  10
-805.729980
  20
2584.091064
  0
VERTEX
  8
87
  10
-805.729980
  20
2584.091064
  0
VERTEX
  8
87
  10
-884.781433
  20
2610.979248
  0
VERTEX
  8
87
  10
-884.781433
  20
2610.979248
  0
VERTEX
  8
87
  10
-907.578979
  20
2576.418945
  0
VERTEX
  8
87
  10
-966.955750
  20
2540.800537
  0
VERTEX
  8
87
  10
-997.614502
  20
2540.508545
  0
VERTEX
  8
87
  10
-1009.479370
  20
2543.269043
  0
VERTEX
  8
87
  10
-1021.780823
  20
2551.303955
  0
VERTEX
  8
87
  10
-1030.748291
  20
2563.084229
  0
SEQEND
  0
POINT
  8
2
  10
-1030.748291
  20
2563.084229
  0
POINT
  8
2
  10
-1237.190308
  20
2307.742676
  0
POINT
  8
2
  10
-1131.668457
  20
1802.529785
  0
POINT
  8
2
  10
-859.863770
  20
1802.529785
  0
POINT
  8
2
  10
-754.341797
  20
2307.742676
  0
POINT
  8
2
  10
-827.376404
  20
2520.450439
  0
POINT
  8
2
  10
-805.729980
  20
2584.091064
  0
POINT
  8
2
  10
-884.781433
  20
2610.979248
  0
POINT
  8
3
  10
-1032.559326
  20
2561.427002
  0
POINT
  8
3
  10
-1166.982178
  20
2431.684570
  0
POINT
  8
3
  10
-1222.623535
  20
2351.612061
  0
POINT
  8
3
  10
-1178.894043
  20
2100.724609
  0
POINT
  8
3
  10
-812.830017
  20
2099.443359
  0
POINT
  8
3
  10
-789.548096
  20
2398.205811
  0
POINT
  8
3
  10
-841.566223
  20
2468.907715
  0
POINT
  8
3
  10
-907.578979
  20
2576.418945
  0
POINT
  8
3
  10
-966.955750
  20
2540.800537
  0
POINT
  8
3
  10
-997.614502
  20
2540.508545
  0
POINT
  8
3
  10
-1009.479370
  20
2543.269043
  0
POINT
  8
3
  10
-1021.780823
  20
2551.303955
  0
POLYLINE
  8
8
  66
1
  70
0
  250
0
  0
VERTEX
  8
8
  10
-997.716431
  20
2431.684570
  0
VERTEX
  8
8
  10
-1020.738159
  20
2430.218506
  0
VERTEX
  8
8
  10
-1043.059082
  20
2424.418457
  0
VERTEX
  8
8
  10
-1063.837158
  20
2414.391846
  0
VERTEX
  8
8
  10
-1082.958008
  20
2401.456299
  0
VERTEX
  8
8
  10
-1117.949585
  20
2371.312500
  0
VERTEX
  8
8
  10
-1192.797607
  20
2318.069824
  0
VERTEX
  8
8
  10
-1237.190430
  20
2307.742676
  0
SEQEND
  0
TEXT
  8
8
  10
-997.716431
  20
2431.684570
  40
0.250000
  50
0.000000
  1
# 252
  7
STANDARD
  0
TEXT
  8
8
  10
-1237.190430
  20
2307.742676
  40
0.250000
  50
0.000000
  1
# 253
  7
STANDARD
  0
POINT
  8
2
  10
-997.716431
  20
2431.684570
  0
POINT
  8
2
  10
-1237.190430
  20
2307.742676
  0
POINT
  8
3
  10
-1020.738159
  20
2430.218506
  0
POINT
  8
3
  10
-1043.059082
  20
2424.418457
  0
POINT
  8
3
  10
-1063.837158
  20
2414.391846
  0
POINT
  8
3
  10
-1082.958008
  20
2401.456299
  0
POINT
  8
3
  10
-1117.949585
  20
2371.312500
  0
POINT
  8
3
  10
-1192.797607
  20
2318.069824
  0
POLYLINE
  8
85
  66
1
  70
0
  250
1
  0
VERTEX
  8
85
  10
-997.716431
  20
2431.684570
  0
VERTEX
  8
85
  10
-1020.738159
  20
2430.218506
  0
VERTEX
  8
85
  10
-1043.059082
  20
2424.418457
  0
VERTEX
  8
85
  10
-1063.837158
  20
2414.391846
  0
VERTEX
  8
85
  10
-1082.958008
  20
2401.456299
  0
VERTEX
  8
85
  10
-1117.949585
  20
2371.312500
  0
VERTEX
  8
85
  10
-1192.797607
  20
2318.069824
  0
VERTEX
  8
85
  10
-1237.190430
  20
2307.742676
  0
VERTEX
  8
85
  10
-1237.190430
  20
2307.742676
  0
SEQEND
  0
TEXT
  8
85
  10
-1237.190430
  20
2307.742676
  40
0.250000
  50
0.000000
  1
# 253
  7
STANDARD
  0
POINT
  8
2
  10
-997.716431
  20
2431.684570
  0
POINT
  8
2
  10
-1237.190430
  20
2307.742676
  0
POINT
  8
3
  10
-1020.738159
  20
2430.218506
  0
POINT
  8
3
  10
-1043.059082
  20
2424.418457
  0
POINT
  8
3
  10
-1063.837158
  20
2414.391846
  0
POINT
  8
3
  10
-1082.958008
  20
2401.456299
  0
POINT
  8
3
  10
-1117.949585
  20
2371.312500
  0
POINT
  8
3
  10
-1192.797607
  20
2318.069824
  0
POLYLINE
  8
8
  66
1
  70
0
  250
0
  0
VERTEX
  8
8
  10
-1237.190308
  20
2307.742920
  0
VERTEX
  8
8
  10
-1240.366699
  20
2343.515381
  0
VERTEX
  8
8
  10
-1161.328979
  20
2396.407471
  0
VERTEX
  8
8
  10
-997.716309
  20
2431.684570
  0
SEQEND
  0
TEXT
  8
8
  10
-1237.190308
  20
2307.742920
  40
0.250000
  50
0.000000
  1
# 244
  7
STANDARD
  0
TEXT
  8
8
  10
-997.716309
  20
2431.684570
  40
0.250000
  50
0.000000
  1
# 245
  7
STANDARD
  0
POINT
  8
2
  10
-1237.190308
  20
2307.742920
  0
POINT
  8
2
  10
-997.716309
  20
2431.684570
  0
POINT
  8
3
  10
-1240.366699
  20
2343.515381
  0
POINT
  8
3
  10
-1161.328979
  20
2396.407471
  0
POLYLINE
  8
85
  66
1
  70
0
  250
1
  0
VERTEX
  8
85
  10
-1237.190308
  20
2307.742920
  0
VERTEX
  8
85
  10
-1240.366699
  20
2343.515381
  0
VERTEX
  8
85
  10
-1161.328979
  20
2396.407471
  0
VERTEX
  8
85
  10
-997.716309
  20
2431.684570
  0
VERTEX
  8
85
  10
-997.716309
  20
2431.684570
  0
SEQEND
  0
TEXT
  8
85
  10
-997.716309
  20
2431.684570
  40
0.250000
  50
0.000000
  1
# 245
  7
STANDARD
  0
POINT
  8
2
  10
-1237.190308
  20
2307.742920
  0
POINT
  8
2
  10
-997.716309
  20
2431.684570
  0
POINT
  8
3
  10
-1240.366699
  20
2343.515381
  0
POINT
  8
3
  10
-1161.328979
  20
2396.407471
  0
POLYLINE
  8
8
  66
1
  70
0
  250
0
  0
VERTEX
  8
8
  10
-754.341858
  20
2307.742676
  0
VERTEX
  8
8
  10
-789.816956
  20
2312.608398
  0
VERTEX
  8
8
  10
-890.677307
  20
2380.128662
  0
VERTEX
  8
8
  10
-922.439453
  20
2405.226562
  0
VERTEX
  8
8
  10
-939.665649
  20
2415.852783
  0
VERTEX
  8
8
  10
-958.083374
  20
2424.232422
  0
VERTEX
  8
8
  10
-977.597595
  20
2429.562988
  0
VERTEX
  8
8
  10
-997.716309
  20
2431.684570
  0
SEQEND
  0
TEXT
  8
8
  10
-754.341858
  20
2307.742676
  40
0.250000
  50
0.000000
  1
# 240
  7
STANDARD
  0
TEXT
  8
8
  10
-997.716309
  20
2431.684570
  40
0.250000
  50
0.000000
  1
# 241
  7
STANDARD
  0
POINT
  8
2
  10
-754.341858
  20
2307.742676
  0
POINT
  8
2
  10
-997.716309
  20
2431.684570
  0
POINT
  8
3
  10
-789.816956
  20
2312.608398
  0
POINT
  8
3
  10
-890.677307
  20
2380.128662
  0
POINT
  8
3
  10
-922.439453
  20
2405.226562
  0
POINT
  8
3
  10
-939.665649
  20
2415.852783
  0
POINT
  8
3
  10
-958.083374
  20
2424.232422
  0
POINT
  8
3
  10
-977.597595
  20
2429.562988
  0
POLYLINE
  8
85
  66
1
  70
0
  250
1
  0
VERTEX
  8
85
  10
-754.341858
  20
2307.742676
  0
VERTEX
  8
85
  10
-789.816956
  20
2312.608398
  0
VERTEX
  8
85
  10
-890.677307
  20
2380.128662
  0
VERTEX
  8
85
  10
-922.439453
  20
2405.226562
  0
VERTEX
  8
85
  10
-939.665649
  20
2415.852783
  0
VERTEX
  8
85
  10
-958.083374
  20
2424.232422
  0
VERTEX
  8
85
  10
-977.597595
  20
2429.562988
  0
VERTEX
  8
85
  10
-997.716309
  20
2431.684570
  0
VERTEX
  8
85
  10
-997.716309
  20
2431.684570
  0
SEQEND
  0
TEXT
  8
85
  10
-997.716309
  20
2431.684570
  40
0.250000
  50
0.000000
  1
# 241
  7
STANDARD
  0
POINT
  8
2
  10
-754.341858
  20
2307.742676
  0
POINT
  8
2
  10
-997.716309
  20
2431.684570
  0
POINT
  8
3
  10
-789.816956
  20
2312.608398
  0
POINT
  8
3
  10
-890.677307
  20
2380.128662
  0
POINT
  8
3
  10
-922.439453
  20
2405.226562
  0
POINT
  8
3
  10
-939.665649
  20
2415.852783
  0
POINT
  8
3
  10
-958.083374
  20
2424.232422
  0
POINT
  8
3
  10
-977.597595
  20
2429.562988
  0
POLYLINE
  8
8
  66
1
  70
0
  250
0
  0
VERTEX
  8
8
  10
-997.716248
  20
2431.684570
  0
VERTEX
  8
8
  10
-805.781860
  20
2393.059814
  0
VERTEX
  8
8
  10
-752.219116
  20
2343.873047
  0
VERTEX
  8
8
  10
-754.341797
  20
2307.742676
  0
SEQEND
  0
TEXT
  8
8
  10
-997.716248
  20
2431.684570
  40
0.250000
  50
0.000000
  1
# 232
  7
STANDARD
  0
TEXT
  8
8
  10
-754.341797
  20
2307.742676
  40
0.250000
  50
0.000000
  1
# 233
  7
STANDARD
  0
POINT
  8
2
  10
-997.716248
  20
2431.684570
  0
POINT
  8
2
  10
-754.341797
  20
2307.742676
  0
POINT
  8
3
  10
-805.781860
  20
2393.059814
  0
POINT
  8
3
  10
-752.219116
  20
2343.873047
  0
POLYLINE
  8
85
  66
1
  70
0
  250
1
  0
VERTEX
  8
85
  10
-997.716248
  20
2431.684570
  0
VERTEX
  8
85
  10
-805.781860
  20
2393.059814
  0
VERTEX
  8
85
  10
-752.219116
  20
2343.873047
  0
VERTEX
  8
85
  10
-754.341797
  20
2307.742676
  0
VERTEX
  8
85
  10
-754.341797
  20
2307.742676
  0
SEQEND
  0
TEXT
  8
85
  10
-754.341797
  20
2307.742676
  40
0.250000
  50
0.000000
  1
# 233
  7
STANDARD
  0
POINT
  8
2
  10
-997.716248
  20
2431.684570
  0
POINT
  8
2
  10
-754.341797
  20
2307.742676
  0
POINT
  8
3
  10
-805.781860
  20
2393.059814
  0
POINT
  8
3
  10
-752.219116
  20
2343.873047
  0
TEXT
  8
1
  10
-996.129272
  20
2206.754395
  50
0.000000
  51
0.000000
  71
0.000000
  1
PIECE NAME: Pattern_4621378
  7
STANDARD
  0
TEXT
  8
1
  10
-996.129272
  20
2201.754395
  50
0.000000
  51
0.000000
  71
0.000000
  1
SIZE: M
  7
STANDARD
  0
TEXT
  8
1
  10
-996.129272
  20
2191.754395
  50
0.000000
  51
0.000000
  71
0.000000
  1
QUANTITY: 1
  7
STANDARD
  0
ENDBLK
  0
BLOCK
  8
0
  2
Pattern_4621379_M
  70
64
  10
0
  20
0
  0
POLYLINE
  8
1
  66
1
  70
1
  250
2
  0
VERTEX
  8
1
  10
839.011047
  20
2563.084229
  0
VERTEX
  8
1
  10
840.822144
  20
2561.427002
  0
VERTEX
  8
1
  10
975.244934
  20
2431.684570
  0
VERTEX
  8
1
  10
1030.886475
  20
2351.612061
  0
VERTEX
  8
1
  10
1045.453125
  20
2307.742676
  0
VERTEX
  8
1
  10
987.156860
  20
2100.724609
  0
VERTEX
  8
1
  10
939.931274
  20
1802.529785
  0
VERTEX
  8
1
  10
668.126587
  20
1802.529785
  0
VERTEX
  8
1
  10
621.092834
  20
2099.443359
  0
VERTEX
  8
1
  10
562.604614
  20
2307.742676
  0
VERTEX
  8
1
  10
597.810913
  20
2398.205811
  0
VERTEX
  8
1
  10
649.829041
  20
2468.907715
  0
VERTEX
  8
1
  10
635.639221
  20
2520.450439
  0
VERTEX
  8
1
  10
613.992798
  20
2584.091064
  0
VERTEX
  8
1
  10
693.044250
  20
2610.979248
  0
VERTEX
  8
1
  10
715.841797
  20
2576.418945
  0
VERTEX
  8
1
  10
775.218567
  20
2540.800537
  0
VERTEX
  8
1
  10
805.877319
  20
2540.508545
  0
VERTEX
  8
1
  10
817.742188
  20
2543.269043
  0
VERTEX
  8
1
  10
830.043640
  20
2551.303955
  0
SEQEND
  0
TEXT
  8
1
  10
839.011047
  20
2563.084229
  40
0.250000
  50
0.000000
  1
# 222
  7
STANDARD
  0
TEXT
  8
1
  10
1045.453125
  20
2307.742676
  40
0.250000
  50
0.000000
  1
# 223
  7
STANDARD
  0
TEXT
  8
1
  10
939.931274
  20
1802.529785
  40
0.250000
  50
0.000000
  1
# 224
  7
STANDARD
  0
TEXT
  8
1
  10
668.126587
  20
1802.529785
  40
0.250000
  50
0.000000
  1
# 225
  7
STANDARD
  0
TEXT
  8
1
  10
562.604614
  20
2307.742676
  40
0.250000
  50
0.000000
  1
# 226
  7
STANDARD
  0
TEXT
  8
1
  10
635.639221
  20
2520.450439
  40
0.250000
  50
0.000000
  1
# 227
  7
STANDARD
  0
TEXT
  8
1
  10
613.992798
  20
2584.091064
  40
0.250000
  50
0.000000
  1
# 228
  7
STANDARD
  0
TEXT
  8
1
  10
693.044250
  20
2610.979248
  40
0.250000
  50
0.000000
  1
# 229
  7
STANDARD
  0
POINT
  8
2
  10
839.011047
  20
2563.084229
  0
POINT
  8
2
  10
1045.453125
  20
2307.742676
  0
POINT
  8
2
  10
939.931274
  20
1802.529785
  0
POINT
  8
2
  10
668.126587
  20
1802.529785
  0
POINT
  8
2
  10
562.604614
  20
2307.742676
  0
POINT
  8
2
  10
635.639221
  20
2520.450439
  0
POINT
  8
2
  10
613.992798
  20
2584.091064
  0
POINT
  8
2
  10
693.044250
  20
2610.979248
  0
POINT
  8
3
  10
840.822144
  20
2561.427002
  0
POINT
  8
3
  10
975.244934
  20
2431.684570
  0
POINT
  8
3
  10
1030.886475
  20
2351.612061
  0
POINT
  8
3
  10
987.156860
  20
2100.724609
  0
POINT
  8
3
  10
621.092834
  20
2099.443359
  0
POINT
  8
3
  10
597.810913
  20
2398.205811
  0
POINT
  8
3
  10
649.829041
  20
2468.907715
  0
POINT
  8
3
  10
715.841797
  20
2576.418945
  0
POINT
  8
3
  10
775.218567
  20
2540.800537
  0
POINT
  8
3
  10
805.877319
  20
2540.508545
  0
POINT
  8
3
  10
817.742188
  20
2543.269043
  0
POINT
  8
3
  10
830.043640
  20
2551.303955
  0
POLYLINE
  8
84
  66
1
  70
1
  250
2
  0
VERTEX
  8
84
  10
839.011047
  20
2563.084229
  0
VERTEX
  8
84
  10
840.822144
  20
2561.427002
  0
VERTEX
  8
84
  10
975.244934
  20
2431.684570
  0
VERTEX
  8
84
  10
1030.886475
  20
2351.612061
  0
VERTEX
  8
84
  10
1045.453125
  20
2307.742676
  0
VERTEX
  8
84
  10
1045.453125
  20
2307.742676
  0
VERTEX
  8
84
  10
987.156860
  20
2100.724609
  0
VERTEX
  8
84
  10
939.931274
  20
1802.529785
  0
VERTEX
  8
84
  10
939.931274
  20
1802.529785
  0
VERTEX
  8
84
  10
668.126587
  20
1802.529785
  0
VERTEX
  8
84
  10
668.126587
  20
1802.529785
  0
VERTEX
  8
84
  10
621.092834
  20
2099.443359
  0
VERTEX
  8
84
  10
562.604614
  20
2307.742676
  0
VERTEX
  8
84
  10
562.604614
  20
2307.742676
  0
VERTEX
  8
84
  10
597.810913
  20
2398.205811
  0
VERTEX
  8
84
  10
649.829041
  20
2468.907715
  0
VERTEX
  8
84
  10
635.639221
  20
2520.450439
  0
VERTEX
  8
84
  10
635.639221
  20
2520.450439
  0
VERTEX
  8
84
  10
613.992798
  20
2584.091064
  0
VERTEX
  8
84
  10
613.992798
  20
2584.091064
  0
VERTEX
  8
84
  10
693.044250
  20
2610.979248
  0
VERTEX
  8
84
  10
693.044250
  20
2610.979248
  0
VERTEX
  8
84
  10
715.841797
  20
2576.418945
  0
VERTEX
  8
84
  10
775.218567
  20
2540.800537
  0
VERTEX
  8
84
  10
805.877319
  20
2540.508545
  0
VERTEX
  8
84
  10
817.742188
  20
2543.269043
  0
VERTEX
  8
84
  10
830.043640
  20
2551.303955
  0
VERTEX
  8
84
  10
839.011047
  20
2563.084229
  0
SEQEND
  0
POINT
  8
2
  10
839.011047
  20
2563.084229
  0
POINT
  8
2
  10
1045.453125
  20
2307.742676
  0
POINT
  8
2
  10
939.931274
  20
1802.529785
  0
POINT
  8
2
  10
668.126587
  20
1802.529785
  0
POINT
  8
2
  10
562.604614
  20
2307.742676
  0
POINT
  8
2
  10
635.639221
  20
2520.450439
  0
POINT
  8
2
  10
613.992798
  20
2584.091064
  0
POINT
  8
2
  10
693.044250
  20
2610.979248
  0
POINT
  8
3
  10
840.822144
  20
2561.427002
  0
POINT
  8
3
  10
975.244934
  20
2431.684570
  0
POINT
  8
3
  10
1030.886475
  20
2351.612061
  0
POINT
  8
3
  10
987.156860
  20
2100.724609
  0
POINT
  8
3
  10
621.092834
  20
2099.443359
  0
POINT
  8
3
  10
597.810913
  20
2398.205811
  0
POINT
  8
3
  10
649.829041
  20
2468.907715
  0
POINT
  8
3
  10
715.841797
  20
2576.418945
  0
POINT
  8
3
  10
775.218567
  20
2540.800537
  0
POINT
  8
3
  10
805.877319
  20
2540.508545
  0
POINT
  8
3
  10
817.742188
  20
2543.269043
  0
POINT
  8
3
  10
830.043640
  20
2551.303955
  0
LINE
  8
7
  10
804.028870
  20
2116.754395
  11
804.028870
  21
2296.754395
  0
POLYLINE
  8
8
  66
1
  70
0
  250
1
  0
VERTEX
  8
8
  10
939.931274
  20
1812.529785
  0
VERTEX
  8
8
  10
668.126587
  20
1812.529785
  0
SEQEND
  0
TEXT
  8
8
  10
939.931274
  20
1812.529785
  40
0.250000
  50
0.000000
  1
# 208
  7
STANDARD
  0
TEXT
  8
8
  10
668.126587
  20
1812.529785
  40
0.250000
  50
0.000000
  1
# 209
  7
STANDARD
  0
POINT
  8
2
  10
939.931274
  20
1812.529785
  0
POINT
  8
2
  10
668.126587
  20
1812.529785
  0
POLYLINE
  8
85
  66
1
  70
0
  250
1
  0
VERTEX
  8
85
  10
939.931274
  20
1812.529785
  0
VERTEX
  8
85
  10
668.126587
  20
1812.529785
  0
VERTEX
  8
85
  10
668.126587
  20
1812.529785
  0
SEQEND
  0
TEXT
  8
85
  10
668.126587
  20
1812.529785
  40
0.250000
  50
0.000000
  1
# 209
  7
STANDARD
  0
POINT
  8
2
  10
939.931274
  20
1812.529785
  0
POINT
  8
2
  10
668.126587
  20
1812.529785
  0
POLYLINE
  8
8
  66
1
  70
1
  250
1
  0
VERTEX
  8
8
  10
655.878540
  20
2354.407959
  0
VERTEX
  8
8
  10
901.578613
  20
2356.602295
  0
VERTEX
  8
8
  10
897.739868
  20
2172.320801
  0
VERTEX
  8
8
  10
707.599365
  20
2172.320801
  0
SEQEND
  0
TEXT
  8
8
  10
655.878540
  20
2354.407959
  40
0.250000
  50
0.000000
  1
# 204
  7
STANDARD
  0
TEXT
  8
8
  10
901.578613
  20
2356.602295
  40
0.250000
  50
0.000000
  1
# 205
  7
STANDARD
  0
TEXT
  8
8
  10
897.739868
  20
2172.320801
  40
0.250000
  50
0.000000
  1
# 206
  7
STANDARD
  0
TEXT
  8
8
  10
707.599365
  20
2172.320801
  40
0.250000
  50
0.000000
  1
# 207
  7
STANDARD
  0
POINT
  8
2
  10
655.878540
  20
2354.407959
  0
POINT
  8
2
  10
901.578613
  20
2356.602295
  0
POINT
  8
2
  10
897.739868
  20
2172.320801
  0
POINT
  8
2
  10
707.599365
  20
2172.320801
  0
POLYLINE
  8
85
  66
1
  70
1
  250
1
  0
VERTEX
  8
85
  10
655.878540
  20
2354.407959
  0
VERTEX
  8
85
  10
901.578613
  20
2356.602295
  0
VERTEX
  8
85
  10
901.578613
  20
2356.602295
  0
VERTEX
  8
85
  10
897.739868
  20
2172.320801
  0
VERTEX
  8
85
  10
897.739868
  20
2172.320801
  0
VERTEX
  8
85
  10
707.599365
  20
2172.320801
  0
VERTEX
  8
85
  10
707.599365
  20
2172.320801
  0
VERTEX
  8
85
  10
655.878540
  20
2354.407959
  0
SEQEND
  0
POINT
  8
2
  10
655.878540
  20
2354.407959
  0
POINT
  8
2
  10
901.578613
  20
2356.602295
  0
POINT
  8
2
  10
897.739868
  20
2172.320801
  0
POINT
  8
2
  10
707.599365
  20
2172.320801
  0
POLYLINE
  8
8
  66
1
  70
0
  250
1
  0
VERTEX
  8
8
  10
712.797180
  20
2172.320801
  0
VERTEX
  8
8
  10
661.063171
  20
2354.454346
  0
SEQEND
  0
TEXT
  8
8
  10
712.797180
  20
2172.320801
  40
0.250000
  50
0.000000
  1
# 202
  7
STANDARD
  0
TEXT
  8
8
  10
661.063171
  20
2354.454346
  40
0.250000
  50
0.000000
  1
# 203
  7
STANDARD
  0
POINT
  8
2
  10
712.797180
  20
2172.320801
  0
POINT
  8
2
  10
661.063171
  20
2354.454346
  0
POLYLINE
  8
85
  66
1
  70
0
  250
1
  0
VERTEX
  8
85
  10
712.797180
  20
2172.320801
  0
VERTEX
  8
85
  10
661.063171
  20
2354.454346
  0
VERTEX
  8
85
  10
661.063171
  20
2354.454346
  0
SEQEND
  0
TEXT
  8
85
  10
661.063171
  20
2354.454346
  40
0.250000
  50
0.000000
  1
# 203
  7
STANDARD
  0
POINT
  8
2
  10
712.797180
  20
2172.320801
  0
POINT
  8
2
  10
661.063171
  20
2354.454346
  0
POLYLINE
  8
14
  66
1
  70
1
  250
0
  0
VERTEX
  8
14
  10
839.011047
  20
2563.084229
  0
VERTEX
  8
14
  10
840.822144
  20
2561.427002
  0
VERTEX
  8
14
  10
975.244934
  20
2431.684570
  0
VERTEX
  8
14
  10
1030.886475
  20
2351.612061
  0
VERTEX
  8
14
  10
1045.453125
  20
2307.742676
  0
VERTEX
  8
14
  10
987.156860
  20
2100.724609
  0
VERTEX
  8
14
  10
939.931274
  20
1802.529785
  0
VERTEX
  8
14
  10
668.126587
  20
1802.529785
  0
VERTEX
  8
14
  10
621.092834
  20
2099.443359
  0
VERTEX
  8
14
  10
562.604614
  20
2307.742676
  0
VERTEX
  8
14
  10
597.810913
  20
2398.205811
  0
VERTEX
  8
14
  10
649.829041
  20
2468.907715
  0
VERTEX
  8
14
  10
635.639221
  20
2520.450439
  0
VERTEX
  8
14
  10
613.992798
  20
2584.091064
  0
VERTEX
  8
14
  10
693.044250
  20
2610.979248
  0
VERTEX
  8
14
  10
715.841797
  20
2576.418945
  0
VERTEX
  8
14
  10
775.218567
  20
2540.800537
  0
VERTEX
  8
14
  10
805.877319
  20
2540.508545
  0
VERTEX
  8
14
  10
817.742188
  20
2543.269043
  0
VERTEX
  8
14
  10
830.043640
  20
2551.303955
  0
SEQEND
  0
TEXT
  8
14
  10
839.011047
  20
2563.084229
  40
0.250000
  50
0.000000
  1
# 222
  7
STANDARD
  0
TEXT
  8
14
  10
1045.453125
  20
2307.742676
  40
0.250000
  50
0.000000
  1
# 223
  7
STANDARD
  0
TEXT
  8
14
  10
939.931274
  20
1802.529785
  40
0.250000
  50
0.000000
  1
# 224
  7
STANDARD
  0
TEXT
  8
14
  10
668.126587
  20
1802.529785
  40
0.250000
  50
0.000000
  1
# 225
  7
STANDARD
  0
TEXT
  8
14
  10
562.604614
  20
2307.742676
  40
0.250000
  50
0.000000
  1
# 226
  7
STANDARD
  0
TEXT
  8
14
  10
635.639221
  20
2520.450439
  40
0.250000
  50
0.000000
  1
# 227
  7
STANDARD
  0
TEXT
  8
14
  10
613.992798
  20
2584.091064
  40
0.250000
  50
0.000000
  1
# 228
  7
STANDARD
  0
TEXT
  8
14
  10
693.044250
  20
2610.979248
  40
0.250000
  50
0.000000
  1
# 229
  7
STANDARD
  0
POINT
  8
2
  10
839.011047
  20
2563.084229
  0
POINT
  8
2
  10
1045.453125
  20
2307.742676
  0
POINT
  8
2
  10
939.931274
  20
1802.529785
  0
POINT
  8
2
  10
668.126587
  20
1802.529785
  0
POINT
  8
2
  10
562.604614
  20
2307.742676
  0
POINT
  8
2
  10
635.639221
  20
2520.450439
  0
POINT
  8
2
  10
613.992798
  20
2584.091064
  0
POINT
  8
2
  10
693.044250
  20
2610.979248
  0
POINT
  8
3
  10
840.822144
  20
2561.427002
  0
POINT
  8
3
  10
975.244934
  20
2431.684570
  0
POINT
  8
3
  10
1030.886475
  20
2351.612061
  0
POINT
  8
3
  10
987.156860
  20
2100.724609
  0
POINT
  8
3
  10
621.092834
  20
2099.443359
  0
POINT
  8
3
  10
597.810913
  20
2398.205811
  0
POINT
  8
3
  10
649.829041
  20
2468.907715
  0
POINT
  8
3
  10
715.841797
  20
2576.418945
  0
POINT
  8
3
  10
775.218567
  20
2540.800537
  0
POINT
  8
3
  10
805.877319
  20
2540.508545
  0
POINT
  8
3
  10
817.742188
  20
2543.269043
  0
POINT
  8
3
  10
830.043640
  20
2551.303955
  0
POLYLINE
  8
87
  66
1
  70
1
  250
1
  0
VERTEX
  8
87
  10
839.011047
  20
2563.084229
  0
VERTEX
  8
87
  10
840.822144
  20
2561.427002
  0
VERTEX
  8
87
  10
975.244934
  20
2431.684570
  0
VERTEX
  8
87
  10
1030.886475
  20
2351.612061
  0
VERTEX
  8
87
  10
1045.453125
  20
2307.742676
  0
VERTEX
  8
87
  10
1045.453125
  20
2307.742676
  0
VERTEX
  8
87
  10
987.156860
  20
2100.724609
  0
VERTEX
  8
87
  10
939.931274
  20
1802.529785
  0
VERTEX
  8
87
  10
939.931274
  20
1802.529785
  0
VERTEX
  8
87
  10
668.126587
  20
1802.529785
  0
VERTEX
  8
87
  10
668.126587
  20
1802.529785
  0
VERTEX
  8
87
  10
621.092834
  20
2099.443359
  0
VERTEX
  8
87
  10
562.604614
  20
2307.742676
  0
VERTEX
  8
87
  10
562.604614
  20
2307.742676
  0
VERTEX
  8
87
  10
597.810913
  20
2398.205811
  0
VERTEX
  8
87
  10
649.829041
  20
2468.907715
  0
VERTEX
  8
87
  10
635.639221
  20
2520.450439
  0
VERTEX
  8
87
  10
635.639221
  20
2520.450439
  0
VERTEX
  8
87
  10
613.992798
  20
2584.091064
  0
VERTEX
  8
87
  10
613.992798
  20
2584.091064
  0
VERTEX
  8
87
  10
693.044250
  20
2610.979248
  0
VERTEX
  8
87
  10
693.044250
  20
2610.979248
  0
VERTEX
  8
87
  10
715.841797
  20
2576.418945
  0
VERTEX
  8
87
  10
775.218567
  20
2540.800537
  0
VERTEX
  8
87
  10
805.877319
  20
2540.508545
  0
VERTEX
  8
87
  10
817.742188
  20
2543.269043
  0
VERTEX
  8
87
  10
830.043640
  20
2551.303955
  0
VERTEX
  8
87
  10
839.011047
  20
2563.084229
  0
SEQEND
  0
POINT
  8
2
  10
839.011047
  20
2563.084229
  0
POINT
  8
2
  10
1045.453125
  20
2307.742676
  0
POINT
  8
2
  10
939.931274
  20
1802.529785
  0
POINT
  8
2
  10
668.126587
  20
1802.529785
  0
POINT
  8
2
  10
562.604614
  20
2307.742676
  0
POINT
  8
2
  10
635.639221
  20
2520.450439
  0
POINT
  8
2
  10
613.992798
  20
2584.091064
  0
POINT
  8
2
  10
693.044250
  20
2610.979248
  0
POINT
  8
3
  10
840.822144
  20
2561.427002
  0
POINT
  8
3
  10
975.244934
  20
2431.684570
  0
POINT
  8
3
  10
1030.886475
  20
2351.612061
  0
POINT
  8
3
  10
987.156860
  20
2100.724609
  0
POINT
  8
3
  10
621.092834
  20
2099.443359
  0
POINT
  8
3
  10
597.810913
  20
2398.205811
  0
POINT
  8
3
  10
649.829041
  20
2468.907715
  0
POINT
  8
3
  10
715.841797
  20
2576.418945
  0
POINT
  8
3
  10
775.218567
  20
2540.800537
  0
POINT
  8
3
  10
805.877319
  20
2540.508545
  0
POINT
  8
3
  10
817.742188
  20
2543.269043
  0
POINT
  8
3
  10
830.043640
  20
2551.303955
  0
POLYLINE
  8
8
  66
1
  70
0
  250
0
  0
VERTEX
  8
8
  10
805.979248
  20
2431.684570
  0
VERTEX
  8
8
  10
829.000977
  20
2430.218506
  0
VERTEX
  8
8
  10
851.321899
  20
2424.418457
  0
VERTEX
  8
8
  10
872.100037
  20
2414.391846
  0
VERTEX
  8
8
  10
891.220825
  20
2401.456299
  0
VERTEX
  8
8
  10
926.212463
  20
2371.312500
  0
VERTEX
  8
8
  10
1001.060486
  20
2318.069824
  0
VERTEX
  8
8
  10
1045.453247
  20
2307.742676
  0
SEQEND
  0
TEXT
  8
8
  10
805.979248
  20
2431.684570
  40
0.250000
  50
0.000000
  1
# 200
  7
STANDARD
  0
TEXT
  8
8
  10
1045.453247
  20
2307.742676
  40
0.250000
  50
0.000000
  1
# 201
  7
STANDARD
  0
POINT
  8
2
  10
805.979248
  20
2431.684570
  0
POINT
  8
2
  10
1045.453247
  20
2307.742676
  0
POINT
  8
3
  10
829.000977
  20
2430.218506
  0
POINT
  8
3
  10
851.321899
  20
2424.418457
  0
POINT
  8
3
  10
872.100037
  20
2414.391846
  0
POINT
  8
3
  10
891.220825
  20
2401.456299
  0
POINT
  8
3
  10
926.212463
  20
2371.312500
  0
POINT
  8
3
  10
1001.060486
  20
2318.069824
  0
POLYLINE
  8
85
  66
1
  70
0
  250
1
  0
VERTEX
  8
85
  10
805.979248
  20
2431.684570
  0
VERTEX
  8
85
  10
829.000977
  20
2430.218506
  0
VERTEX
  8
85
  10
851.321899
  20
2424.418457
  0
VERTEX
  8
85
  10
872.100037
  20
2414.391846
  0
VERTEX
  8
85
  10
891.220825
  20
2401.456299
  0
VERTEX
  8
85
  10
926.212463
  20
2371.312500
  0
VERTEX
  8
85
  10
1001.060486
  20
2318.069824
  0
VERTEX
  8
85
  10
1045.453247
  20
2307.742676
  0
VERTEX
  8
85
  10
1045.453247
  20
2307.742676
  0
SEQEND
  0
TEXT
  8
85
  10
1045.453247
  20
2307.742676
  40
0.250000
  50
0.000000
  1
# 201
  7
STANDARD
  0
POINT
  8
2
  10
805.979248
  20
2431.684570
  0
POINT
  8
2
  10
1045.453247
  20
2307.742676
  0
POINT
  8
3
  10
829.000977
  20
2430.218506
  0
POINT
  8
3
  10
851.321899
  20
2424.418457
  0
POINT
  8
3
  10
872.100037
  20
2414.391846
  0
POINT
  8
3
  10
891.220825
  20
2401.456299
  0
POINT
  8
3
  10
926.212463
  20
2371.312500
  0
POINT
  8
3
  10
1001.060486
  20
2318.069824
  0
POLYLINE
  8
8
  66
1
  70
0
  250
0
  0
VERTEX
  8
8
  10
1045.453125
  20
2307.742920
  0
VERTEX
  8
8
  10
1048.629517
  20
2343.515381
  0
VERTEX
  8
8
  10
969.591858
  20
2396.407471
  0
VERTEX
  8
8
  10
805.979126
  20
2431.684570
  0
SEQEND
  0
TEXT
  8
8
  10
1045.453125
  20
2307.742920
  40
0.250000
  50
0.000000
  1
# 192
  7
STANDARD
  0
TEXT
  8
8
  10
805.979126
  20
2431.684570
  40
0.250000
  50
0.000000
  1
# 193
  7
STANDARD
  0
POINT
  8
2
  10
1045.453125
  20
2307.742920
  0
POINT
  8
2
  10
805.979126
  20
2431.684570
  0
POINT
  8
3
  10
1048.629517
  20
2343.515381
  0
POINT
  8
3
  10
969.591858
  20
2396.407471
  0
POLYLINE
  8
85
  66
1
  70
0
  250
1
  0
VERTEX
  8
85
  10
1045.453125
  20
2307.742920
  0
VERTEX
  8
85
  10
1048.629517
  20
2343.515381
  0
VERTEX
  8
85
  10
969.591858
  20
2396.407471
  0
VERTEX
  8
85
  10
805.979126
  20
2431.684570
  0
VERTEX
  8
85
  10
805.979126
  20
2431.684570
  0
SEQEND
  0
TEXT
  8
85
  10
805.979126
  20
2431.684570
  40
0.250000
  50
0.000000
  1
# 193
  7
STANDARD
  0
POINT
  8
2
  10
1045.453125
  20
2307.742920
  0
POINT
  8
2
  10
805.979126
  20
2431.684570
  0
POINT
  8
3
  10
1048.629517
  20
2343.515381
  0
POINT
  8
3
  10
969.591858
  20
2396.407471
  0
POLYLINE
  8
8
  66
1
  70
0
  250
0
  0
VERTEX
  8
8
  10
562.604675
  20
2307.742676
  0
VERTEX
  8
8
  10
598.079773
  20
2312.608398
  0
VERTEX
  8
8
  10
698.940125
  20
2380.128662
  0
VERTEX
  8
8
  10
730.702271
  20
2405.226562
  0
VERTEX
  8
8
  10
747.928467
  20
2415.852783
  0
VERTEX
  8
8
  10
766.346191
  20
2424.232422
  0
VERTEX
  8
8
  10
785.860413
  20
2429.562988
  0
VERTEX
  8
8
  10
805.979126
  20
2431.684570
  0
SEQEND
  0
TEXT
  8
8
  10
562.604675
  20
2307.742676
  40
0.250000
  50
0.000000
  1
# 188
  7
STANDARD
  0
TEXT
  8
8
  10
805.979126
  20
2431.684570
  40
0.250000
  50
0.000000
  1
# 189
  7
STANDARD
  0
POINT
  8
2
  10
562.604675
  20
2307.742676
  0
POINT
  8
2
  10
805.979126
  20
2431.684570
  0
POINT
  8
3
  10
598.079773
  20
2312.608398
  0
POINT
  8
3
  10
698.940125
  20
2380.128662
  0
POINT
  8
3
  10
730.702271
  20
2405.226562
  0
POINT
  8
3
  10
747.928467
  20
2415.852783
  0
POINT
  8
3
  10
766.346191
  20
2424.232422
  0
POINT
  8
3
  10
785.860413
  20
2429.562988
  0
POLYLINE
  8
85
  66
1
  70
0
  250
1
  0
VERTEX
  8
85
  10
562.604675
  20
2307.742676
  0
VERTEX
  8
85
  10
598.079773
  20
2312.608398
  0
VERTEX
  8
85
  10
698.940125
  20
2380.128662
  0
VERTEX
  8
85
  10
730.702271
  20
2405.226562
  0
VERTEX
  8
85
  10
747.928467
  20
2415.852783
  0
VERTEX
  8
85
  10
766.346191
  20
2424.232422
  0
VERTEX
  8
85
  10
785.860413
  20
2429.562988
  0
VERTEX
  8
85
  10
805.979126
  20
2431.684570
  0
VERTEX
  8
85
  10
805.979126
  20
2431.684570
  0
SEQEND
  0
TEXT
  8
85
  10
805.979126
  20
2431.684570
  40
0.250000
  50
0.000000
  1
# 189
  7
STANDARD
  0
POINT
  8
2
  10
562.604675
  20
2307.742676
  0
POINT
  8
2
  10
805.979126
  20
2431.684570
  0
POINT
  8
3
  10
598.079773
  20
2312.608398
  0
POINT
  8
3
  10
698.940125
  20
2380.128662
  0
POINT
  8
3
  10
730.702271
  20
2405.226562
  0
POINT
  8
3
  10
747.928467
  20
2415.852783
  0
POINT
  8
3
  10
766.346191
  20
2424.232422
  0
POINT
  8
3
  10
785.860413
  20
2429.562988
  0
POLYLINE
  8
8
  66
1
  70
0
  250
0
  0
VERTEX
  8
8
  10
805.979004
  20
2431.684570
  0
VERTEX
  8
8
  10
614.044678
  20
2393.059814
  0
VERTEX
  8
8
  10
560.481934
  20
2343.873047
  0
VERTEX
  8
8
  10
562.604614
  20
2307.742676
  0
SEQEND
  0
TEXT
  8
8
  10
805.979004
  20
2431.684570
  40
0.250000
  50
0.000000
  1
# 180
  7
STANDARD
  0
TEXT
  8
8
  10
562.604614
  20
2307.742676
  40
0.250000
  50
0.000000
  1
# 181
  7
STANDARD
  0
POINT
  8
2
  10
805.979004
  20
2431.684570
  0
POINT
  8
2
  10
562.604614
  20
2307.742676
  0
POINT
  8
3
  10
614.044678
  20
2393.059814
  0
POINT
  8
3
  10
560.481934
  20
2343.873047
  0
POLYLINE
  8
85
  66
1
  70
0
  250
1
  0
VERTEX
  8
85
  10
805.979004
  20
2431.684570
  0
VERTEX
  8
85
  10
614.044678
  20
2393.059814
  0
VERTEX
  8
85
  10
560.481934
  20
2343.873047
  0
VERTEX
  8
85
  10
562.604614
  20
2307.742676
  0
VERTEX
  8
85
  10
562.604614
  20
2307.742676
  0
SEQEND
  0
TEXT
  8
85
  10
562.604614
  20
2307.742676
  40
0.250000
  50
0.000000
  1
# 181
  7
STANDARD
  0
POINT
  8
2
  10
805.979004
  20
2431.684570
  0
POINT
  8
2
  10
562.604614
  20
2307.742676
  0
POINT
  8
3
  10
614.044678
  20
2393.059814
  0
POINT
  8
3
  10
560.481934
  20
2343.873047
  0
TEXT
  8
1
  10
804.392090
  20
2206.754395
  50
0.000000
  51
0.000000
  71
0.000000
  1
PIECE NAME: Pattern_4621379
  7
STANDARD
  0
TEXT
  8
1
  10
804.392090
  20
2201.754395
  50
0.000000
  51
0.000000
  71
0.000000
  1
SIZE: M
  7
STANDARD
  0
TEXT
  8
1
  10
804.392090
  20
2191.754395
  50
0.000000
  51
0.000000
  71
0.000000
  1
QUANTITY: 1
  7
STANDARD
  0
ENDBLK
  0
BLOCK
  8
0
  2
Pattern_6774331_M
  70
64
  10
0
  20
0
  0
POLYLINE
  8
1
  66
1
  70
1
  250
2
  0
VERTEX
  8
1
  10
-196.006805
  20
1650.011963
  0
VERTEX
  8
1
  10
-170.529236
  20
1651.445435
  0
VERTEX
  8
1
  10
-145.147110
  20
1654.126953
  0
VERTEX
  8
1
  10
-123.054367
  20
1701.426636
  0
VERTEX
  8
1
  10
-101.686646
  20
1807.827759
  0
VERTEX
  8
1
  10
-120.472488
  20
1812.855591
  0
VERTEX
  8
1
  10
-177.078979
  20
1838.653198
  0
VERTEX
  8
1
  10
-190.728333
  20
1860.552002
  0
VERTEX
  8
1
  10
-191.828339
  20
1866.213379
  0
VERTEX
  8
1
  10
-180.022980
  20
1912.001343
  0
VERTEX
  8
1
  10
-157.805176
  20
2035.839966
  0
VERTEX
  8
1
  10
-264.207336
  20
2034.037964
  0
VERTEX
  8
1
  10
-332.899078
  20
2011.171265
  0
VERTEX
  8
1
  10
-415.123718
  20
1919.223389
  0
VERTEX
  8
1
  10
-409.039917
  20
1791.508667
  0
VERTEX
  8
1
  10
-391.582306
  20
1692.640381
  0
VERTEX
  8
1
  10
-324.849152
  20
1692.501587
  0
VERTEX
  8
1
  10
-249.683868
  20
1656.619019
  0
SEQEND
  0
TEXT
  8
1
  10
-196.006805
  20
1650.011963
  40
0.250000
  50
0.000000
  1
# 172
  7
STANDARD
  0
TEXT
  8
1
  10
-145.147110
  20
1654.126953
  40
0.250000
  50
0.000000
  1
# 173
  7
STANDARD
  0
TEXT
  8
1
  10
-101.686646
  20
1807.827759
  40
0.250000
  50
0.000000
  1
# 174
  7
STANDARD
  0
TEXT
  8
1
  10
-190.728333
  20
1860.552002
  40
0.250000
  50
0.000000
  1
# 175
  7
STANDARD
  0
TEXT
  8
1
  10
-157.805176
  20
2035.839966
  40
0.250000
  50
0.000000
  1
# 176
  7
STANDARD
  0
TEXT
  8
1
  10
-391.582306
  20
1692.640381
  40
0.250000
  50
0.000000
  1
# 177
  7
STANDARD
  0
POINT
  8
2
  10
-196.006805
  20
1650.011963
  0
POINT
  8
2
  10
-145.147110
  20
1654.126953
  0
POINT
  8
2
  10
-101.686646
  20
1807.827759
  0
POINT
  8
2
  10
-190.728333
  20
1860.552002
  0
POINT
  8
2
  10
-157.805176
  20
2035.839966
  0
POINT
  8
2
  10
-391.582306
  20
1692.640381
  0
POINT
  8
3
  10
-170.529236
  20
1651.445435
  0
POINT
  8
3
  10
-123.054367
  20
1701.426636
  0
POINT
  8
3
  10
-120.472488
  20
1812.855591
  0
POINT
  8
3
  10
-177.078979
  20
1838.653198
  0
POINT
  8
3
  10
-191.828339
  20
1866.213379
  0
POINT
  8
3
  10
-180.022980
  20
1912.001343
  0
POINT
  8
3
  10
-264.207336
  20
2034.037964
  0
POINT
  8
3
  10
-332.899078
  20
2011.171265
  0
POINT
  8
3
  10
-415.123718
  20
1919.223389
  0
POINT
  8
3
  10
-409.039917
  20
1791.508667
  0
POINT
  8
3
  10
-324.849152
  20
1692.501587
  0
POINT
  8
3
  10
-249.683868
  20
1656.619019
  0
POLYLINE
  8
84
  66
1
  70
1
  250
2
  0
VERTEX
  8
84
  10
-196.006805
  20
1650.011963
  0
VERTEX
  8
84
  10
-170.529236
  20
1651.445435
  0
VERTEX
  8
84
  10
-145.147110
  20
1654.126953
  0
VERTEX
  8
84
  10
-145.147110
  20
1654.126953
  0
VERTEX
  8
84
  10
-123.054367
  20
1701.426636
  0
VERTEX
  8
84
  10
-101.686646
  20
1807.827759
  0
VERTEX
  8
84
  10
-101.686646
  20
1807.827759
  0
VERTEX
  8
84
  10
-120.472488
  20
1812.855591
  0
VERTEX
  8
84
  10
-177.078979
  20
1838.653198
  0
VERTEX
  8
84
  10
-190.728333
  20
1860.552002
  0
VERTEX
  8
84
  10
-190.728333
  20
1860.552002
  0
VERTEX
  8
84
  10
-191.828339
  20
1866.213379
  0
VERTEX
  8
84
  10
-180.022980
  20
1912.001343
  0
VERTEX
  8
84
  10
-157.805176
  20
2035.839966
  0
VERTEX
  8
84
  10
-157.805176
  20
2035.839966
  0
VERTEX
  8
84
  10
-264.207336
  20
2034.037964
  0
VERTEX
  8
84
  10
-332.899078
  20
2011.171265
  0
VERTEX
  8
84
  10
-415.123718
  20
1919.223389
  0
VERTEX
  8
84
  10
-409.039917
  20
1791.508667
  0
VERTEX
  8
84
  10
-391.582306
  20
1692.640381
  0
VERTEX
  8
84
  10
-391.582306
  20
1692.640381
  0
VERTEX
  8
84
  10
-324.849152
  20
1692.501587
  0
VERTEX
  8
84
  10
-249.683868
  20
1656.619019
  0
VERTEX
  8
84
  10
-196.006805
  20
1650.011963
  0
SEQEND
  0
POINT
  8
2
  10
-196.006805
  20
1650.011963
  0
POINT
  8
2
  10
-145.147110
  20
1654.126953
  0
POINT
  8
2
  10
-101.686646
  20
1807.827759
  0
POINT
  8
2
  10
-190.728333
  20
1860.552002
  0
POINT
  8
2
  10
-157.805176
  20
2035.839966
  0
POINT
  8
2
  10
-391.582306
  20
1692.640381
  0
POINT
  8
3
  10
-170.529236
  20
1651.445435
  0
POINT
  8
3
  10
-123.054367
  20
1701.426636
  0
POINT
  8
3
  10
-120.472488
  20
1812.855591
  0
POINT
  8
3
  10
-177.078979
  20
1838.653198
  0
POINT
  8
3
  10
-191.828339
  20
1866.213379
  0
POINT
  8
3
  10
-180.022980
  20
1912.001343
  0
POINT
  8
3
  10
-264.207336
  20
2034.037964
  0
POINT
  8
3
  10
-332.899078
  20
2011.171265
  0
POINT
  8
3
  10
-415.123718
  20
1919.223389
  0
POINT
  8
3
  10
-409.039917
  20
1791.508667
  0
POINT
  8
3
  10
-324.849152
  20
1692.501587
  0
POINT
  8
3
  10
-249.683868
  20
1656.619019
  0
LINE
  8
7
  10
-261.311646
  20
1753.873291
  11
-261.311646
  21
1933.873291
  0
POLYLINE
  8
8
  66
1
  70
0
  250
1
  0
VERTEX
  8
8
  10
-102.896439
  20
1797.799683
  0
VERTEX
  8
8
  10
-104.272034
  20
1798.167725
  0
VERTEX
  8
8
  10
-123.043869
  20
1803.191772
  0
VERTEX
  8
8
  10
-131.499786
  20
1805.416870
  0
VERTEX
  8
8
  10
-139.923676
  20
1807.759644
  0
VERTEX
  8
8
  10
-148.266571
  20
1810.375488
  0
VERTEX
  8
8
  10
-156.463242
  20
1813.416626
  0
VERTEX
  8
8
  10
-164.418854
  20
1817.038574
  0
VERTEX
  8
8
  10
-171.996307
  20
1821.394409
  0
VERTEX
  8
8
  10
-179.005478
  20
1826.612183
  0
VERTEX
  8
8
  10
-185.216660
  20
1832.756104
  0
VERTEX
  8
8
  10
-190.485458
  20
1839.727295
  0
VERTEX
  8
8
  10
-195.000748
  20
1847.212646
  0
VERTEX
  8
8
  10
-200.273026
  20
1857.246094
  0
VERTEX
  8
8
  10
-201.792358
  20
1865.238037
  0
VERTEX
  8
8
  10
-202.170471
  20
1873.356567
  0
VERTEX
  8
8
  10
-201.298096
  20
1881.439209
  0
VERTEX
  8
8
  10
-199.429291
  20
1889.353638
  0
VERTEX
  8
8
  10
-196.860748
  20
1897.071899
  0
VERTEX
  8
8
  10
-193.879013
  20
1904.641113
  0
VERTEX
  8
8
  10
-190.754593
  20
1912.153198
  0
VERTEX
  8
8
  10
-187.761551
  20
1919.718262
  0
VERTEX
  8
8
  10
-179.097610
  20
1948.156128
  0
VERTEX
  8
8
  10
-173.532623
  20
1977.367310
  0
VERTEX
  8
8
  10
-170.117416
  20
2006.913452
  0
VERTEX
  8
8
  10
-167.778687
  20
2036.567383
  0
SEQEND
  0
TEXT
  8
8
  10
-102.896439
  20
1797.799683
  40
0.250000
  50
0.000000
  1
# 157
  7
STANDARD
  0
TEXT
  8
8
  10
-200.273026
  20
1857.246094
  40
0.250000
  50
0.000000
  1
# 158
  7
STANDARD
  0
TEXT
  8
8
  10
-167.778687
  20
2036.567383
  40
0.250000
  50
0.000000
  1
# 159
  7
STANDARD
  0
POINT
  8
2
  10
-102.896439
  20
1797.799683
  0
POINT
  8
2
  10
-200.273026
  20
1857.246094
  0
POINT
  8
2
  10
-167.778687
  20
2036.567383
  0
POINT
  8
3
  10
-104.272034
  20
1798.167725
  0
POINT
  8
3
  10
-123.043869
  20
1803.191772
  0
POINT
  8
3
  10
-131.499786
  20
1805.416870
  0
POINT
  8
3
  10
-139.923676
  20
1807.759644
  0
POINT
  8
3
  10
-148.266571
  20
1810.375488
  0
POINT
  8
3
  10
-156.463242
  20
1813.416626
  0
POINT
  8
3
  10
-164.418854
  20
1817.038574
  0
POINT
  8
3
  10
-171.996307
  20
1821.394409
  0
POINT
  8
3
  10
-179.005478
  20
1826.612183
  0
POINT
  8
3
  10
-185.216660
  20
1832.756104
  0
POINT
  8
3
  10
-190.485458
  20
1839.727295
  0
POINT
  8
3
  10
-195.000748
  20
1847.212646
  0
POINT
  8
3
  10
-201.792358
  20
1865.238037
  0
POINT
  8
3
  10
-202.170471
  20
1873.356567
  0
POINT
  8
3
  10
-201.298096
  20
1881.439209
  0
POINT
  8
3
  10
-199.429291
  20
1889.353638
  0
POINT
  8
3
  10
-196.860748
  20
1897.071899
  0
POINT
  8
3
  10
-193.879013
  20
1904.641113
  0
POINT
  8
3
  10
-190.754593
  20
1912.153198
  0
POINT
  8
3
  10
-187.761551
  20
1919.718262
  0
POINT
  8
3
  10
-179.097610
  20
1948.156128
  0
POINT
  8
3
  10
-173.532623
  20
1977.367310
  0
POINT
  8
3
  10
-170.117416
  20
2006.913452
  0
POLYLINE
  8
85
  66
1
  70
0
  250
1
  0
VERTEX
  8
85
  10
-102.896439
  20
1797.799683
  0
VERTEX
  8
85
  10
-104.272034
  20
1798.167725
  0
VERTEX
  8
85
  10
-123.043869
  20
1803.191772
  0
VERTEX
  8
85
  10
-131.499786
  20
1805.416870
  0
VERTEX
  8
85
  10
-139.923676
  20
1807.759644
  0
VERTEX
  8
85
  10
-148.266571
  20
1810.375488
  0
VERTEX
  8
85
  10
-156.463242
  20
1813.416626
  0
VERTEX
  8
85
  10
-164.418854
  20
1817.038574
  0
VERTEX
  8
85
  10
-171.996307
  20
1821.394409
  0
VERTEX
  8
85
  10
-179.005478
  20
1826.612183
  0
VERTEX
  8
85
  10
-185.216660
  20
1832.756104
  0
VERTEX
  8
85
  10
-190.485458
  20
1839.727295
  0
VERTEX
  8
85
  10
-195.000748
  20
1847.212646
  0
VERTEX
  8
85
  10
-200.273026
  20
1857.246094
  0
VERTEX
  8
85
  10
-200.273026
  20
1857.246094
  0
VERTEX
  8
85
  10
-201.792358
  20
1865.238037
  0
VERTEX
  8
85
  10
-202.170471
  20
1873.356567
  0
VERTEX
  8
85
  10
-201.298096
  20
1881.439209
  0
VERTEX
  8
85
  10
-199.429291
  20
1889.353638
  0
VERTEX
  8
85
  10
-196.860748
  20
1897.071899
  0
VERTEX
  8
85
  10
-193.879013
  20
1904.641113
  0
VERTEX
  8
85
  10
-190.754593
  20
1912.153198
  0
VERTEX
  8
85
  10
-187.761551
  20
1919.718262
  0
VERTEX
  8
85
  10
-179.097610
  20
1948.156128
  0
VERTEX
  8
85
  10
-173.532623
  20
1977.367310
  0
VERTEX
  8
85
  10
-170.117416
  20
2006.913452
  0
VERTEX
  8
85
  10
-167.778687
  20
2036.567383
  0
VERTEX
  8
85
  10
-167.778687
  20
2036.567383
  0
SEQEND
  0
TEXT
  8
85
  10
-167.778687
  20
2036.567383
  40
0.250000
  50
0.000000
  1
# 159
  7
STANDARD
  0
POINT
  8
2
  10
-102.896439
  20
1797.799683
  0
POINT
  8
2
  10
-200.273026
  20
1857.246094
  0
POINT
  8
2
  10
-167.778687
  20
2036.567383
  0
POINT
  8
3
  10
-104.272034
  20
1798.167725
  0
POINT
  8
3
  10
-123.043869
  20
1803.191772
  0
POINT
  8
3
  10
-131.499786
  20
1805.416870
  0
POINT
  8
3
  10
-139.923676
  20
1807.759644
  0
POINT
  8
3
  10
-148.266571
  20
1810.375488
  0
POINT
  8
3
  10
-156.463242
  20
1813.416626
  0
POINT
  8
3
  10
-164.418854
  20
1817.038574
  0
POINT
  8
3
  10
-171.996307
  20
1821.394409
  0
POINT
  8
3
  10
-179.005478
  20
1826.612183
  0
POINT
  8
3
  10
-185.216660
  20
1832.756104
  0
POINT
  8
3
  10
-190.485458
  20
1839.727295
  0
POINT
  8
3
  10
-195.000748
  20
1847.212646
  0
POINT
  8
3
  10
-201.792358
  20
1865.238037
  0
POINT
  8
3
  10
-202.170471
  20
1873.356567
  0
POINT
  8
3
  10
-201.298096
  20
1881.439209
  0
POINT
  8
3
  10
-199.429291
  20
1889.353638
  0
POINT
  8
3
  10
-196.860748
  20
1897.071899
  0
POINT
  8
3
  10
-193.879013
  20
1904.641113
  0
POINT
  8
3
  10
-190.754593
  20
1912.153198
  0
POINT
  8
3
  10
-187.761551
  20
1919.718262
  0
POINT
  8
3
  10
-179.097610
  20
1948.156128
  0
POINT
  8
3
  10
-173.532623
  20
1977.367310
  0
POINT
  8
3
  10
-170.117416
  20
2006.913452
  0
POLYLINE
  8
8
  66
1
  70
1
  250
1
  0
VERTEX
  8
8
  10
-110.769409
  20
1801.112549
  0
VERTEX
  8
8
  10
-112.300140
  20
1801.416992
  0
VERTEX
  8
8
  10
-113.597839
  20
1802.284180
  0
VERTEX
  8
8
  10
-114.464920
  20
1803.581787
  0
VERTEX
  8
8
  10
-114.769409
  20
1805.112549
  0
VERTEX
  8
8
  10
-114.464920
  20
1806.643311
  0
VERTEX
  8
8
  10
-113.597839
  20
1807.940918
  0
VERTEX
  8
8
  10
-112.300140
  20
1808.808105
  0
VERTEX
  8
8
  10
-110.769409
  20
1809.112549
  0
VERTEX
  8
8
  10
-109.238678
  20
1808.808105
  0
VERTEX
  8
8
  10
-107.940979
  20
1807.940918
  0
VERTEX
  8
8
  10
-107.073883
  20
1806.643311
  0
VERTEX
  8
8
  10
-106.769409
  20
1805.112549
  0
VERTEX
  8
8
  10
-107.073883
  20
1803.581787
  0
VERTEX
  8
8
  10
-107.940979
  20
1802.284180
  0
VERTEX
  8
8
  10
-109.238678
  20
1801.416992
  0
SEQEND
  0
TEXT
  8
8
  10
-110.769409
  20
1801.112549
  40
0.250000
  50
0.000000
  1
# 130
  7
STANDARD
  0
TEXT
  8
8
  10
-114.769409
  20
1805.112549
  40
0.250000
  50
0.000000
  1
# 131
  7
STANDARD
  0
TEXT
  8
8
  10
-110.769409
  20
1809.112549
  40
0.250000
  50
0.000000
  1
# 132
  7
STANDARD
  0
TEXT
  8
8
  10
-106.769409
  20
1805.112549
  40
0.250000
  50
0.000000
  1
# 133
  7
STANDARD
  0
POINT
  8
2
  10
-110.769409
  20
1801.112549
  0
POINT
  8
2
  10
-114.769409
  20
1805.112549
  0
POINT
  8
2
  10
-110.769409
  20
1809.112549
  0
POINT
  8
2
  10
-106.769409
  20
1805.112549
  0
POINT
  8
3
  10
-112.300140
  20
1801.416992
  0
POINT
  8
3
  10
-113.597839
  20
1802.284180
  0
POINT
  8
3
  10
-114.464920
  20
1803.581787
  0
POINT
  8
3
  10
-114.464920
  20
1806.643311
  0
POINT
  8
3
  10
-113.597839
  20
1807.940918
  0
POINT
  8
3
  10
-112.300140
  20
1808.808105
  0
POINT
  8
3
  10
-109.238678
  20
1808.808105
  0
POINT
  8
3
  10
-107.940979
  20
1807.940918
  0
POINT
  8
3
  10
-107.073883
  20
1806.643311
  0
POINT
  8
3
  10
-107.073883
  20
1803.581787
  0
POINT
  8
3
  10
-107.940979
  20
1802.284180
  0
POINT
  8
3
  10
-109.238678
  20
1801.416992
  0
POLYLINE
  8
85
  66
1
  70
1
  250
1
  0
VERTEX
  8
85
  10
-110.769409
  20
1801.112549
  0
VERTEX
  8
85
  10
-112.300140
  20
1801.416992
  0
VERTEX
  8
85
  10
-113.597839
  20
1802.284180
  0
VERTEX
  8
85
  10
-114.464920
  20
1803.581787
  0
VERTEX
  8
85
  10
-114.769409
  20
1805.112549
  0
VERTEX
  8
85
  10
-114.769409
  20
1805.112549
  0
VERTEX
  8
85
  10
-114.464920
  20
1806.643311
  0
VERTEX
  8
85
  10
-113.597839
  20
1807.940918
  0
VERTEX
  8
85
  10
-112.300140
  20
1808.808105
  0
VERTEX
  8
85
  10
-110.769409
  20
1809.112549
  0
VERTEX
  8
85
  10
-110.769409
  20
1809.112549
  0
VERTEX
  8
85
  10
-109.238678
  20
1808.808105
  0
VERTEX
  8
85
  10
-107.940979
  20
1807.940918
  0
VERTEX
  8
85
  10
-107.073883
  20
1806.643311
  0
VERTEX
  8
85
  10
-106.769409
  20
1805.112549
  0
VERTEX
  8
85
  10
-106.769409
  20
1805.112549
  0
VERTEX
  8
85
  10
-107.073883
  20
1803.581787
  0
VERTEX
  8
85
  10
-107.940979
  20
1802.284180
  0
VERTEX
  8
85
  10
-109.238678
  20
1801.416992
  0
VERTEX
  8
85
  10
-110.769409
  20
1801.112549
  0
SEQEND
  0
POINT
  8
2
  10
-110.769409
  20
1801.112549
  0
POINT
  8
2
  10
-114.769409
  20
1805.112549
  0
POINT
  8
2
  10
-110.769409
  20
1809.112549
  0
POINT
  8
2
  10
-106.769409
  20
1805.112549
  0
POINT
  8
3
  10
-112.300140
  20
1801.416992
  0
POINT
  8
3
  10
-113.597839
  20
1802.284180
  0
POINT
  8
3
  10
-114.464920
  20
1803.581787
  0
POINT
  8
3
  10
-114.464920
  20
1806.643311
  0
POINT
  8
3
  10
-113.597839
  20
1807.940918
  0
POINT
  8
3
  10
-112.300140
  20
1808.808105
  0
POINT
  8
3
  10
-109.238678
  20
1808.808105
  0
POINT
  8
3
  10
-107.940979
  20
1807.940918
  0
POINT
  8
3
  10
-107.073883
  20
1806.643311
  0
POINT
  8
3
  10
-107.073883
  20
1803.581787
  0
POINT
  8
3
  10
-107.940979
  20
1802.284180
  0
POINT
  8
3
  10
-109.238678
  20
1801.416992
  0
POLYLINE
  8
8
  66
1
  70
0
  250
1
  0
VERTEX
  8
8
  10
-113.022614
  20
1806.530396
  0
VERTEX
  8
8
  10
-110.769409
  20
1802.898193
  0
VERTEX
  8
8
  10
-109.133011
  20
1806.530396
  0
SEQEND
  0
TEXT
  8
8
  10
-113.022614
  20
1806.530396
  40
0.250000
  50
0.000000
  1
# 115
  7
STANDARD
  0
TEXT
  8
8
  10
-110.769409
  20
1802.898193
  40
0.250000
  50
0.000000
  1
# 116
  7
STANDARD
  0
TEXT
  8
8
  10
-109.133011
  20
1806.530396
  40
0.250000
  50
0.000000
  1
# 117
  7
STANDARD
  0
POINT
  8
2
  10
-113.022614
  20
1806.530396
  0
POINT
  8
2
  10
-110.769409
  20
1802.898193
  0
POINT
  8
2
  10
-109.133011
  20
1806.530396
  0
POLYLINE
  8
85
  66
1
  70
0
  250
1
  0
VERTEX
  8
85
  10
-113.022614
  20
1806.530396
  0
VERTEX
  8
85
  10
-110.769409
  20
1802.898193
  0
VERTEX
  8
85
  10
-110.769409
  20
1802.898193
  0
VERTEX
  8
85
  10
-109.133011
  20
1806.530396
  0
VERTEX
  8
85
  10
-109.133011
  20
1806.530396
  0
SEQEND
  0
TEXT
  8
85
  10
-109.133011
  20
1806.530396
  40
0.250000
  50
0.000000
  1
# 117
  7
STANDARD
  0
POINT
  8
2
  10
-113.022614
  20
1806.530396
  0
POINT
  8
2
  10
-110.769409
  20
1802.898193
  0
POINT
  8
2
  10
-109.133011
  20
1806.530396
  0
POLYLINE
  8
14
  66
1
  70
1
  250
0
  0
VERTEX
  8
14
  10
-196.006805
  20
1650.011963
  0
VERTEX
  8
14
  10
-170.529236
  20
1651.445435
  0
VERTEX
  8
14
  10
-145.147110
  20
1654.126953
  0
VERTEX
  8
14
  10
-123.054367
  20
1701.426636
  0
VERTEX
  8
14
  10
-101.686646
  20
1807.827759
  0
VERTEX
  8
14
  10
-120.472488
  20
1812.855591
  0
VERTEX
  8
14
  10
-177.078979
  20
1838.653198
  0
VERTEX
  8
14
  10
-190.728333
  20
1860.552002
  0
VERTEX
  8
14
  10
-191.828339
  20
1866.213379
  0
VERTEX
  8
14
  10
-180.022980
  20
1912.001343
  0
VERTEX
  8
14
  10
-157.805176
  20
2035.839966
  0
VERTEX
  8
14
  10
-264.207336
  20
2034.037964
  0
VERTEX
  8
14
  10
-332.899078
  20
2011.171265
  0
VERTEX
  8
14
  10
-415.123718
  20
1919.223389
  0
VERTEX
  8
14
  10
-409.039917
  20
1791.508667
  0
VERTEX
  8
14
  10
-391.582306
  20
1692.640381
  0
VERTEX
  8
14
  10
-324.849152
  20
1692.501587
  0
VERTEX
  8
14
  10
-249.683868
  20
1656.619019
  0
SEQEND
  0
TEXT
  8
14
  10
-196.006805
  20
1650.011963
  40
0.250000
  50
0.000000
  1
# 172
  7
STANDARD
  0
TEXT
  8
14
  10
-145.147110
  20
1654.126953
  40
0.250000
  50
0.000000
  1
# 173
  7
STANDARD
  0
TEXT
  8
14
  10
-101.686646
  20
1807.827759
  40
0.250000
  50
0.000000
  1
# 174
  7
STANDARD
  0
TEXT
  8
14
  10
-190.728333
  20
1860.552002
  40
0.250000
  50
0.000000
  1
# 175
  7
STANDARD
  0
TEXT
  8
14
  10
-157.805176
  20
2035.839966
  40
0.250000
  50
0.000000
  1
# 176
  7
STANDARD
  0
TEXT
  8
14
  10
-391.582306
  20
1692.640381
  40
0.250000
  50
0.000000
  1
# 177
  7
STANDARD
  0
POINT
  8
2
  10
-196.006805
  20
1650.011963
  0
POINT
  8
2
  10
-145.147110
  20
1654.126953
  0
POINT
  8
2
  10
-101.686646
  20
1807.827759
  0
POINT
  8
2
  10
-190.728333
  20
1860.552002
  0
POINT
  8
2
  10
-157.805176
  20
2035.839966
  0
POINT
  8
2
  10
-391.582306
  20
1692.640381
  0
POINT
  8
3
  10
-170.529236
  20
1651.445435
  0
POINT
  8
3
  10
-123.054367
  20
1701.426636
  0
POINT
  8
3
  10
-120.472488
  20
1812.855591
  0
POINT
  8
3
  10
-177.078979
  20
1838.653198
  0
POINT
  8
3
  10
-191.828339
  20
1866.213379
  0
POINT
  8
3
  10
-180.022980
  20
1912.001343
  0
POINT
  8
3
  10
-264.207336
  20
2034.037964
  0
POINT
  8
3
  10
-332.899078
  20
2011.171265
  0
POINT
  8
3
  10
-415.123718
  20
1919.223389
  0
POINT
  8
3
  10
-409.039917
  20
1791.508667
  0
POINT
  8
3
  10
-324.849152
  20
1692.501587
  0
POINT
  8
3
  10
-249.683868
  20
1656.619019
  0
POLYLINE
  8
87
  66
1
  70
1
  250
1
  0
VERTEX
  8
87
  10
-196.006805
  20
1650.011963
  0
VERTEX
  8
87
  10
-170.529236
  20
1651.445435
  0
VERTEX
  8
87
  10
-145.147110
  20
1654.126953
  0
VERTEX
  8
87
  10
-145.147110
  20
1654.126953
  0
VERTEX
  8
87
  10
-123.054367
  20
1701.426636
  0
VERTEX
  8
87
  10
-101.686646
  20
1807.827759
  0
VERTEX
  8
87
  10
-101.686646
  20
1807.827759
  0
VERTEX
  8
87
  10
-120.472488
  20
1812.855591
  0
VERTEX
  8
87
  10
-177.078979
  20
1838.653198
  0
VERTEX
  8
87
  10
-190.728333
  20
1860.552002
  0
VERTEX
  8
87
  10
-190.728333
  20
1860.552002
  0
VERTEX
  8
87
  10
-191.828339
  20
1866.213379
  0
VERTEX
  8
87
  10
-180.022980
  20
1912.001343
  0
VERTEX
  8
87
  10
-157.805176
  20
2035.839966
  0
VERTEX
  8
87
  10
-157.805176
  20
2035.839966
  0
VERTEX
  8
87
  10
-264.207336
  20
2034.037964
  0
VERTEX
  8
87
  10
-332.899078
  20
2011.171265
  0
VERTEX
  8
87
  10
-415.123718
  20
1919.223389
  0
VERTEX
  8
87
  10
-409.039917
  20
1791.508667
  0
VERTEX
  8
87
  10
-391.582306
  20
1692.640381
  0
VERTEX
  8
87
  10
-391.582306
  20
1692.640381
  0
VERTEX
  8
87
  10
-324.849152
  20
1692.501587
  0
VERTEX
  8
87
  10
-249.683868
  20
1656.619019
  0
VERTEX
  8
87
  10
-196.006805
  20
1650.011963
  0
SEQEND
  0
POINT
  8
2
  10
-196.006805
  20
1650.011963
  0
POINT
  8
2
  10
-145.147110
  20
1654.126953
  0
POINT
  8
2
  10
-101.686646
  20
1807.827759
  0
POINT
  8
2
  10
-190.728333
  20
1860.552002
  0
POINT
  8
2
  10
-157.805176
  20
2035.839966
  0
POINT
  8
2
  10
-391.582306
  20
1692.640381
  0
POINT
  8
3
  10
-170.529236
  20
1651.445435
  0
POINT
  8
3
  10
-123.054367
  20
1701.426636
  0
POINT
  8
3
  10
-120.472488
  20
1812.855591
  0
POINT
  8
3
  10
-177.078979
  20
1838.653198
  0
POINT
  8
3
  10
-191.828339
  20
1866.213379
  0
POINT
  8
3
  10
-180.022980
  20
1912.001343
  0
POINT
  8
3
  10
-264.207336
  20
2034.037964
  0
POINT
  8
3
  10
-332.899078
  20
2011.171265
  0
POINT
  8
3
  10
-415.123718
  20
1919.223389
  0
POINT
  8
3
  10
-409.039917
  20
1791.508667
  0
POINT
  8
3
  10
-324.849152
  20
1692.501587
  0
POINT
  8
3
  10
-249.683868
  20
1656.619019
  0
POLYLINE
  8
8
  66
1
  70
0
  250
0
  0
VERTEX
  8
8
  10
-190.728363
  20
1860.552124
  0
VERTEX
  8
8
  10
-204.686951
  20
1747.277588
  0
VERTEX
  8
8
  10
-196.006836
  20
1650.012085
  0
SEQEND
  0
TEXT
  8
8
  10
-190.728363
  20
1860.552124
  40
0.250000
  50
0.000000
  1
# 113
  7
STANDARD
  0
TEXT
  8
8
  10
-196.006836
  20
1650.012085
  40
0.250000
  50
0.000000
  1
# 114
  7
STANDARD
  0
POINT
  8
2
  10
-190.728363
  20
1860.552124
  0
POINT
  8
2
  10
-196.006836
  20
1650.012085
  0
POINT
  8
3
  10
-204.686951
  20
1747.277588
  0
POLYLINE
  8
85
  66
1
  70
0
  250
1
  0
VERTEX
  8
85
  10
-190.728363
  20
1860.552124
  0
VERTEX
  8
85
  10
-204.686951
  20
1747.277588
  0
VERTEX
  8
85
  10
-196.006836
  20
1650.012085
  0
VERTEX
  8
85
  10
-196.006836
  20
1650.012085
  0
SEQEND
  0
TEXT
  8
85
  10
-196.006836
  20
1650.012085
  40
0.250000
  50
0.000000
  1
# 114
  7
STANDARD
  0
POINT
  8
2
  10
-190.728363
  20
1860.552124
  0
POINT
  8
2
  10
-196.006836
  20
1650.012085
  0
POINT
  8
3
  10
-204.686951
  20
1747.277588
  0
POLYLINE
  8
8
  66
1
  70
0
  250
0
  0
VERTEX
  8
8
  10
-196.006821
  20
1650.012085
  0
VERTEX
  8
8
  10
-195.094772
  20
1747.098267
  0
VERTEX
  8
8
  10
-190.728394
  20
1860.552124
  0
SEQEND
  0
TEXT
  8
8
  10
-196.006821
  20
1650.012085
  40
0.250000
  50
0.000000
  1
# 110
  7
STANDARD
  0
TEXT
  8
8
  10
-190.728394
  20
1860.552124
  40
0.250000
  50
0.000000
  1
# 111
  7
STANDARD
  0
POINT
  8
2
  10
-196.006821
  20
1650.012085
  0
POINT
  8
2
  10
-190.728394
  20
1860.552124
  0
POINT
  8
3
  10
-195.094772
  20
1747.098267
  0
POLYLINE
  8
85
  66
1
  70
0
  250
1
  0
VERTEX
  8
85
  10
-196.006821
  20
1650.012085
  0
VERTEX
  8
85
  10
-195.094772
  20
1747.098267
  0
VERTEX
  8
85
  10
-190.728394
  20
1860.552124
  0
VERTEX
  8
85
  10
-190.728394
  20
1860.552124
  0
SEQEND
  0
TEXT
  8
85
  10
-190.728394
  20
1860.552124
  40
0.250000
  50
0.000000
  1
# 111
  7
STANDARD
  0
POINT
  8
2
  10
-196.006821
  20
1650.012085
  0
POINT
  8
2
  10
-190.728394
  20
1860.552124
  0
POINT
  8
3
  10
-195.094772
  20
1747.098267
  0
TEXT
  8
1
  10
-261.311646
  20
1843.873291
  50
0.000000
  51
0.000000
  71
0.000000
  1
PIECE NAME: Pattern_6774331
  7
STANDARD
  0
TEXT
  8
1
  10
-261.311646
  20
1838.873291
  50
0.000000
  51
0.000000
  71
0.000000
  1
SIZE: M
  7
STANDARD
  0
TEXT
  8
1
  10
-261.311646
  20
1828.873291
  50
0.000000
  51
0.000000
  71
0.000000
  1
QUANTITY: 1
  7
STANDARD
  0
ENDBLK
  0
BLOCK
  8
0
  2
Pattern_6774333_M
  70
64
  10
0
  20
0
  0
POLYLINE
  8
1
  66
1
  70
1
  250
2
  0
VERTEX
  8
1
  10
148.016083
  20
1631.391113
  0
VERTEX
  8
1
  10
122.538513
  20
1632.824585
  0
VERTEX
  8
1
  10
97.156387
  20
1635.506104
  0
VERTEX
  8
1
  10
75.063644
  20
1682.805786
  0
VERTEX
  8
1
  10
53.695923
  20
1789.206909
  0
VERTEX
  8
1
  10
72.481766
  20
1794.234741
  0
VERTEX
  8
1
  10
129.088257
  20
1820.032349
  0
VERTEX
  8
1
  10
142.737610
  20
1841.931152
  0
VERTEX
  8
1
  10
143.837616
  20
1847.592529
  0
VERTEX
  8
1
  10
132.032257
  20
1893.380493
  0
VERTEX
  8
1
  10
109.814453
  20
2017.219116
  0
VERTEX
  8
1
  10
216.216599
  20
2015.417114
  0
VERTEX
  8
1
  10
284.908356
  20
1992.550415
  0
VERTEX
  8
1
  10
367.132996
  20
1900.602539
  0
VERTEX
  8
1
  10
361.049194
  20
1772.887817
  0
VERTEX
  8
1
  10
343.591583
  20
1674.019531
  0
VERTEX
  8
1
  10
276.858429
  20
1673.880737
  0
VERTEX
  8
1
  10
201.693146
  20
1637.998169
  0
SEQEND
  0
TEXT
  8
1
  10
148.016083
  20
1631.391113
  40
0.250000
  50
0.000000
  1
# 103
  7
STANDARD
  0
TEXT
  8
1
  10
97.156387
  20
1635.506104
  40
0.250000
  50
0.000000
  1
# 104
  7
STANDARD
  0
TEXT
  8
1
  10
53.695923
  20
1789.206909
  40
0.250000
  50
0.000000
  1
# 105
  7
STANDARD
  0
TEXT
  8
1
  10
142.737610
  20
1841.931152
  40
0.250000
  50
0.000000
  1
# 106
  7
STANDARD
  0
TEXT
  8
1
  10
109.814453
  20
2017.219116
  40
0.250000
  50
0.000000
  1
# 107
  7
STANDARD
  0
TEXT
  8
1
  10
343.591583
  20
1674.019531
  40
0.250000
  50
0.000000
  1
# 108
  7
STANDARD
  0
POINT
  8
2
  10
148.016083
  20
1631.391113
  0
POINT
  8
2
  10
97.156387
  20
1635.506104
  0
POINT
  8
2
  10
53.695923
  20
1789.206909
  0
POINT
  8
2
  10
142.737610
  20
1841.931152
  0
POINT
  8
2
  10
109.814453
  20
2017.219116
  0
POINT
  8
2
  10
343.591583
  20
1674.019531
  0
POINT
  8
3
  10
122.538513
  20
1632.824585
  0
POINT
  8
3
  10
75.063644
  20
1682.805786
  0
POINT
  8
3
  10
72.481766
  20
1794.234741
  0
POINT
  8
3
  10
129.088257
  20
1820.032349
  0
POINT
  8
3
  10
143.837616
  20
1847.592529
  0
POINT
  8
3
  10
132.032257
  20
1893.380493
  0
POINT
  8
3
  10
216.216599
  20
2015.417114
  0
POINT
  8
3
  10
284.908356
  20
1992.550415
  0
POINT
  8
3
  10
367.132996
  20
1900.602539
  0
POINT
  8
3
  10
361.049194
  20
1772.887817
  0
POINT
  8
3
  10
276.858429
  20
1673.880737
  0
POINT
  8
3
  10
201.693146
  20
1637.998169
  0
POLYLINE
  8
84
  66
1
  70
1
  250
2
  0
VERTEX
  8
84
  10
148.016083
  20
1631.391113
  0
VERTEX
  8
84
  10
122.538513
  20
1632.824585
  0
VERTEX
  8
84
  10
97.156387
  20
1635.506104
  0
VERTEX
  8
84
  10
97.156387
  20
1635.506104
  0
VERTEX
  8
84
  10
75.063644
  20
1682.805786
  0
VERTEX
  8
84
  10
53.695923
  20
1789.206909
  0
VERTEX
  8
84
  10
53.695923
  20
1789.206909
  0
VERTEX
  8
84
  10
72.481766
  20
1794.234741
  0
VERTEX
  8
84
  10
129.088257
  20
1820.032349
  0
VERTEX
  8
84
  10
142.737610
  20
1841.931152
  0
VERTEX
  8
84
  10
142.737610
  20
1841.931152
  0
VERTEX
  8
84
  10
143.837616
  20
1847.592529
  0
VERTEX
  8
84
  10
132.032257
  20
1893.380493
  0
VERTEX
  8
84
  10
109.814453
  20
2017.219116
  0
VERTEX
  8
84
  10
109.814453
  20
2017.219116
  0
VERTEX
  8
84
  10
216.216599
  20
2015.417114
  0
VERTEX
  8
84
  10
284.908356
  20
1992.550415
  0
VERTEX
  8
84
  10
367.132996
  20
1900.602539
  0
VERTEX
  8
84
  10
361.049194
  20
1772.887817
  0
VERTEX
  8
84
  10
343.591583
  20
1674.019531
  0
VERTEX
  8
84
  10
343.591583
  20
1674.019531
  0
VERTEX
  8
84
  10
276.858429
  20
1673.880737
  0
VERTEX
  8
84
  10
201.693146
  20
1637.998169
  0
VERTEX
  8
84
  10
148.016083
  20
1631.391113
  0
SEQEND
  0
POINT
  8
2
  10
148.016083
  20
1631.391113
  0
POINT
  8
2
  10
97.156387
  20
1635.506104
  0
POINT
  8
2
  10
53.695923
  20
1789.206909
  0
POINT
  8
2
  10
142.737610
  20
1841.931152
  0
POINT
  8
2
  10
109.814453
  20
2017.219116
  0
POINT
  8
2
  10
343.591583
  20
1674.019531
  0
POINT
  8
3
  10
122.538513
  20
1632.824585
  0
POINT
  8
3
  10
75.063644
  20
1682.805786
  0
POINT
  8
3
  10
72.481766
  20
1794.234741
  0
POINT
  8
3
  10
129.088257
  20
1820.032349
  0
POINT
  8
3
  10
143.837616
  20
1847.592529
  0
POINT
  8
3
  10
132.032257
  20
1893.380493
  0
POINT
  8
3
  10
216.216599
  20
2015.417114
  0
POINT
  8
3
  10
284.908356
  20
1992.550415
  0
POINT
  8
3
  10
367.132996
  20
1900.602539
  0
POINT
  8
3
  10
361.049194
  20
1772.887817
  0
POINT
  8
3
  10
276.858429
  20
1673.880737
  0
POINT
  8
3
  10
201.693146
  20
1637.998169
  0
LINE
  8
7
  10
213.320923
  20
1735.252441
  11
213.320923
  21
1915.252441
  0
POLYLINE
  8
8
  66
1
  70
0
  250
1
  0
VERTEX
  8
8
  10
54.905716
  20
1779.178833
  0
VERTEX
  8
8
  10
56.281311
  20
1779.546875
  0
VERTEX
  8
8
  10
75.053146
  20
1784.570923
  0
VERTEX
  8
8
  10
83.509064
  20
1786.796021
  0
VERTEX
  8
8
  10
91.932953
  20
1789.138794
  0
VERTEX
  8
8
  10
100.275848
  20
1791.754639
  0
VERTEX
  8
8
  10
108.472519
  20
1794.795776
  0
VERTEX
  8
8
  10
116.428131
  20
1798.417725
  0
VERTEX
  8
8
  10
124.005585
  20
1802.773560
  0
VERTEX
  8
8
  10
131.014755
  20
1807.991333
  0
VERTEX
  8
8
  10
137.225937
  20
1814.135254
  0
VERTEX
  8
8
  10
142.494736
  20
1821.106445
  0
VERTEX
  8
8
  10
147.010025
  20
1828.591797
  0
VERTEX
  8
8
  10
152.282303
  20
1838.625244
  0
VERTEX
  8
8
  10
153.801636
  20
1846.617188
  0
VERTEX
  8
8
  10
154.179749
  20
1854.735718
  0
VERTEX
  8
8
  10
153.307373
  20
1862.818359
  0
VERTEX
  8
8
  10
151.438568
  20
1870.732788
  0
VERTEX
  8
8
  10
148.870026
  20
1878.451050
  0
VERTEX
  8
8
  10
145.888290
  20
1886.020264
  0
VERTEX
  8
8
  10
142.763870
  20
1893.532349
  0
VERTEX
  8
8
  10
139.770828
  20
1901.097412
  0
VERTEX
  8
8
  10
131.106888
  20
1929.535278
  0
VERTEX
  8
8
  10
125.541901
  20
1958.746460
  0
VERTEX
  8
8
  10
122.126694
  20
1988.292603
  0
VERTEX
  8
8
  10
119.787964
  20
2017.946533
  0
SEQEND
  0
TEXT
  8
8
  10
54.905716
  20
1779.178833
  40
0.250000
  50
0.000000
  1
# 88
  7
STANDARD
  0
TEXT
  8
8
  10
152.282303
  20
1838.625244
  40
0.250000
  50
0.000000
  1
# 89
  7
STANDARD
  0
TEXT
  8
8
  10
119.787964
  20
2017.946533
  40
0.250000
  50
0.000000
  1
# 90
  7
STANDARD
  0
POINT
  8
2
  10
54.905716
  20
1779.178833
  0
POINT
  8
2
  10
152.282303
  20
1838.625244
  0
POINT
  8
2
  10
119.787964
  20
2017.946533
  0
POINT
  8
3
  10
56.281311
  20
1779.546875
  0
POINT
  8
3
  10
75.053146
  20
1784.570923
  0
POINT
  8
3
  10
83.509064
  20
1786.796021
  0
POINT
  8
3
  10
91.932953
  20
1789.138794
  0
POINT
  8
3
  10
100.275848
  20
1791.754639
  0
POINT
  8
3
  10
108.472519
  20
1794.795776
  0
POINT
  8
3
  10
116.428131
  20
1798.417725
  0
POINT
  8
3
  10
124.005585
  20
1802.773560
  0
POINT
  8
3
  10
131.014755
  20
1807.991333
  0
POINT
  8
3
  10
137.225937
  20
1814.135254
  0
POINT
  8
3
  10
142.494736
  20
1821.106445
  0
POINT
  8
3
  10
147.010025
  20
1828.591797
  0
POINT
  8
3
  10
153.801636
  20
1846.617188
  0
POINT
  8
3
  10
154.179749
  20
1854.735718
  0
POINT
  8
3
  10
153.307373
  20
1862.818359
  0
POINT
  8
3
  10
151.438568
  20
1870.732788
  0
POINT
  8
3
  10
148.870026
  20
1878.451050
  0
POINT
  8
3
  10
145.888290
  20
1886.020264
  0
POINT
  8
3
  10
142.763870
  20
1893.532349
  0
POINT
  8
3
  10
139.770828
  20
1901.097412
  0
POINT
  8
3
  10
131.106888
  20
1929.535278
  0
POINT
  8
3
  10
125.541901
  20
1958.746460
  0
POINT
  8
3
  10
122.126694
  20
1988.292603
  0
POLYLINE
  8
85
  66
1
  70
0
  250
1
  0
VERTEX
  8
85
  10
54.905716
  20
1779.178833
  0
VERTEX
  8
85
  10
56.281311
  20
1779.546875
  0
VERTEX
  8
85
  10
75.053146
  20
1784.570923
  0
VERTEX
  8
85
  10
83.509064
  20
1786.796021
  0
VERTEX
  8
85
  10
91.932953
  20
1789.138794
  0
VERTEX
  8
85
  10
100.275848
  20
1791.754639
  0
VERTEX
  8
85
  10
108.472519
  20
1794.795776
  0
VERTEX
  8
85
  10
116.428131
  20
1798.417725
  0
VERTEX
  8
85
  10
124.005585
  20
1802.773560
  0
VERTEX
  8
85
  10
131.014755
  20
1807.991333
  0
VERTEX
  8
85
  10
137.225937
  20
1814.135254
  0
VERTEX
  8
85
  10
142.494736
  20
1821.106445
  0
VERTEX
  8
85
  10
147.010025
  20
1828.591797
  0
VERTEX
  8
85
  10
152.282303
  20
1838.625244
  0
VERTEX
  8
85
  10
152.282303
  20
1838.625244
  0
VERTEX
  8
85
  10
153.801636
  20
1846.617188
  0
VERTEX
  8
85
  10
154.179749
  20
1854.735718
  0
VERTEX
  8
85
  10
153.307373
  20
1862.818359
  0
VERTEX
  8
85
  10
151.438568
  20
1870.732788
  0
VERTEX
  8
85
  10
148.870026
  20
1878.451050
  0
VERTEX
  8
85
  10
145.888290
  20
1886.020264
  0
VERTEX
  8
85
  10
142.763870
  20
1893.532349
  0
VERTEX
  8
85
  10
139.770828
  20
1901.097412
  0
VERTEX
  8
85
  10
131.106888
  20
1929.535278
  0
VERTEX
  8
85
  10
125.541901
  20
1958.746460
  0
VERTEX
  8
85
  10
122.126694
  20
1988.292603
  0
VERTEX
  8
85
  10
119.787964
  20
2017.946533
  0
VERTEX
  8
85
  10
119.787964
  20
2017.946533
  0
SEQEND
  0
TEXT
  8
85
  10
119.787964
  20
2017.946533
  40
0.250000
  50
0.000000
  1
# 90
  7
STANDARD
  0
POINT
  8
2
  10
54.905716
  20
1779.178833
  0
POINT
  8
2
  10
152.282303
  20
1838.625244
  0
POINT
  8
2
  10
119.787964
  20
2017.946533
  0
POINT
  8
3
  10
56.281311
  20
1779.546875
  0
POINT
  8
3
  10
75.053146
  20
1784.570923
  0
POINT
  8
3
  10
83.509064
  20
1786.796021
  0
POINT
  8
3
  10
91.932953
  20
1789.138794
  0
POINT
  8
3
  10
100.275848
  20
1791.754639
  0
POINT
  8
3
  10
108.472519
  20
1794.795776
  0
POINT
  8
3
  10
116.428131
  20
1798.417725
  0
POINT
  8
3
  10
124.005585
  20
1802.773560
  0
POINT
  8
3
  10
131.014755
  20
1807.991333
  0
POINT
  8
3
  10
137.225937
  20
1814.135254
  0
POINT
  8
3
  10
142.494736
  20
1821.106445
  0
POINT
  8
3
  10
147.010025
  20
1828.591797
  0
POINT
  8
3
  10
153.801636
  20
1846.617188
  0
POINT
  8
3
  10
154.179749
  20
1854.735718
  0
POINT
  8
3
  10
153.307373
  20
1862.818359
  0
POINT
  8
3
  10
151.438568
  20
1870.732788
  0
POINT
  8
3
  10
148.870026
  20
1878.451050
  0
POINT
  8
3
  10
145.888290
  20
1886.020264
  0
POINT
  8
3
  10
142.763870
  20
1893.532349
  0
POINT
  8
3
  10
139.770828
  20
1901.097412
  0
POINT
  8
3
  10
131.106888
  20
1929.535278
  0
POINT
  8
3
  10
125.541901
  20
1958.746460
  0
POINT
  8
3
  10
122.126694
  20
1988.292603
  0
POLYLINE
  8
8
  66
1
  70
1
  250
1
  0
VERTEX
  8
8
  10
62.778687
  20
1782.491699
  0
VERTEX
  8
8
  10
64.309418
  20
1782.796143
  0
VERTEX
  8
8
  10
65.607117
  20
1783.663330
  0
VERTEX
  8
8
  10
66.474197
  20
1784.960938
  0
VERTEX
  8
8
  10
66.778687
  20
1786.491699
  0
VERTEX
  8
8
  10
66.474197
  20
1788.022461
  0
VERTEX
  8
8
  10
65.607117
  20
1789.320068
  0
VERTEX
  8
8
  10
64.309418
  20
1790.187256
  0
VERTEX
  8
8
  10
62.778687
  20
1790.491699
  0
VERTEX
  8
8
  10
61.247955
  20
1790.187256
  0
VERTEX
  8
8
  10
59.950256
  20
1789.320068
  0
VERTEX
  8
8
  10
59.083160
  20
1788.022461
  0
VERTEX
  8
8
  10
58.778687
  20
1786.491699
  0
VERTEX
  8
8
  10
59.083160
  20
1784.960938
  0
VERTEX
  8
8
  10
59.950256
  20
1783.663330
  0
VERTEX
  8
8
  10
61.247955
  20
1782.796143
  0
SEQEND
  0
TEXT
  8
8
  10
62.778687
  20
1782.491699
  40
0.250000
  50
0.000000
  1
# 61
  7
STANDARD
  0
TEXT
  8
8
  10
66.778687
  20
1786.491699
  40
0.250000
  50
0.000000
  1
# 62
  7
STANDARD
  0
TEXT
  8
8
  10
62.778687
  20
1790.491699
  40
0.250000
  50
0.000000
  1
# 63
  7
STANDARD
  0
TEXT
  8
8
  10
58.778687
  20
1786.491699
  40
0.250000
  50
0.000000
  1
# 64
  7
STANDARD
  0
POINT
  8
2
  10
62.778687
  20
1782.491699
  0
POINT
  8
2
  10
66.778687
  20
1786.491699
  0
POINT
  8
2
  10
62.778687
  20
1790.491699
  0
POINT
  8
2
  10
58.778687
  20
1786.491699
  0
POINT
  8
3
  10
64.309418
  20
1782.796143
  0
POINT
  8
3
  10
65.607117
  20
1783.663330
  0
POINT
  8
3
  10
66.474197
  20
1784.960938
  0
POINT
  8
3
  10
66.474197
  20
1788.022461
  0
POINT
  8
3
  10
65.607117
  20
1789.320068
  0
POINT
  8
3
  10
64.309418
  20
1790.187256
  0
POINT
  8
3
  10
61.247955
  20
1790.187256
  0
POINT
  8
3
  10
59.950256
  20
1789.320068
  0
POINT
  8
3
  10
59.083160
  20
1788.022461
  0
POINT
  8
3
  10
59.083160
  20
1784.960938
  0
POINT
  8
3
  10
59.950256
  20
1783.663330
  0
POINT
  8
3
  10
61.247955
  20
1782.796143
  0
POLYLINE
  8
85
  66
1
  70
1
  250
1
  0
VERTEX
  8
85
  10
62.778687
  20
1782.491699
  0
VERTEX
  8
85
  10
64.309418
  20
1782.796143
  0
VERTEX
  8
85
  10
65.607117
  20
1783.663330
  0
VERTEX
  8
85
  10
66.474197
  20
1784.960938
  0
VERTEX
  8
85
  10
66.778687
  20
1786.491699
  0
VERTEX
  8
85
  10
66.778687
  20
1786.491699
  0
VERTEX
  8
85
  10
66.474197
  20
1788.022461
  0
VERTEX
  8
85
  10
65.607117
  20
1789.320068
  0
VERTEX
  8
85
  10
64.309418
  20
1790.187256
  0
VERTEX
  8
85
  10
62.778687
  20
1790.491699
  0
VERTEX
  8
85
  10
62.778687
  20
1790.491699
  0
VERTEX
  8
85
  10
61.247955
  20
1790.187256
  0
VERTEX
  8
85
  10
59.950256
  20
1789.320068
  0
VERTEX
  8
85
  10
59.083160
  20
1788.022461
  0
VERTEX
  8
85
  10
58.778687
  20
1786.491699
  0
VERTEX
  8
85
  10
58.778687
  20
1786.491699
  0
VERTEX
  8
85
  10
59.083160
  20
1784.960938
  0
VERTEX
  8
85
  10
59.950256
  20
1783.663330
  0
VERTEX
  8
85
  10
61.247955
  20
1782.796143
  0
VERTEX
  8
85
  10
62.778687
  20
1782.491699
  0
SEQEND
  0
POINT
  8
2
  10
62.778687
  20
1782.491699
  0
POINT
  8
2
  10
66.778687
  20
1786.491699
  0
POINT
  8
2
  10
62.778687
  20
1790.491699
  0
POINT
  8
2
  10
58.778687
  20
1786.491699
  0
POINT
  8
3
  10
64.309418
  20
1782.796143
  0
POINT
  8
3
  10
65.607117
  20
1783.663330
  0
POINT
  8
3
  10
66.474197
  20
1784.960938
  0
POINT
  8
3
  10
66.474197
  20
1788.022461
  0
POINT
  8
3
  10
65.607117
  20
1789.320068
  0
POINT
  8
3
  10
64.309418
  20
1790.187256
  0
POINT
  8
3
  10
61.247955
  20
1790.187256
  0
POINT
  8
3
  10
59.950256
  20
1789.320068
  0
POINT
  8
3
  10
59.083160
  20
1788.022461
  0
POINT
  8
3
  10
59.083160
  20
1784.960938
  0
POINT
  8
3
  10
59.950256
  20
1783.663330
  0
POINT
  8
3
  10
61.247955
  20
1782.796143
  0
POLYLINE
  8
8
  66
1
  70
0
  250
1
  0
VERTEX
  8
8
  10
65.031891
  20
1787.909546
  0
VERTEX
  8
8
  10
62.778687
  20
1784.277344
  0
VERTEX
  8
8
  10
61.142288
  20
1787.909546
  0
SEQEND
  0
TEXT
  8
8
  10
65.031891
  20
1787.909546
  40
0.250000
  50
0.000000
  1
# 46
  7
STANDARD
  0
TEXT
  8
8
  10
62.778687
  20
1784.277344
  40
0.250000
  50
0.000000
  1
# 47
  7
STANDARD
  0
TEXT
  8
8
  10
61.142288
  20
1787.909546
  40
0.250000
  50
0.000000
  1
# 48
  7
STANDARD
  0
POINT
  8
2
  10
65.031891
  20
1787.909546
  0
POINT
  8
2
  10
62.778687
  20
1784.277344
  0
POINT
  8
2
  10
61.142288
  20
1787.909546
  0
POLYLINE
  8
85
  66
1
  70
0
  250
1
  0
VERTEX
  8
85
  10
65.031891
  20
1787.909546
  0
VERTEX
  8
85
  10
62.778687
  20
1784.277344
  0
VERTEX
  8
85
  10
62.778687
  20
1784.277344
  0
VERTEX
  8
85
  10
61.142288
  20
1787.909546
  0
VERTEX
  8
85
  10
61.142288
  20
1787.909546
  0
SEQEND
  0
TEXT
  8
85
  10
61.142288
  20
1787.909546
  40
0.250000
  50
0.000000
  1
# 48
  7
STANDARD
  0
POINT
  8
2
  10
65.031891
  20
1787.909546
  0
POINT
  8
2
  10
62.778687
  20
1784.277344
  0
POINT
  8
2
  10
61.142288
  20
1787.909546
  0
POLYLINE
  8
14
  66
1
  70
1
  250
0
  0
VERTEX
  8
14
  10
148.016083
  20
1631.391113
  0
VERTEX
  8
14
  10
122.538513
  20
1632.824585
  0
VERTEX
  8
14
  10
97.156387
  20
1635.506104
  0
VERTEX
  8
14
  10
75.063644
  20
1682.805786
  0
VERTEX
  8
14
  10
53.695923
  20
1789.206909
  0
VERTEX
  8
14
  10
72.481766
  20
1794.234741
  0
VERTEX
  8
14
  10
129.088257
  20
1820.032349
  0
VERTEX
  8
14
  10
142.737610
  20
1841.931152
  0
VERTEX
  8
14
  10
143.837616
  20
1847.592529
  0
VERTEX
  8
14
  10
132.032257
  20
1893.380493
  0
VERTEX
  8
14
  10
109.814453
  20
2017.219116
  0
VERTEX
  8
14
  10
216.216599
  20
2015.417114
  0
VERTEX
  8
14
  10
284.908356
  20
1992.550415
  0
VERTEX
  8
14
  10
367.132996
  20
1900.602539
  0
VERTEX
  8
14
  10
361.049194
  20
1772.887817
  0
VERTEX
  8
14
  10
343.591583
  20
1674.019531
  0
VERTEX
  8
14
  10
276.858429
  20
1673.880737
  0
VERTEX
  8
14
  10
201.693146
  20
1637.998169
  0
SEQEND
  0
TEXT
  8
14
  10
148.016083
  20
1631.391113
  40
0.250000
  50
0.000000
  1
# 103
  7
STANDARD
  0
TEXT
  8
14
  10
97.156387
  20
1635.506104
  40
0.250000
  50
0.000000
  1
# 104
  7
STANDARD
  0
TEXT
  8
14
  10
53.695923
  20
1789.206909
  40
0.250000
  50
0.000000
  1
# 105
  7
STANDARD
  0
TEXT
  8
14
  10
142.737610
  20
1841.931152
  40
0.250000
  50
0.000000
  1
# 106
  7
STANDARD
  0
TEXT
  8
14
  10
109.814453
  20
2017.219116
  40
0.250000
  50
0.000000
  1
# 107
  7
STANDARD
  0
TEXT
  8
14
  10
343.591583
  20
1674.019531
  40
0.250000
  50
0.000000
  1
# 108
  7
STANDARD
  0
POINT
  8
2
  10
148.016083
  20
1631.391113
  0
POINT
  8
2
  10
97.156387
  20
1635.506104
  0
POINT
  8
2
  10
53.695923
  20
1789.206909
  0
POINT
  8
2
  10
142.737610
  20
1841.931152
  0
POINT
  8
2
  10
109.814453
  20
2017.219116
  0
POINT
  8
2
  10
343.591583
  20
1674.019531
  0
POINT
  8
3
  10
122.538513
  20
1632.824585
  0
POINT
  8
3
  10
75.063644
  20
1682.805786
  0
POINT
  8
3
  10
72.481766
  20
1794.234741
  0
POINT
  8
3
  10
129.088257
  20
1820.032349
  0
POINT
  8
3
  10
143.837616
  20
1847.592529
  0
POINT
  8
3
  10
132.032257
  20
1893.380493
  0
POINT
  8
3
  10
216.216599
  20
2015.417114
  0
POINT
  8
3
  10
284.908356
  20
1992.550415
  0
POINT
  8
3
  10
367.132996
  20
1900.602539
  0
POINT
  8
3
  10
361.049194
  20
1772.887817
  0
POINT
  8
3
  10
276.858429
  20
1673.880737
  0
POINT
  8
3
  10
201.693146
  20
1637.998169
  0
POLYLINE
  8
87
  66
1
  70
1
  250
1
  0
VERTEX
  8
87
  10
148.016083
  20
1631.391113
  0
VERTEX
  8
87
  10
122.538513
  20
1632.824585
  0
VERTEX
  8
87
  10
97.156387
  20
1635.506104
  0
VERTEX
  8
87
  10
97.156387
  20
1635.506104
  0
VERTEX
  8
87
  10
75.063644
  20
1682.805786
  0
VERTEX
  8
87
  10
53.695923
  20
1789.206909
  0
VERTEX
  8
87
  10
53.695923
  20
1789.206909
  0
VERTEX
  8
87
  10
72.481766
  20
1794.234741
  0
VERTEX
  8
87
  10
129.088257
  20
1820.032349
  0
VERTEX
  8
87
  10
142.737610
  20
1841.931152
  0
VERTEX
  8
87
  10
142.737610
  20
1841.931152
  0
VERTEX
  8
87
  10
143.837616
  20
1847.592529
  0
VERTEX
  8
87
  10
132.032257
  20
1893.380493
  0
VERTEX
  8
87
  10
109.814453
  20
2017.219116
  0
VERTEX
  8
87
  10
109.814453
  20
2017.219116
  0
VERTEX
  8
87
  10
216.216599
  20
2015.417114
  0
VERTEX
  8
87
  10
284.908356
  20
1992.550415
  0
VERTEX
  8
87
  10
367.132996
  20
1900.602539
  0
VERTEX
  8
87
  10
361.049194
  20
1772.887817
  0
VERTEX
  8
87
  10
343.591583
  20
1674.019531
  0
VERTEX
  8
87
  10
343.591583
  20
1674.019531
  0
VERTEX
  8
87
  10
276.858429
  20
1673.880737
  0
VERTEX
  8
87
  10
201.693146
  20
1637.998169
  0
VERTEX
  8
87
  10
148.016083
  20
1631.391113
  0
SEQEND
  0
POINT
  8
2
  10
148.016083
  20
1631.391113
  0
POINT
  8
2
  10
97.156387
  20
1635.506104
  0
POINT
  8
2
  10
53.695923
  20
1789.206909
  0
POINT
  8
2
  10
142.737610
  20
1841.931152
  0
POINT
  8
2
  10
109.814453
  20
2017.219116
  0
POINT
  8
2
  10
343.591583
  20
1674.019531
  0
POINT
  8
3
  10
122.538513
  20
1632.824585
  0
POINT
  8
3
  10
75.063644
  20
1682.805786
  0
POINT
  8
3
  10
72.481766
  20
1794.234741
  0
POINT
  8
3
  10
129.088257
  20
1820.032349
  0
POINT
  8
3
  10
143.837616
  20
1847.592529
  0
POINT
  8
3
  10
132.032257
  20
1893.380493
  0
POINT
  8
3
  10
216.216599
  20
2015.417114
  0
POINT
  8
3
  10
284.908356
  20
1992.550415
  0
POINT
  8
3
  10
367.132996
  20
1900.602539
  0
POINT
  8
3
  10
361.049194
  20
1772.887817
  0
POINT
  8
3
  10
276.858429
  20
1673.880737
  0
POINT
  8
3
  10
201.693146
  20
1637.998169
  0
POLYLINE
  8
8
  66
1
  70
0
  250
0
  0
VERTEX
  8
8
  10
142.737640
  20
1841.931274
  0
VERTEX
  8
8
  10
156.696228
  20
1728.656738
  0
VERTEX
  8
8
  10
148.016113
  20
1631.391235
  0
SEQEND
  0
TEXT
  8
8
  10
142.737640
  20
1841.931274
  40
0.250000
  50
0.000000
  1
# 44
  7
STANDARD
  0
TEXT
  8
8
  10
148.016113
  20
1631.391235
  40
0.250000
  50
0.000000
  1
# 45
  7
STANDARD
  0
POINT
  8
2
  10
142.737640
  20
1841.931274
  0
POINT
  8
2
  10
148.016113
  20
1631.391235
  0
POINT
  8
3
  10
156.696228
  20
1728.656738
  0
POLYLINE
  8
85
  66
1
  70
0
  250
1
  0
VERTEX
  8
85
  10
142.737640
  20
1841.931274
  0
VERTEX
  8
85
  10
156.696228
  20
1728.656738
  0
VERTEX
  8
85
  10
148.016113
  20
1631.391235
  0
VERTEX
  8
85
  10
148.016113
  20
1631.391235
  0
SEQEND
  0
TEXT
  8
85
  10
148.016113
  20
1631.391235
  40
0.250000
  50
0.000000
  1
# 45
  7
STANDARD
  0
POINT
  8
2
  10
142.737640
  20
1841.931274
  0
POINT
  8
2
  10
148.016113
  20
1631.391235
  0
POINT
  8
3
  10
156.696228
  20
1728.656738
  0
POLYLINE
  8
8
  66
1
  70
0
  250
0
  0
VERTEX
  8
8
  10
148.016098
  20
1631.391235
  0
VERTEX
  8
8
  10
147.104050
  20
1728.477417
  0
VERTEX
  8
8
  10
142.737671
  20
1841.931274
  0
SEQEND
  0
TEXT
  8
8
  10
148.016098
  20
1631.391235
  40
0.250000
  50
0.000000
  1
# 41
  7
STANDARD
  0
TEXT
  8
8
  10
142.737671
  20
1841.931274
  40
0.250000
  50
0.000000
  1
# 42
  7
STANDARD
  0
POINT
  8
2
  10
148.016098
  20
1631.391235
  0
POINT
  8
2
  10
142.737671
  20
1841.931274
  0
POINT
  8
3
  10
147.104050
  20
1728.477417
  0
POLYLINE
  8
85
  66
1
  70
0
  250
1
  0
VERTEX
  8
85
  10
148.016098
  20
1631.391235
  0
VERTEX
  8
85
  10
147.104050
  20
1728.477417
  0
VERTEX
  8
85
  10
142.737671
  20
1841.931274
  0
VERTEX
  8
85
  10
142.737671
  20
1841.931274
  0
SEQEND
  0
TEXT
  8
85
  10
142.737671
  20
1841.931274
  40
0.250000
  50
0.000000
  1
# 42
  7
STANDARD
  0
POINT
  8
2
  10
148.016098
  20
1631.391235
  0
POINT
  8
2
  10
142.737671
  20
1841.931274
  0
POINT
  8
3
  10
147.104050
  20
1728.477417
  0
TEXT
  8
1
  10
213.320923
  20
1825.252441
  50
0.000000
  51
0.000000
  71
0.000000
  1
PIECE NAME: Pattern_6774333
  7
STANDARD
  0
TEXT
  8
1
  10
213.320923
  20
1820.252441
  50
0.000000
  51
0.000000
  71
0.000000
  1
SIZE: M
  7
STANDARD
  0
TEXT
  8
1
  10
213.320923
  20
1810.252441
  50
0.000000
  51
0.000000
  71
0.000000
  1
QUANTITY: 1
  7
STANDARD
  0
ENDBLK
  0
BLOCK
  8
0
  2
Pattern_4025563_M
  70
64
  10
0
  20
0
  0
POLYLINE
  8
1
  66
1
  70
1
  250
2
  0
VERTEX
  8
1
  10
-661.535767
  20
936.707520
  0
VERTEX
  8
1
  10
-418.781982
  20
936.707642
  0
VERTEX
  8
1
  10
-418.782104
  20
1369.729858
  0
VERTEX
  8
1
  10
-462.517181
  20
1372.974854
  0
VERTEX
  8
1
  10
-516.602783
  20
1456.690552
  0
VERTEX
  8
1
  10
-590.138977
  20
1634.123657
  0
VERTEX
  8
1
  10
-613.936523
  20
1631.810791
  0
VERTEX
  8
1
  10
-661.535767
  20
1631.969116
  0
VERTEX
  8
1
  10
-709.135254
  20
1631.810913
  0
VERTEX
  8
1
  10
-732.932861
  20
1634.123657
  0
VERTEX
  8
1
  10
-806.468872
  20
1456.690552
  0
VERTEX
  8
1
  10
-860.554443
  20
1372.974854
  0
VERTEX
  8
1
  10
-904.289673
  20
1369.729858
  0
VERTEX
  8
1
  10
-904.289612
  20
936.707520
  0
SEQEND
  0
TEXT
  8
1
  10
-661.535767
  20
936.707520
  40
0.250000
  50
0.000000
  1
# 32
  7
STANDARD
  0
TEXT
  8
1
  10
-418.781982
  20
936.707642
  40
0.250000
  50
0.000000
  1
# 33
  7
STANDARD
  0
TEXT
  8
1
  10
-418.782104
  20
1369.729858
  40
0.250000
  50
0.000000
  1
# 34
  7
STANDARD
  0
TEXT
  8
1
  10
-590.138977
  20
1634.123657
  40
0.250000
  50
0.000000
  1
# 35
  7
STANDARD
  0
TEXT
  8
1
  10
-661.535767
  20
1631.969116
  40
0.250000
  50
0.000000
  1
# 36
  7
STANDARD
  0
TEXT
  8
1
  10
-732.932861
  20
1634.123657
  40
0.250000
  50
0.000000
  1
# 37
  7
STANDARD
  0
TEXT
  8
1
  10
-904.289673
  20
1369.729858
  40
0.250000
  50
0.000000
  1
# 38
  7
STANDARD
  0
TEXT
  8
1
  10
-904.289612
  20
936.707520
  40
0.250000
  50
0.000000
  1
# 39
  7
STANDARD
  0
POINT
  8
2
  10
-661.535767
  20
936.707520
  0
POINT
  8
2
  10
-418.781982
  20
936.707642
  0
POINT
  8
2
  10
-418.782104
  20
1369.729858
  0
POINT
  8
2
  10
-590.138977
  20
1634.123657
  0
POINT
  8
2
  10
-661.535767
  20
1631.969116
  0
POINT
  8
2
  10
-732.932861
  20
1634.123657
  0
POINT
  8
2
  10
-904.289673
  20
1369.729858
  0
POINT
  8
2
  10
-904.289612
  20
936.707520
  0
POINT
  8
3
  10
-462.517181
  20
1372.974854
  0
POINT
  8
3
  10
-516.602783
  20
1456.690552
  0
POINT
  8
3
  10
-613.936523
  20
1631.810791
  0
POINT
  8
3
  10
-709.135254
  20
1631.810913
  0
POINT
  8
3
  10
-806.468872
  20
1456.690552
  0
POINT
  8
3
  10
-860.554443
  20
1372.974854
  0
POLYLINE
  8
84
  66
1
  70
1
  250
2
  0
VERTEX
  8
84
  10
-661.535767
  20
936.707520
  0
VERTEX
  8
84
  10
-418.781982
  20
936.707642
  0
VERTEX
  8
84
  10
-418.781982
  20
936.707642
  0
VERTEX
  8
84
  10
-418.782104
  20
1369.729858
  0
VERTEX
  8
84
  10
-418.782104
  20
1369.729858
  0
VERTEX
  8
84
  10
-462.517181
  20
1372.974854
  0
VERTEX
  8
84
  10
-516.602783
  20
1456.690552
  0
VERTEX
  8
84
  10
-590.138977
  20
1634.123657
  0
VERTEX
  8
84
  10
-590.138977
  20
1634.123657
  0
VERTEX
  8
84
  10
-613.936523
  20
1631.810791
  0
VERTEX
  8
84
  10
-661.535767
  20
1631.969116
  0
VERTEX
  8
84
  10
-661.535767
  20
1631.969116
  0
VERTEX
  8
84
  10
-709.135254
  20
1631.810913
  0
VERTEX
  8
84
  10
-732.932861
  20
1634.123657
  0
VERTEX
  8
84
  10
-732.932861
  20
1634.123657
  0
VERTEX
  8
84
  10
-806.468872
  20
1456.690552
  0
VERTEX
  8
84
  10
-860.554443
  20
1372.974854
  0
VERTEX
  8
84
  10
-904.289673
  20
1369.729858
  0
VERTEX
  8
84
  10
-904.289673
  20
1369.729858
  0
VERTEX
  8
84
  10
-904.289612
  20
936.707520
  0
VERTEX
  8
84
  10
-904.289612
  20
936.707520
  0
VERTEX
  8
84
  10
-661.535767
  20
936.707520
  0
SEQEND
  0
POINT
  8
2
  10
-661.535767
  20
936.707520
  0
POINT
  8
2
  10
-418.781982
  20
936.707642
  0
POINT
  8
2
  10
-418.782104
  20
1369.729858
  0
POINT
  8
2
  10
-590.138977
  20
1634.123657
  0
POINT
  8
2
  10
-661.535767
  20
1631.969116
  0
POINT
  8
2
  10
-732.932861
  20
1634.123657
  0
POINT
  8
2
  10
-904.289673
  20
1369.729858
  0
POINT
  8
2
  10
-904.289612
  20
936.707520
  0
POINT
  8
3
  10
-462.517181
  20
1372.974854
  0
POINT
  8
3
  10
-516.602783
  20
1456.690552
  0
POINT
  8
3
  10
-613.936523
  20
1631.810791
  0
POINT
  8
3
  10
-709.135254
  20
1631.810913
  0
POINT
  8
3
  10
-806.468872
  20
1456.690552
  0
POINT
  8
3
  10
-860.554443
  20
1372.974854
  0
LINE
  8
7
  10
-661.535828
  20
1195.415527
  11
-661.535828
  21
1375.415527
  0
POLYLINE
  8
8
  66
1
  70
0
  250
1
  0
VERTEX
  8
8
  10
-661.535767
  20
946.707520
  0
VERTEX
  8
8
  10
-418.781982
  20
946.707642
  0
SEQEND
  0
TEXT
  8
8
  10
-661.535767
  20
946.707520
  40
0.250000
  50
0.000000
  1
# 24
  7
STANDARD
  0
TEXT
  8
8
  10
-418.781982
  20
946.707642
  40
0.250000
  50
0.000000
  1
# 25
  7
STANDARD
  0
POINT
  8
2
  10
-661.535767
  20
946.707520
  0
POINT
  8
2
  10
-418.781982
  20
946.707642
  0
POLYLINE
  8
85
  66
1
  70
0
  250
1
  0
VERTEX
  8
85
  10
-661.535767
  20
946.707520
  0
VERTEX
  8
85
  10
-418.781982
  20
946.707642
  0
VERTEX
  8
85
  10
-418.781982
  20
946.707642
  0
SEQEND
  0
TEXT
  8
85
  10
-418.781982
  20
946.707642
  40
0.250000
  50
0.000000
  1
# 25
  7
STANDARD
  0
POINT
  8
2
  10
-661.535767
  20
946.707520
  0
POINT
  8
2
  10
-418.781982
  20
946.707642
  0
POLYLINE
  8
8
  66
1
  70
0
  250
1
  0
VERTEX
  8
8
  10
-661.535767
  20
946.707520
  0
VERTEX
  8
8
  10
-904.289551
  20
946.707642
  0
SEQEND
  0
TEXT
  8
8
  10
-661.535767
  20
946.707520
  40
0.250000
  50
0.000000
  1
# 22
  7
STANDARD
  0
TEXT
  8
8
  10
-904.289551
  20
946.707642
  40
0.250000
  50
0.000000
  1
# 23
  7
STANDARD
  0
POINT
  8
2
  10
-661.535767
  20
946.707520
  0
POINT
  8
2
  10
-904.289551
  20
946.707642
  0
POLYLINE
  8
85
  66
1
  70
0
  250
1
  0
VERTEX
  8
85
  10
-661.535767
  20
946.707520
  0
VERTEX
  8
85
  10
-904.289551
  20
946.707642
  0
VERTEX
  8
85
  10
-904.289551
  20
946.707642
  0
SEQEND
  0
TEXT
  8
85
  10
-904.289551
  20
946.707642
  40
0.250000
  50
0.000000
  1
# 23
  7
STANDARD
  0
POINT
  8
2
  10
-661.535767
  20
946.707520
  0
POINT
  8
2
  10
-904.289551
  20
946.707642
  0
POLYLINE
  8
14
  66
1
  70
1
  250
0
  0
VERTEX
  8
14
  10
-661.535767
  20
936.707520
  0
VERTEX
  8
14
  10
-418.781982
  20
936.707642
  0
VERTEX
  8
14
  10
-418.782104
  20
1369.729858
  0
VERTEX
  8
14
  10
-462.517181
  20
1372.974854
  0
VERTEX
  8
14
  10
-516.602783
  20
1456.690552
  0
VERTEX
  8
14
  10
-590.138977
  20
1634.123657
  0
VERTEX
  8
14
  10
-613.936523
  20
1631.810791
  0
VERTEX
  8
14
  10
-661.535767
  20
1631.969116
  0
VERTEX
  8
14
  10
-709.135254
  20
1631.810913
  0
VERTEX
  8
14
  10
-732.932861
  20
1634.123657
  0
VERTEX
  8
14
  10
-806.468872
  20
1456.690552
  0
VERTEX
  8
14
  10
-860.554443
  20
1372.974854
  0
VERTEX
  8
14
  10
-904.289673
  20
1369.729858
  0
VERTEX
  8
14
  10
-904.289612
  20
936.707520
  0
SEQEND
  0
TEXT
  8
14
  10
-661.535767
  20
936.707520
  40
0.250000
  50
0.000000
  1
# 32
  7
STANDARD
  0
TEXT
  8
14
  10
-418.781982
  20
936.707642
  40
0.250000
  50
0.000000
  1
# 33
  7
STANDARD
  0
TEXT
  8
14
  10
-418.782104
  20
1369.729858
  40
0.250000
  50
0.000000
  1
# 34
  7
STANDARD
  0
TEXT
  8
14
  10
-590.138977
  20
1634.123657
  40
0.250000
  50
0.000000
  1
# 35
  7
STANDARD
  0
TEXT
  8
14
  10
-661.535767
  20
1631.969116
  40
0.250000
  50
0.000000
  1
# 36
  7
STANDARD
  0
TEXT
  8
14
  10
-732.932861
  20
1634.123657
  40
0.250000
  50
0.000000
  1
# 37
  7
STANDARD
  0
TEXT
  8
14
  10
-904.289673
  20
1369.729858
  40
0.250000
  50
0.000000
  1
# 38
  7
STANDARD
  0
TEXT
  8
14
  10
-904.289612
  20
936.707520
  40
0.250000
  50
0.000000
  1
# 39
  7
STANDARD
  0
POINT
  8
2
  10
-661.535767
  20
936.707520
  0
POINT
  8
2
  10
-418.781982
  20
936.707642
  0
POINT
  8
2
  10
-418.782104
  20
1369.729858
  0
POINT
  8
2
  10
-590.138977
  20
1634.123657
  0
POINT
  8
2
  10
-661.535767
  20
1631.969116
  0
POINT
  8
2
  10
-732.932861
  20
1634.123657
  0
POINT
  8
2
  10
-904.289673
  20
1369.729858
  0
POINT
  8
2
  10
-904.289612
  20
936.707520
  0
POINT
  8
3
  10
-462.517181
  20
1372.974854
  0
POINT
  8
3
  10
-516.602783
  20
1456.690552
  0
POINT
  8
3
  10
-613.936523
  20
1631.810791
  0
POINT
  8
3
  10
-709.135254
  20
1631.810913
  0
POINT
  8
3
  10
-806.468872
  20
1456.690552
  0
POINT
  8
3
  10
-860.554443
  20
1372.974854
  0
POLYLINE
  8
87
  66
1
  70
1
  250
1
  0
VERTEX
  8
87
  10
-661.535767
  20
936.707520
  0
VERTEX
  8
87
  10
-418.781982
  20
936.707642
  0
VERTEX
  8
87
  10
-418.781982
  20
936.707642
  0
VERTEX
  8
87
  10
-418.782104
  20
1369.729858
  0
VERTEX
  8
87
  10
-418.782104
  20
1369.729858
  0
VERTEX
  8
87
  10
-462.517181
  20
1372.974854
  0
VERTEX
  8
87
  10
-516.602783
  20
1456.690552
  0
VERTEX
  8
87
  10
-590.138977
  20
1634.123657
  0
VERTEX
  8
87
  10
-590.138977
  20
1634.123657
  0
VERTEX
  8
87
  10
-613.936523
  20
1631.810791
  0
VERTEX
  8
87
  10
-661.535767
  20
1631.969116
  0
VERTEX
  8
87
  10
-661.535767
  20
1631.969116
  0
VERTEX
  8
87
  10
-709.135254
  20
1631.810913
  0
VERTEX
  8
87
  10
-732.932861
  20
1634.123657
  0
VERTEX
  8
87
  10
-732.932861
  20
1634.123657
  0
VERTEX
  8
87
  10
-806.468872
  20
1456.690552
  0
VERTEX
  8
87
  10
-860.554443
  20
1372.974854
  0
VERTEX
  8
87
  10
-904.289673
  20
1369.729858
  0
VERTEX
  8
87
  10
-904.289673
  20
1369.729858
  0
VERTEX
  8
87
  10
-904.289612
  20
936.707520
  0
VERTEX
  8
87
  10
-904.289612
  20
936.707520
  0
VERTEX
  8
87
  10
-661.535767
  20
936.707520
  0
SEQEND
  0
POINT
  8
2
  10
-661.535767
  20
936.707520
  0
POINT
  8
2
  10
-418.781982
  20
936.707642
  0
POINT
  8
2
  10
-418.782104
  20
1369.729858
  0
POINT
  8
2
  10
-590.138977
  20
1634.123657
  0
POINT
  8
2
  10
-661.535767
  20
1631.969116
  0
POINT
  8
2
  10
-732.932861
  20
1634.123657
  0
POINT
  8
2
  10
-904.289673
  20
1369.729858
  0
POINT
  8
2
  10
-904.289612
  20
936.707520
  0
POINT
  8
3
  10
-462.517181
  20
1372.974854
  0
POINT
  8
3
  10
-516.602783
  20
1456.690552
  0
POINT
  8
3
  10
-613.936523
  20
1631.810791
  0
POINT
  8
3
  10
-709.135254
  20
1631.810913
  0
POINT
  8
3
  10
-806.468872
  20
1456.690552
  0
POINT
  8
3
  10
-860.554443
  20
1372.974854
  0
POLYLINE
  8
8
  66
1
  70
0
  250
0
  0
VERTEX
  8
8
  10
-661.535889
  20
1631.969116
  0
VERTEX
  8
8
  10
-661.535828
  20
936.707642
  0
SEQEND
  0
TEXT
  8
8
  10
-661.535889
  20
1631.969116
  40
0.250000
  50
0.000000
  1
# 20
  7
STANDARD
  0
TEXT
  8
8
  10
-661.535828
  20
936.707642
  40
0.250000
  50
0.000000
  1
# 21
  7
STANDARD
  0
POINT
  8
2
  10
-661.535889
  20
1631.969116
  0
POINT
  8
2
  10
-661.535828
  20
936.707642
  0
POLYLINE
  8
85
  66
1
  70
0
  250
1
  0
VERTEX
  8
85
  10
-661.535889
  20
1631.969116
  0
VERTEX
  8
85
  10
-661.535828
  20
936.707642
  0
VERTEX
  8
85
  10
-661.535828
  20
936.707642
  0
SEQEND
  0
TEXT
  8
85
  10
-661.535828
  20
936.707642
  40
0.250000
  50
0.000000
  1
# 21
  7
STANDARD
  0
POINT
  8
2
  10
-661.535889
  20
1631.969116
  0
POINT
  8
2
  10
-661.535828
  20
936.707642
  0
POLYLINE
  8
8
  66
1
  70
0
  250
0
  0
VERTEX
  8
8
  10
-661.535645
  20
1631.969116
  0
VERTEX
  8
8
  10
-661.535706
  20
936.707642
  0
SEQEND
  0
TEXT
  8
8
  10
-661.535645
  20
1631.969116
  40
0.250000
  50
0.000000
  1
# 18
  7
STANDARD
  0
TEXT
  8
8
  10
-661.535706
  20
936.707642
  40
0.250000
  50
0.000000
  1
# 19
  7
STANDARD
  0
POINT
  8
2
  10
-661.535645
  20
1631.969116
  0
POINT
  8
2
  10
-661.535706
  20
936.707642
  0
POLYLINE
  8
85
  66
1
  70
0
  250
1
  0
VERTEX
  8
85
  10
-661.535645
  20
1631.969116
  0
VERTEX
  8
85
  10
-661.535706
  20
936.707642
  0
VERTEX
  8
85
  10
-661.535706
  20
936.707642
  0
SEQEND
  0
TEXT
  8
85
  10
-661.535706
  20
936.707642
  40
0.250000
  50
0.000000
  1
# 19
  7
STANDARD
  0
POINT
  8
2
  10
-661.535645
  20
1631.969116
  0
POINT
  8
2
  10
-661.535706
  20
936.707642
  0
TEXT
  8
1
  10
-661.535828
  20
1285.415527
  50
0.000000
  51
0.000000
  71
0.000000
  1
PIECE NAME: Pattern_4025563
  7
STANDARD
  0
TEXT
  8
1
  10
-661.535828
  20
1280.415527
  50
0.000000
  51
0.000000
  71
0.000000
  1
SIZE: M
  7
STANDARD
  0
TEXT
  8
1
  10
-661.535828
  20
1270.415527
  50
0.000000
  51
0.000000
  71
0.000000
  1
QUANTITY: 1
  7
STANDARD
  0
ENDBLK
  0
BLOCK
  8
0
  2
Pattern_10325800_M
  70
64
  10
0
  20
0
  0
POLYLINE
  8
1
  66
1
  70
1
  250
2
  0
VERTEX
  8
1
  10
355.609161
  20
1191.307007
  0
VERTEX
  8
1
  10
355.609161
  20
1427.413940
  0
VERTEX
  8
1
  10
345.609192
  20
1437.413940
  0
VERTEX
  8
1
  10
335.609161
  20
1427.413940
  0
VERTEX
  8
1
  10
335.609161
  20
1191.307007
  0
VERTEX
  8
1
  10
345.609161
  20
1181.307007
  0
SEQEND
  0
TEXT
  8
1
  10
355.609161
  20
1191.307007
  40
0.250000
  50
0.000000
  1
# 14
  7
STANDARD
  0
TEXT
  8
1
  10
355.609161
  20
1427.413940
  40
0.250000
  50
0.000000
  1
# 15
  7
STANDARD
  0
TEXT
  8
1
  10
335.609161
  20
1427.413940
  40
0.250000
  50
0.000000
  1
# 16
  7
STANDARD
  0
TEXT
  8
1
  10
335.609161
  20
1191.307007
  40
0.250000
  50
0.000000
  1
# 17
  7
STANDARD
  0
POINT
  8
2
  10
355.609161
  20
1191.307007
  0
POINT
  8
2
  10
355.609161
  20
1427.413940
  0
POINT
  8
2
  10
335.609161
  20
1427.413940
  0
POINT
  8
2
  10
335.609161
  20
1191.307007
  0
POINT
  8
3
  10
345.609192
  20
1437.413940
  0
POINT
  8
3
  10
345.609161
  20
1181.307007
  0
POLYLINE
  8
84
  66
1
  70
1
  250
2
  0
VERTEX
  8
84
  10
355.609161
  20
1191.307007
  0
VERTEX
  8
84
  10
355.609161
  20
1427.413940
  0
VERTEX
  8
84
  10
355.609161
  20
1427.413940
  0
VERTEX
  8
84
  10
345.609192
  20
1437.413940
  0
VERTEX
  8
84
  10
335.609161
  20
1427.413940
  0
VERTEX
  8
84
  10
335.609161
  20
1427.413940
  0
VERTEX
  8
84
  10
335.609161
  20
1191.307007
  0
VERTEX
  8
84
  10
335.609161
  20
1191.307007
  0
VERTEX
  8
84
  10
345.609161
  20
1181.307007
  0
VERTEX
  8
84
  10
355.609161
  20
1191.307007
  0
SEQEND
  0
POINT
  8
2
  10
355.609161
  20
1191.307007
  0
POINT
  8
2
  10
355.609161
  20
1427.413940
  0
POINT
  8
2
  10
335.609161
  20
1427.413940
  0
POINT
  8
2
  10
335.609161
  20
1191.307007
  0
POINT
  8
3
  10
345.609192
  20
1437.413940
  0
POINT
  8
3
  10
345.609161
  20
1181.307007
  0
LINE
  8
7
  10
345.609161
  20
1219.360474
  11
345.609161
  21
1399.360474
  0
POLYLINE
  8
14
  66
1
  70
1
  250
0
  0
VERTEX
  8
14
  10
355.609161
  20
1191.307007
  0
VERTEX
  8
14
  10
355.609161
  20
1427.413940
  0
VERTEX
  8
14
  10
345.609192
  20
1437.413940
  0
VERTEX
  8
14
  10
335.609161
  20
1427.413940
  0
VERTEX
  8
14
  10
335.609161
  20
1191.307007
  0
VERTEX
  8
14
  10
345.609161
  20
1181.307007
  0
SEQEND
  0
TEXT
  8
14
  10
355.609161
  20
1191.307007
  40
0.250000
  50
0.000000
  1
# 14
  7
STANDARD
  0
TEXT
  8
14
  10
355.609161
  20
1427.413940
  40
0.250000
  50
0.000000
  1
# 15
  7
STANDARD
  0
TEXT
  8
14
  10
335.609161
  20
1427.413940
  40
0.250000
  50
0.000000
  1
# 16
  7
STANDARD
  0
TEXT
  8
14
  10
335.609161
  20
1191.307007
  40
0.250000
  50
0.000000
  1
# 17
  7
STANDARD
  0
POINT
  8
2
  10
355.609161
  20
1191.307007
  0
POINT
  8
2
  10
355.609161
  20
1427.413940
  0
POINT
  8
2
  10
335.609161
  20
1427.413940
  0
POINT
  8
2
  10
335.609161
  20
1191.307007
  0
POINT
  8
3
  10
345.609192
  20
1437.413940
  0
POINT
  8
3
  10
345.609161
  20
1181.307007
  0
POLYLINE
  8
87
  66
1
  70
1
  250
1
  0
VERTEX
  8
87
  10
355.609161
  20
1191.307007
  0
VERTEX
  8
87
  10
355.609161
  20
1427.413940
  0
VERTEX
  8
87
  10
355.609161
  20
1427.413940
  0
VERTEX
  8
87
  10
345.609192
  20
1437.413940
  0
VERTEX
  8
87
  10
335.609161
  20
1427.413940
  0
VERTEX
  8
87
  10
335.609161
  20
1427.413940
  0
VERTEX
  8
87
  10
335.609161
  20
1191.307007
  0
VERTEX
  8
87
  10
335.609161
  20
1191.307007
  0
VERTEX
  8
87
  10
345.609161
  20
1181.307007
  0
VERTEX
  8
87
  10
355.609161
  20
1191.307007
  0
SEQEND
  0
POINT
  8
2
  10
355.609161
  20
1191.307007
  0
POINT
  8
2
  10
355.609161
  20
1427.413940
  0
POINT
  8
2
  10
335.609161
  20
1427.413940
  0
POINT
  8
2
  10
335.609161
  20
1191.307007
  0
POINT
  8
3
  10
345.609192
  20
1437.413940
  0
POINT
  8
3
  10
345.609161
  20
1181.307007
  0
TEXT
  8
1
  10
345.609161
  20
1309.360474
  50
0.000000
  51
0.000000
  71
0.000000
  1
PIECE NAME: Pattern_10325800
  7
STANDARD
  0
TEXT
  8
1
  10
345.609161
  20
1304.360474
  50
0.000000
  51
0.000000
  71
0.000000
  1
SIZE: M
  7
STANDARD
  0
TEXT
  8
1
  10
345.609161
  20
1294.360474
  50
0.000000
  51
0.000000
  71
0.000000
  1
QUANTITY: 1
  7
STANDARD
  0
ENDBLK
  0
BLOCK
  8
0
  2
Pattern_10325801_M
  70
64
  10
0
  20
0
  0
POLYLINE
  8
1
  66
1
  70
1
  250
2
  0
VERTEX
  8
1
  10
-331.450348
  20
1204.210205
  0
VERTEX
  8
1
  10
-331.450348
  20
1440.317139
  0
VERTEX
  8
1
  10
-321.450378
  20
1450.317139
  0
VERTEX
  8
1
  10
-311.450348
  20
1440.317139
  0
VERTEX
  8
1
  10
-311.450348
  20
1204.210205
  0
VERTEX
  8
1
  10
-321.450348
  20
1194.210205
  0
SEQEND
  0
TEXT
  8
1
  10
-331.450348
  20
1204.210205
  40
0.250000
  50
0.000000
  1
# 8
  7
STANDARD
  0
TEXT
  8
1
  10
-331.450348
  20
1440.317139
  40
0.250000
  50
0.000000
  1
# 9
  7
STANDARD
  0
TEXT
  8
1
  10
-311.450348
  20
1440.317139
  40
0.250000
  50
0.000000
  1
# 10
  7
STANDARD
  0
TEXT
  8
1
  10
-311.450348
  20
1204.210205
  40
0.250000
  50
0.000000
  1
# 11
  7
STANDARD
  0
POINT
  8
2
  10
-331.450348
  20
1204.210205
  0
POINT
  8
2
  10
-331.450348
  20
1440.317139
  0
POINT
  8
2
  10
-311.450348
  20
1440.317139
  0
POINT
  8
2
  10
-311.450348
  20
1204.210205
  0
POINT
  8
3
  10
-321.450378
  20
1450.317139
  0
POINT
  8
3
  10
-321.450348
  20
1194.210205
  0
POLYLINE
  8
84
  66
1
  70
1
  250
2
  0
VERTEX
  8
84
  10
-331.450348
  20
1204.210205
  0
VERTEX
  8
84
  10
-331.450348
  20
1440.317139
  0
VERTEX
  8
84
  10
-331.450348
  20
1440.317139
  0
VERTEX
  8
84
  10
-321.450378
  20
1450.317139
  0
VERTEX
  8
84
  10
-311.450348
  20
1440.317139
  0
VERTEX
  8
84
  10
-311.450348
  20
1440.317139
  0
VERTEX
  8
84
  10
-311.450348
  20
1204.210205
  0
VERTEX
  8
84
  10
-311.450348
  20
1204.210205
  0
VERTEX
  8
84
  10
-321.450348
  20
1194.210205
  0
VERTEX
  8
84
  10
-331.450348
  20
1204.210205
  0
SEQEND
  0
POINT
  8
2
  10
-331.450348
  20
1204.210205
  0
POINT
  8
2
  10
-331.450348
  20
1440.317139
  0
POINT
  8
2
  10
-311.450348
  20
1440.317139
  0
POINT
  8
2
  10
-311.450348
  20
1204.210205
  0
POINT
  8
3
  10
-321.450378
  20
1450.317139
  0
POINT
  8
3
  10
-321.450348
  20
1194.210205
  0
LINE
  8
7
  10
-321.450348
  20
1232.263672
  11
-321.450348
  21
1412.263672
  0
POLYLINE
  8
14
  66
1
  70
1
  250
0
  0
VERTEX
  8
14
  10
-331.450348
  20
1204.210205
  0
VERTEX
  8
14
  10
-331.450348
  20
1440.317139
  0
VERTEX
  8
14
  10
-321.450378
  20
1450.317139
  0
VERTEX
  8
14
  10
-311.450348
  20
1440.317139
  0
VERTEX
  8
14
  10
-311.450348
  20
1204.210205
  0
VERTEX
  8
14
  10
-321.450348
  20
1194.210205
  0
SEQEND
  0
TEXT
  8
14
  10
-331.450348
  20
1204.210205
  40
0.250000
  50
0.000000
  1
# 8
  7
STANDARD
  0
TEXT
  8
14
  10
-331.450348
  20
1440.317139
  40
0.250000
  50
0.000000
  1
# 9
  7
STANDARD
  0
TEXT
  8
14
  10
-311.450348
  20
1440.317139
  40
0.250000
  50
0.000000
  1
# 10
  7
STANDARD
  0
TEXT
  8
14
  10
-311.450348
  20
1204.210205
  40
0.250000
  50
0.000000
  1
# 11
  7
STANDARD
  0
POINT
  8
2
  10
-331.450348
  20
1204.210205
  0
POINT
  8
2
  10
-331.450348
  20
1440.317139
  0
POINT
  8
2
  10
-311.450348
  20
1440.317139
  0
POINT
  8
2
  10
-311.450348
  20
1204.210205
  0
POINT
  8
3
  10
-321.450378
  20
1450.317139
  0
POINT
  8
3
  10
-321.450348
  20
1194.210205
  0
POLYLINE
  8
87
  66
1
  70
1
  250
1
  0
VERTEX
  8
87
  10
-331.450348
  20
1204.210205
  0
VERTEX
  8
87
  10
-331.450348
  20
1440.317139
  0
VERTEX
  8
87
  10
-331.450348
  20
1440.317139
  0
VERTEX
  8
87
  10
-321.450378
  20
1450.317139
  0
VERTEX
  8
87
  10
-311.450348
  20
1440.317139
  0
VERTEX
  8
87
  10
-311.450348
  20
1440.317139
  0
VERTEX
  8
87
  10
-311.450348
  20
1204.210205
  0
VERTEX
  8
87
  10
-311.450348
  20
1204.210205
  0
VERTEX
  8
87
  10
-321.450348
  20
1194.210205
  0
VERTEX
  8
87
  10
-331.450348
  20
1204.210205
  0
SEQEND
  0
POINT
  8
2
  10
-331.450348
  20
1204.210205
  0
POINT
  8
2
  10
-331.450348
  20
1440.317139
  0
POINT
  8
2
  10
-311.450348
  20
1440.317139
  0
POINT
  8
2
  10
-311.450348
  20
1204.210205
  0
POINT
  8
3
  10
-321.450378
  20
1450.317139
  0
POINT
  8
3
  10
-321.450348
  20
1194.210205
  0
TEXT
  8
1
  10
-321.450348
  20
1322.263672
  50
0.000000
  51
0.000000
  71
0.000000
  1
PIECE NAME: Pattern_10325801
  7
STANDARD
  0
TEXT
  8
1
  10
-321.450348
  20
1317.263672
  50
0.000000
  51
0.000000
  71
0.000000
  1
SIZE: M
  7
STANDARD
  0
TEXT
  8
1
  10
-321.450348
  20
1307.263672
  50
0.000000
  51
0.000000
  71
0.000000
  1
QUANTITY: 1
  7
STANDARD
  0
ENDBLK
  0
BLOCK
  8
0
  2
Pattern_10975116_M
  70
64
  10
0
  20
0
  0
POLYLINE
  8
1
  66
1
  70
1
  250
2
  0
VERTEX
  8
1
  10
-182.921448
  20
2353.334229
  0
VERTEX
  8
1
  10
-131.200623
  20
2171.247070
  0
VERTEX
  8
1
  10
58.939880
  20
2171.247070
  0
VERTEX
  8
1
  10
62.778625
  20
2355.528564
  0
SEQEND
  0
TEXT
  8
1
  10
-182.921448
  20
2353.334229
  40
0.250000
  50
0.000000
  1
# 2
  7
STANDARD
  0
TEXT
  8
1
  10
-131.200623
  20
2171.247070
  40
0.250000
  50
0.000000
  1
# 3
  7
STANDARD
  0
TEXT
  8
1
  10
58.939880
  20
2171.247070
  40
0.250000
  50
0.000000
  1
# 4
  7
STANDARD
  0
TEXT
  8
1
  10
62.778625
  20
2355.528564
  40
0.250000
  50
0.000000
  1
# 5
  7
STANDARD
  0
POINT
  8
2
  10
-182.921448
  20
2353.334229
  0
POINT
  8
2
  10
-131.200623
  20
2171.247070
  0
POINT
  8
2
  10
58.939880
  20
2171.247070
  0
POINT
  8
2
  10
62.778625
  20
2355.528564
  0
POLYLINE
  8
84
  66
1
  70
1
  250
2
  0
VERTEX
  8
84
  10
-182.921448
  20
2353.334229
  0
VERTEX
  8
84
  10
-131.200623
  20
2171.247070
  0
VERTEX
  8
84
  10
-131.200623
  20
2171.247070
  0
VERTEX
  8
84
  10
58.939880
  20
2171.247070
  0
VERTEX
  8
84
  10
58.939880
  20
2171.247070
  0
VERTEX
  8
84
  10
62.778625
  20
2355.528564
  0
VERTEX
  8
84
  10
62.778625
  20
2355.528564
  0
VERTEX
  8
84
  10
-182.921448
  20
2353.334229
  0
SEQEND
  0
POINT
  8
2
  10
-182.921448
  20
2353.334229
  0
POINT
  8
2
  10
-131.200623
  20
2171.247070
  0
POINT
  8
2
  10
58.939880
  20
2171.247070
  0
POINT
  8
2
  10
62.778625
  20
2355.528564
  0
LINE
  8
7
  10
-60.071411
  20
2173.387695
  11
-60.071411
  21
2353.387695
  0
POLYLINE
  8
8
  66
1
  70
0
  250
1
  0
VERTEX
  8
8
  10
-177.736816
  20
2353.380615
  0
VERTEX
  8
8
  10
-126.002930
  20
2171.247070
  0
SEQEND
  0
TEXT
  8
8
  10
-177.736816
  20
2353.380615
  40
0.250000
  50
0.000000
  1
# 0
  7
STANDARD
  0
TEXT
  8
8
  10
-126.002930
  20
2171.247070
  40
0.250000
  50
0.000000
  1
# 1
  7
STANDARD
  0
POINT
  8
2
  10
-177.736816
  20
2353.380615
  0
POINT
  8
2
  10
-126.002930
  20
2171.247070
  0
POLYLINE
  8
85
  66
1
  70
0
  250
1
  0
VERTEX
  8
85
  10
-177.736816
  20
2353.380615
  0
VERTEX
  8
85
  10
-126.002930
  20
2171.247070
  0
VERTEX
  8
85
  10
-126.002930
  20
2171.247070
  0
SEQEND
  0
TEXT
  8
85
  10
-126.002930
  20
2171.247070
  40
0.250000
  50
0.000000
  1
# 1
  7
STANDARD
  0
POINT
  8
2
  10
-177.736816
  20
2353.380615
  0
POINT
  8
2
  10
-126.002930
  20
2171.247070
  0
POLYLINE
  8
14
  66
1
  70
1
  250
0
  0
VERTEX
  8
14
  10
-182.921448
  20
2353.334229
  0
VERTEX
  8
14
  10
-131.200623
  20
2171.247070
  0
VERTEX
  8
14
  10
58.939880
  20
2171.247070
  0
VERTEX
  8
14
  10
62.778625
  20
2355.528564
  0
SEQEND
  0
TEXT
  8
14
  10
-182.921448
  20
2353.334229
  40
0.250000
  50
0.000000
  1
# 2
  7
STANDARD
  0
TEXT
  8
14
  10
-131.200623
  20
2171.247070
  40
0.250000
  50
0.000000
  1
# 3
  7
STANDARD
  0
TEXT
  8
14
  10
58.939880
  20
2171.247070
  40
0.250000
  50
0.000000
  1
# 4
  7
STANDARD
  0
TEXT
  8
14
  10
62.778625
  20
2355.528564
  40
0.250000
  50
0.000000
  1
# 5
  7
STANDARD
  0
POINT
  8
2
  10
-182.921448
  20
2353.334229
  0
POINT
  8
2
  10
-131.200623
  20
2171.247070
  0
POINT
  8
2
  10
58.939880
  20
2171.247070
  0
POINT
  8
2
  10
62.778625
  20
2355.528564
  0
POLYLINE
  8
87
  66
1
  70
1
  250
1
  0
VERTEX
  8
87
  10
-182.921448
  20
2353.334229
  0
VERTEX
  8
87
  10
-131.200623
  20
2171.247070
  0
VERTEX
  8
87
  10
-131.200623
  20
2171.247070
  0
VERTEX
  8
87
  10
58.939880
  20
2171.247070
  0
VERTEX
  8
87
  10
58.939880
  20
2171.247070
  0
VERTEX
  8
87
  10
62.778625
  20
2355.528564
  0
VERTEX
  8
87
  10
62.778625
  20
2355.528564
  0
VERTEX
  8
87
  10
-182.921448
  20
2353.334229
  0
SEQEND
  0
POINT
  8
2
  10
-182.921448
  20
2353.334229
  0
POINT
  8
2
  10
-131.200623
  20
2171.247070
  0
POINT
  8
2
  10
58.939880
  20
2171.247070
  0
POINT
  8
2
  10
62.778625
  20
2355.528564
  0
TEXT
  8
1
  10
-60.071411
  20
2263.387695
  50
0.000000
  51
0.000000
  71
0.000000
  1
PIECE NAME: Pattern_10975116
  7
STANDARD
  0
TEXT
  8
1
  10
-60.071411
  20
2258.387695
  50
0.000000
  51
0.000000
  71
0.000000
  1
SIZE: M
  7
STANDARD
  0
TEXT
  8
1
  10
-60.071411
  20
2248.387695
  50
0.000000
  51
0.000000
  71
0.000000
  1
QUANTITY: 1
  7
STANDARD
  0
ENDBLK
  0
ENDSEC
  0
SECTION
  2
ENTITIES
  0
INSERT
  8
1
  2
Pattern_4025560_M
  10
0.000000
  20
0.000000
  0
INSERT
  8
1
  2
Pattern_4025566_M
  10
0.000000
  20
0.000000
  0
INSERT
  8
1
  2
Pattern_4621378_M
  10
0.000000
  20
0.000000
  0
INSERT
  8
1
  2
Pattern_4621379_M
  10
0.000000
  20
0.000000
  0
INSERT
  8
1
  2
Pattern_6774331_M
  10
0.000000
  20
0.000000
  0
INSERT
  8
1
  2
Pattern_6774333_M
  10
0.000000
  20
0.000000
  0
INSERT
  8
1
  2
Pattern_4025563_M
  10
0.000000
  20
0.000000
  0
INSERT
  8
1
  2
Pattern_10325800_M
  10
0.000000
  20
0.000000
  0
INSERT
  8
1
  2
Pattern_10325801_M
  10
0.000000
  20
0.000000
  0
INSERT
  8
1
  2
Pattern_10975116_M
  10
0.000000
  20
0.000000
  0
TEXT
  8
1
  10
0.000000
  20
0.000000
  40
0.250000
  50
0.000000
  1
STYLE NAME: 123
  7
STANDARD
  0
TEXT
  8
1
  10
0.000000
  20
0.000000
  40
0.250000
  50
0.000000
  1
CREATION DATE: 28-04-2025
  7
STANDARD
  0
TEXT
  8
1
  10
0.000000
  20
0.000000
  40
0.250000
  50
0.000000
  1
CREATION TIME: 11:05
  7
STANDARD
  0
TEXT
  8
1
  10
0.000000
  20
0.000000
  40
0.250000
  50
0.000000
  1
AUTHOR: CLO Virtual Fashion Inc.
  7
STANDARD
  0
TEXT
  8
1
  10
0.000000
  20
0.000000
  40
0.250000
  50
0.000000
  1
PRODUCT: CLO Standalone OnlineAuth 2024.2.296
  7
STANDARD
  0
TEXT
  8
1
  10
0.000000
  20
0.000000
  40
0.250000
  50
0.000000
  1
VERSION: 3
  7
STANDARD
  0
TEXT
  8
1
  10
0.000000
  20
0.000000
  40
0.250000
  50
0.000000
  1
SAMPLE SIZE: M
  7
STANDARD
  0
TEXT
  8
1
  10
0.000000
  20
0.000000
  40
0.250000
  50
0.000000
  1
UNITS: METRIC
  7
STANDARD
  0
ENDSEC
  0
EOF
