<svg width="20" height="20" viewBox="0 0 20 20" fill="none" xmlns="http://www.w3.org/2000/svg">
<path d="M4.99998 7V14.25C4.99998 14.7361 5.17045 15.19 5.49021 15.5098C5.80998 15.8295 6.26387 16 6.74998 16H13.25C13.7361 16 14.19 15.8295 14.5097 15.5098C14.8295 15.19 15 14.7361 15 14.25V7H14V14.25C14 14.5139 13.9205 14.685 13.8027 14.8027C13.685 14.9205 13.5139 15 13.25 15H6.74998C6.48609 15 6.31497 14.92 6.19724 14.8027C6.0795 14.685 5.99998 14.5139 5.99998 14.25V7H4.99998ZM8.49998 3C8.22385 3 8.00001 3.2239 7.99998 3.5V5H4.49998C3.82382 4.99 3.82382 6.0096 4.49998 6H15.5C16.1761 6.01 16.1761 4.9904 15.5 5H12V3.5C11.9999 3.2239 11.7761 3 11.5 3H8.49998ZM8.99998 4H11V5H8.99998V4Z" fill="white"/>
<path opacity="0.6" d="M8.4922 7.99225C8.21606 7.99225 7.9957 8.22396 8.00001 8.50006V12.5001C7.99001 13.1763 9.00957 13.1763 9.00001 12.5001V8.50006C9.00401 8.21776 8.77446 7.98785 8.4922 7.99225ZM11.4922 7.99225C11.2161 7.99225 10.9957 8.22396 11 8.50006V12.5001C10.99 13.1763 12.0096 13.1763 12 12.5001V8.50006C12.004 8.21776 11.7745 7.98785 11.4922 7.99225Z" fill="white"/>
</svg>
