<svg width="52" height="48" viewBox="0 0 52 48" fill="none" xmlns="http://www.w3.org/2000/svg">
<path fill-rule="evenodd" clip-rule="evenodd" d="M11.5 16C11.5 14.8954 12.3954 14 13.5 14H24.4142L28.5 18.0858V32C28.5 33.1046 27.6046 34 26.5 34H13.5C12.3954 34 11.5 33.1046 11.5 32V16ZM23.5858 16L13.5 16V32H26.5V18.9142L23.5858 16ZM24 23.5H16V21.5H24V23.5ZM21 27.5H16V25.5H21V27.5Z" fill="white"/>
<path fill-rule="evenodd" clip-rule="evenodd" d="M37.1643 23.1426L37.6357 22.6712L39.9927 25.0282L42.3498 22.6712L42.8212 23.1426L40.2285 25.7353C40.2284 25.7353 40.2284 25.7353 39.9927 25.4996L40.2285 25.7353L39.9927 25.971L37.1643 23.1426Z" fill="white"/>
</svg>
