<svg width="52" height="48" viewBox="0 0 52 48" fill="none" xmlns="http://www.w3.org/2000/svg">
<path fill-rule="evenodd" clip-rule="evenodd" d="M17 19.5C17 17.8431 18.3431 16.5 20 16.5C21.6569 16.5 23 17.8431 23 19.5C23 21.1569 21.6569 22.5 20 22.5C18.3431 22.5 17 21.1569 17 19.5ZM20 14.5C17.2386 14.5 15 16.7386 15 19.5C15 22.2614 17.2386 24.5 20 24.5C22.7614 24.5 25 22.2614 25 19.5C25 16.7386 22.7614 14.5 20 14.5ZM16 25.5C14.5608 25.5 13.1952 25.9386 12.1719 26.8048C11.1328 27.6844 10.5 28.9637 10.5 30.5V32C10.5 32.8284 11.1716 33.5 12 33.5H28C28.8284 33.5 29.5 32.8284 29.5 32V30.5C29.5 28.9637 28.8672 27.6844 27.8281 26.8048C26.8048 25.9386 25.4392 25.5 24 25.5H16ZM12.5 30.5C12.5 29.551 12.8746 28.8303 13.4641 28.3313C14.0695 27.8188 14.9539 27.5 16 27.5H24C25.0461 27.5 25.9305 27.8188 26.5359 28.3313C27.1254 28.8303 27.5 29.551 27.5 30.5V31.5H12.5V30.5Z" fill="white"/>
<path fill-rule="evenodd" clip-rule="evenodd" d="M37.1643 23.1426L37.6357 22.6712L39.9927 25.0282L42.3498 22.6712L42.8212 23.1426L40.2285 25.7353C40.2284 25.7353 40.2284 25.7353 39.9927 25.4996L40.2285 25.7353L39.9927 25.971L37.1643 23.1426Z" fill="white"/>
</svg>
