<svg width="52" height="48" viewBox="0 0 52 48" fill="none" xmlns="http://www.w3.org/2000/svg">
<path fill-rule="evenodd" clip-rule="evenodd" d="M10 14.5H14V18.5H10V14.5ZM18 18.5V22.5H14V18.5H18ZM14 26.5H10V22.5H14V26.5ZM18 26.5H14V30H10V34H14V30.5H18V34H22V30.5H26V34H30V30H26V26.5H30V22.5H26V18.5H30V14.5H26V18.5H22V14.5H18V18.5H22V22.5H18V26.5ZM22 26.5H18V30H22V26.5ZM22 22.5V26.5H26V22.5H22Z" fill="white"/>
<path fill-rule="evenodd" clip-rule="evenodd" d="M37.1643 23.1426L37.6357 22.6712L39.9927 25.0282L42.3498 22.6712L42.8212 23.1426L40.2285 25.7353C40.2284 25.7353 40.2284 25.7353 39.9927 25.4996L40.2285 25.7353L39.9927 25.971L37.1643 23.1426Z" fill="white"/>
</svg>
