<svg width="52" height="48" viewBox="0 0 52 48" fill="none" xmlns="http://www.w3.org/2000/svg">
<path fill-rule="evenodd" clip-rule="evenodd" d="M11.4141 25.4349L20.9352 15.9139L26.8278 17.0924L28.0063 22.985L18.4852 32.506L11.4141 25.4349ZM21.065 13.9002C20.5732 13.8019 20.0648 13.9558 19.7102 14.3105L9.64637 24.3743C9.06058 24.9601 9.06059 25.9098 9.64637 26.4956L17.4245 34.2738C18.0103 34.8596 18.9601 34.8596 19.5459 34.2738L29.6097 24.21C29.9643 23.8553 30.1183 23.3469 30.0199 22.8551L28.7235 16.3733C28.6048 15.7795 28.1406 15.3154 27.5468 15.1966L21.065 13.9002ZM24.2884 20.1732C24.2884 20.4493 24.0645 20.6732 23.7884 20.6732C23.699 20.6732 23.615 20.6497 23.5424 20.6086C23.3919 20.5223 23.2906 20.3602 23.2906 20.1744C23.2906 19.8983 23.5145 19.6744 23.7906 19.6744C23.8801 19.6744 23.9641 19.6979 24.0368 19.7391C24.1871 19.8253 24.2884 19.9874 24.2884 20.1732ZM23.7884 18.6732C22.96 18.6732 22.2884 19.3447 22.2884 20.1732C22.2884 20.7322 22.5942 21.2198 23.0477 21.4778C23.2667 21.6029 23.5203 21.6744 23.7906 21.6744C24.619 21.6744 25.2906 21.0029 25.2906 20.1744C25.2906 19.615 24.9843 19.127 24.5303 18.8692C24.3115 18.7444 24.0583 18.6732 23.7884 18.6732Z" fill="white"/>
<path fill-rule="evenodd" clip-rule="evenodd" d="M37.1643 23.1426L37.6357 22.6712L39.9927 25.0282L42.3498 22.6712L42.8212 23.1426L40.2285 25.7353C40.2284 25.7353 40.2284 25.7353 39.9927 25.4996L40.2285 25.7353L39.9927 25.971L37.1643 23.1426Z" fill="white"/>
</svg>
