<svg width="52" height="48" viewBox="0 0 52 48" fill="none" xmlns="http://www.w3.org/2000/svg">
<path fill-rule="evenodd" clip-rule="evenodd" d="M10.5 24C10.5 18.7533 14.7533 14.5 20 14.5C25.2467 14.5 29.5 18.7533 29.5 24V24.3148C29.5 29.3877 25.3877 33.5 20.3148 33.5H10.5V24ZM20 16.5C15.8579 16.5 12.5 19.8579 12.5 24V31.5H20.3148C24.2831 31.5 27.5 28.2831 27.5 24.3148V24C27.5 19.8579 24.1421 16.5 20 16.5ZM24.5 21V23H15.5V21H24.5ZM20 27.5H15.5V25.5H20V27.5Z" fill="white"/>
<path fill-rule="evenodd" clip-rule="evenodd" d="M37.1643 23.1426L37.6357 22.6712L39.9927 25.0282L42.3498 22.6712L42.8212 23.1426L40.2285 25.7353C40.2284 25.7353 40.2284 25.7353 39.9927 25.4996L40.2285 25.7353L39.9927 25.971L37.1643 23.1426Z" fill="white"/>
</svg>
