<svg width="20" height="20" viewBox="0 0 20 20" fill="none" xmlns="http://www.w3.org/2000/svg">
<path d="M14.1387 3.0332C13.6426 2.9881 13.1001 3.19293 12.6465 3.64649L11.8965 4.39649C11.7013 4.59176 11.7013 4.90825 11.8965 5.10352L14.8965 8.10352C15.0918 8.29871 15.4083 8.29871 15.6035 8.10352L16.3535 7.35352C16.8071 6.89995 17.0119 6.35746 16.9668 5.86133C16.9217 5.3652 16.6625 4.95542 16.3535 4.64649L15.3535 3.64649C15.0446 3.33757 14.6348 3.07831 14.1387 3.0332ZM10.7423 5.75C10.6124 5.752 10.4884 5.80461 10.3965 5.89649L4.14655 12.1465C4.08265 12.2107 4.03746 12.291 4.01569 12.3789L3.01569 16.3789C2.92529 16.7443 3.25579 17.0747 3.62116 16.9844L7.62116 15.9844C7.70906 15.9626 7.78938 15.9174 7.85358 15.8535L14.1036 9.60352C14.2988 9.40825 14.2988 9.09176 14.1036 8.89649L11.1036 5.89649C11.0079 5.80079 10.8776 5.74792 10.7423 5.75Z" fill="white"/>
</svg>
