<svg width="15" height="15" viewBox="0 0 15 15" fill="none" xmlns="http://www.w3.org/2000/svg">
<path d="M11.7266 7.89011e-05C11.5333 -0.0039211 11.34 0.0132602 11.1523 0.0508602C10.4016 0.201 9.70541 0.628659 9.14648 1.18758L7.00195 3.295L5.85351 2.14656C5.80688 2.09837 5.75105 2.06006 5.68931 2.03389C5.62757 2.00772 5.56119 1.99422 5.49414 1.99422C5.39455 1.99424 5.29723 2.02399 5.21466 2.07967C5.13208 2.13535 5.06803 2.21446 5.03068 2.30678C4.99333 2.3991 4.9844 2.50043 5.00503 2.59786C5.02566 2.69529 5.07491 2.78434 5.14648 2.85359L6.79296 4.50008L2.14453 9.18953C2.05195 9.28312 2.00002 9.40946 1.99999 9.54109V10.3341L0.146479 12.1876C0.0985134 12.2337 0.0602136 12.2888 0.0338386 12.3499C0.00746364 12.4109 -0.0064641 12.4767 -0.00713123 12.5432C-0.00779836 12.6097 0.00481803 12.6757 0.0299629 12.7373C0.0551077 12.7988 0.0922758 12.8548 0.139307 12.9018C0.186339 12.9488 0.242282 12.986 0.303858 13.0111C0.365435 13.0363 0.431411 13.0489 0.497919 13.0482C0.564428 13.0476 0.630128 13.0336 0.691187 13.0072C0.752246 12.9808 0.807433 12.9426 0.85351 12.8946L2.85351 10.8946C2.94728 10.8009 2.99997 10.6737 2.99999 10.5411V9.74617L7.50195 5.20906L8.79492 6.50203L4.29101 11.0411H3.49999C3.36739 11.0411 3.24024 11.0938 3.14648 11.1876L1.14648 13.1876C1.09851 13.2337 1.06021 13.2888 1.03384 13.3499C1.00746 13.4109 0.993536 13.4767 0.992869 13.5432C0.992202 13.6097 1.00482 13.6757 1.02996 13.7373C1.05511 13.7988 1.09228 13.8548 1.13931 13.9018C1.18634 13.9488 1.24228 13.986 1.30386 14.0111C1.36543 14.0363 1.43141 14.0489 1.49792 14.0482C1.56443 14.0476 1.63013 14.0336 1.69119 14.0072C1.75225 13.9808 1.80743 13.9426 1.85351 13.8946L3.70703 12.0411H4.49999C4.56612 12.0411 4.63158 12.0279 4.69259 12.0025C4.75361 11.977 4.80897 11.9397 4.85546 11.8927L9.50195 7.20906L11.1465 8.85359C11.1926 8.90153 11.2477 8.93979 11.3088 8.96614C11.3699 8.9925 11.4355 9.00644 11.502 9.0071C11.5685 9.00775 11.6345 8.99513 11.6961 8.96999C11.7576 8.94484 11.8135 8.90763 11.8606 8.86061C11.9076 8.81359 11.9447 8.75768 11.9699 8.69612C11.995 8.63456 12.0077 8.56859 12.007 8.50209C12.0063 8.4356 11.9924 8.36991 11.9661 8.30886C11.9397 8.2478 11.9014 8.19265 11.8535 8.14656L10.7109 7.00398L12.8496 4.89852L12.8536 4.89455C13.4125 4.33562 13.8402 3.63934 13.9903 2.88863C14.1405 2.13791 13.9714 1.30538 13.3536 0.687518C12.8902 0.224128 12.3064 0.0132289 11.7266 7.89011e-05Z" fill="white"/>
</svg>
