<svg width="52" height="48" viewBox="0 0 52 48" fill="none" xmlns="http://www.w3.org/2000/svg">
<path fill-rule="evenodd" clip-rule="evenodd" d="M21.5 16.2808L18.5 17.0308V20H21.5V16.2808ZM23.5 20V15.6404C23.5 14.6645 22.5829 13.9485 21.6362 14.1852L17.6362 15.1852C16.9684 15.3521 16.5 15.9521 16.5 16.6404V20H15.5C14.6716 20 14 20.6716 14 21.5V24.5H13C12.1716 24.5 11.5 25.1716 11.5 26V33.5H13.5V26.5H16V22H24V26.5H26.5V33.5H28.5V26C28.5 25.1716 27.8284 24.5 27 24.5H26V21.5C26 20.6716 25.3284 20 24.5 20H23.5Z" fill="white"/>
<path fill-rule="evenodd" clip-rule="evenodd" d="M37.1643 23.1431L37.6357 22.6717L39.9927 25.0287L42.3498 22.6717L42.8212 23.1431L40.2285 25.7358C40.2284 25.7358 40.2284 25.7358 39.9927 25.5001L40.2285 25.7358L39.9927 25.9715L37.1643 23.1431Z" fill="white"/>
</svg>
